<?xml version="1.0" standalone="no"?>
<!DOCTYPE svg PUBLIC "-//W3C//DTD SVG 1.1//EN" "http://www.w3.org/Graphics/SVG/1.1/DTD/svg11.dtd" >
<svg>
<metadata>
Created by FontForge 20090914 at Sat Aug  2 14:37:33 2014
 By www-data
DSN KaMon &#194;&#169; Dusit Supasawat 1998. All Rights Reserved
</metadata>
<defs>
<font id="DSNKaMon" horiz-adv-x="0" >
  <font-face 
    font-family="DSN KaMon"
    font-weight="400"
    font-stretch="normal"
    units-per-em="2048"
    panose-1="0 0 4 0 0 0 0 0 0 0"
    ascent="1638"
    descent="-410"
    x-height="718"
    cap-height="970"
    bbox="-926.002 -799 1620 1813"
    underline-thickness="100"
    underline-position="-150"
    unicode-range="U+0020-U+F71D"
  />
<missing-glyph horiz-adv-x="1024" 
d="M128 0v1700h768v-1700h-768zM256 128h512v1444h-512v-1444z" />
    <glyph glyph-name=".notdef" horiz-adv-x="1024" 
d="M128 0v1700h768v-1700h-768zM256 128h512v1444h-512v-1444z" />
    <glyph glyph-name="space" unicode=" " horiz-adv-x="455" 
 />
    <glyph glyph-name="exclam" unicode="!" horiz-adv-x="388" 
d="M147 165h96v-165h-96v165zM147 970h96v-715h-96v715z" />
    <glyph glyph-name="quotedbl" unicode="&#x22;" horiz-adv-x="406" 
d="M97 970h68v-297h-68v297zM243 970h69v-297h-69v297z" />
    <glyph glyph-name="numbersign" unicode="#" horiz-adv-x="943" 
d="M275 328h-240l25 75h242l60 163h-242l27 77h241l120 327h69l-121 -327h144l121 327h67l-120 -327h245l-30 -77h-240l-58 -163h241l-26 -75h-244l-118 -328h-68l118 328h-145l-120 -328h-68zM516 403l59 163h-145l-60 -163h146z" />
    <glyph glyph-name="dollar" unicode="$" horiz-adv-x="726" 
d="M323 40c-62 9.33301 -114.663 36.835 -157.996 82.502s-65 99.167 -65 160.5v15h92c0 -49.333 16.667 -90.833 50 -124.5s74.333 -50.5 123 -50.5c46 0 85.833 16 119.5 48s50.5 71 50.5 117c0 92.667 -56.667 155 -170 187c-42 11.333 -72.333 21 -91 29
c-32 13.333 -58.333 30.666 -79 51.999c-44.667 45.333 -67 100.333 -67 165c0 58.667 18 109.167 54 151.5s83 68.5 141 78.5v108h83v-108c62.667 -8.66699 113.667 -34.834 153 -78.501s59 -96.834 59 -159.501h-91c0 45.333 -14.833 82.5 -44.5 111.5
s-67.167 43.5 -112.5 43.5c-34.667 0 -67 -11.667 -97 -35c-33.333 -26 -50 -65 -50 -117c0 -46.667 15 -82 45 -106c21.333 -17.333 58.666 -33.666 111.999 -48.999c33.333 -9.33301 63.666 -20 90.999 -32c31.333 -13.333 58.666 -31.333 81.999 -54
c51.333 -48.667 77 -110 77 -184c0 -64 -21 -121.333 -63 -172c-44.667 -52.667 -98.334 -79 -161.001 -79v-110h-83v110z" />
    <glyph glyph-name="percent" unicode="%" horiz-adv-x="1018" 
d="M673 970h95l-435 -970h-95zM475 755c0 -62 -22.499 -115.499 -67.499 -160.499s-98.5 -67.5 -160.5 -67.5c-63.333 0 -117.333 22.667 -162 68s-67 99.666 -67 162.999c0 66 22 120.5 66 163.5s99.333 64.5 166 64.5c63.333 0 116.666 -22.5 159.999 -67.5
s65 -99.5 65 -163.5zM986.001 210.001c0 -62.667 -22.332 -116.333 -66.999 -161s-98.334 -67 -161.001 -67c-62 0 -115.5 22.5 -160.5 67.5s-67.5 98.5 -67.5 160.5c0 65.333 22 120.5 66 165.5s98.667 67.5 164 67.5c64 0 117.667 -22.667 161 -68s65 -100.333 65 -165z
M110.002 758.002c0 -38.667 13.167 -71.667 39.5 -99s58.833 -41 97.5 -41s70.5 14.333 95.5 43s37.5 62.667 37.5 102c0 36 -12.667 66.333 -38 91s-56 37 -92 37c-40.667 0 -74.167 -12.167 -100.5 -36.5s-39.5 -56.5 -39.5 -96.5zM621.002 210.002
c0 -38 13.332 -69.833 39.999 -95.5s59 -38.5 97 -38.5c38.667 0 70.834 13.5 96.501 40.5s38.5 59.833 38.5 98.5c0 36.667 -13 68.5 -39 95.5s-57.333 40.5 -94 40.5c-40 0 -73.167 -13.5 -99.5 -40.5s-39.5 -60.5 -39.5 -100.5z" />
    <glyph glyph-name="ampersand" unicode="&#x26;" horiz-adv-x="993" 
d="M899 630l-181.001 -342.001l247 -238l-72 -68l-220 218c-72.667 -145.333 -172 -218 -298 -218c-83.333 0 -154 29.333 -212 88s-87 129.667 -87 213c0 122 72.333 218 217 288c-67.333 68.667 -101 136 -101 202c0 58 22.833 108 68.5 150s97.834 63 156.501 63
c66 0 122.167 -22.167 168.5 -66.5s69.5 -99.166 69.5 -164.499c0 -96 -62.667 -168.333 -188 -217l183 -181l138 273h111zM324.999 474.999c-50.667 -28 -86.333 -53.667 -107 -77c-30 -34.667 -45 -75.667 -45 -123c0 -53.333 19 -99.833 57 -139.5
s83.667 -59.5 137 -59.5c56 0 104 19.667 144 59c28 27.333 57.667 72.333 89 135l-233 228zM422 890.999c-36.667 0 -68.167 -11.5 -94.5 -34.5s-39.5 -52.5 -39.5 -88.5c0 -28 12 -57.333 36 -88c7.33301 -9.33301 30.333 -33.333 69 -72c110 42.667 165 96 165 160
c0 34 -14 63 -42 87s-59.333 36 -94 36z" />
    <glyph glyph-name="quotesingle" unicode="'" horiz-adv-x="260" 
d="M97 970h66v-297h-66v297z" />
    <glyph glyph-name="parenleft" unicode="(" horiz-adv-x="485" 
d="M440 886c-82.667 -48.667 -148.333 -118.332 -197 -208.999c-46.667 -87.333 -70 -180.333 -70 -279c0 -94.667 24 -186 72 -274c49.333 -90.667 114.333 -159 195 -205v-87c-59.333 15.333 -120 56 -182 122c-72.667 77.333 -124 164 -154 260
c-18.667 59.333 -28 120.666 -28 183.999c0 128.667 34 246 102 352c78 122 165.333 195.333 262 220v-84z" />
    <glyph glyph-name="parenright" unicode=")" horiz-adv-x="485" 
d="M45 -81c80 44 145.002 111.999 195.002 203.999c48 88.667 72 180.334 72 275.001c0 98 -23.333 190.667 -70 278c-48.667 90.667 -114.334 159.667 -197.001 207v87c96 -27.333 183.667 -100.666 263 -219.999c66.667 -100.667 100 -218 100 -352
c0 -130 -36.667 -247.667 -110 -353c-35.333 -50.667 -72 -93.334 -110 -128.001c-48.667 -44.667 -96.334 -73 -143.001 -85v87z" />
    <glyph glyph-name="asterisk" unicode="*" horiz-adv-x="558" 
d="M472 763h-132l72 -115l-61 -37l-71 117l-68 -117l-62 37l70 115h-136v68h136l-70 117l62 38l68 -118l71 118l61 -38l-72 -117h132v-68z" />
    <glyph glyph-name="plus" unicode="+" horiz-adv-x="795" 
d="M348 726h100v-278h280v-100h-280v-283h-100v283h-280v100h280v278z" />
    <glyph glyph-name="comma" unicode="," horiz-adv-x="365" 
d="M236 165h97l-115 -255h-98z" />
    <glyph glyph-name="hyphen" unicode="-" horiz-adv-x="435" 
d="M396 438v-87h-354v87h354z" />
    <glyph glyph-name="hyphen" unicode="&#x2010;" horiz-adv-x="435" 
d="M396 438v-87h-354v87h354z" />
    <glyph glyph-name="period" unicode="." horiz-adv-x="365" 
d="M133 165h97v-165h-97v165z" />
    <glyph glyph-name="slash" unicode="/" horiz-adv-x="575" 
d="M433 970h89l-382 -1138h-88z" />
    <glyph glyph-name="zero" unicode="0" horiz-adv-x="726" 
d="M40 621c0 104 24.668 186.666 74.001 247.999c63.333 78 147 117 251 117c71.333 0 135.166 -20.667 191.499 -62s94.833 -96 115.5 -164c12 -40 18 -86.333 18 -139v-251c0 -58.667 -4 -105.667 -12 -141c-11.333 -48.667 -31.333 -91 -60 -127
c-64.667 -80 -149 -120 -253 -120c-102 0 -185.333 38.333 -250 115c-30.667 36.667 -51.667 79.334 -63 128.001c-8 34.667 -12 83 -12 145v251zM593.001 597.999c0 90.667 -14.332 157 -42.999 199c-42.667 62.667 -104.334 94 -185.001 94c-90 0 -155 -36.667 -195 -110
c-22.667 -42 -34 -103 -34 -183v-213c0 -103.333 14 -175 42 -215c44 -62.667 106.333 -94 187 -94c86 0 150.333 35.667 193 107c23.333 38.667 35 106 35 202v213z" />
    <glyph glyph-name="one" unicode="1" horiz-adv-x="726" 
d="M362 881h-162v89h258v-970h-96v881z" />
    <glyph glyph-name="two" unicode="2" horiz-adv-x="726" 
d="M45 87l369.998 356c48.667 46.667 82.334 83.334 101.001 110.001c33.333 47.333 50 93 50 137c0 59.333 -20.5 107.666 -61.5 144.999s-91.5 56 -151.5 56c-47.333 0 -90.666 -15.167 -129.999 -45.5s-62 -68.5 -68 -114.5c-3.33301 -21.333 -5 -46.666 -5 -75.999h-98
c0 94.667 27.667 173 83 235c58 64 133.667 96 227 96c79.333 0 149.333 -29.333 210 -88s91 -127.334 91 -206.001c0 -80 -32 -156 -96 -228c-12.667 -14 -42.667 -43.667 -90 -89l-299 -285h480v-90h-613v87z" />
    <glyph glyph-name="three" unicode="3" horiz-adv-x="726" 
d="M110 728c0 74 22.835 135.501 68.502 184.501s105.167 73.5 178.5 73.5c68.667 0 126 -24.5 172 -73.5s69 -107.833 69 -176.5c0 -70 -33.333 -130 -100 -180c49.333 -22 88.666 -57 117.999 -105s44 -99.667 44 -155c0 -88 -30 -162.333 -90 -223s-134 -91 -222 -91
c-86 0 -158.333 32.667 -217 98c-57.333 62.667 -86 137.667 -86 225h97c0 -52 10.333 -94.333 31 -127c43.333 -68 101 -102 173 -102c62 0 113.667 20.667 155 62s62 93 62 155c0 53.333 -17.833 100.666 -53.5 141.999s-79.834 65 -132.501 71
c-15.333 1.33301 -33.666 2 -54.999 2h-34v87l35 -2c48 -2.66699 89.5 9.5 124.5 36.5s52.5 65.5 52.5 115.5c0 43.333 -14.333 78.5 -43 105.5s-65 40.5 -109 40.5c-42.667 0 -76.834 -16.167 -102.501 -48.5s-38.5 -70.5 -38.5 -114.5h-97z" />
    <glyph glyph-name="four" unicode="4" horiz-adv-x="726" 
d="M506 178h-491v87l470 705h118v-705h89v-87h-89v-178h-97v178zM506 836l-375 -571h375v571z" />
    <glyph glyph-name="five" unicode="5" horiz-adv-x="726" 
d="M175 970h438.002v-89h-358l-50 -268c52 31.333 107 47 165 47c91.333 0 168.333 -33.333 231 -100c60.667 -66 91 -145 91 -237c0 -93.333 -30.667 -173 -92 -239c-62.667 -68 -140.334 -102 -233.001 -102c-92 0 -170.333 31 -235 93s-97 138.667 -97 230h96
c0 -63.333 22.667 -117.333 68 -162s99.666 -67 162.999 -67c67.333 0 123 23.667 167 71s66 105 66 173c0 66.667 -21.333 124 -64 172c-44.667 49.333 -100 74 -166 74c-82 0 -148.667 -34.333 -200 -103l-78 30z" />
    <glyph glyph-name="six" unicode="6" horiz-adv-x="726" 
d="M500 970l-230.002 -340c34.667 18.667 73 28 115 28c86.667 0 160.667 -34.667 222 -104c58.667 -66 88 -143 88 -231c0 -89.333 -31.667 -168 -95 -236c-65.333 -70 -144.666 -105 -237.999 -105c-91.333 0 -168.666 33.333 -231.999 100s-95 146 -95 238
c0 69.333 20.333 139.333 61 210c14 24.667 34.333 56.667 61 96l231 344h112zM130.998 328c0 -68.667 20.999 -127.332 62.999 -175.999c44 -50.667 100 -76 168 -76c66 0 121.833 24 167.5 72s68.5 105.333 68.5 172c0 67.333 -22.667 125.166 -68 173.499
s-101.333 72.5 -168 72.5c-65.333 0 -120.166 -23.167 -164.499 -69.5s-66.5 -102.5 -66.5 -168.5z" />
    <glyph glyph-name="seven" unicode="7" horiz-adv-x="726" 
d="M540 881h-456v89h559v-89l-396 -881h-105z" />
    <glyph glyph-name="eight" unicode="8" horiz-adv-x="726" 
d="M108 736c0 72.667 24.832 132.504 74.499 179.504s111.167 70.5 184.5 70.5c72.667 0 133.167 -24.833 181.5 -74.5s72.5 -110.834 72.5 -183.501c0 -90 -38.333 -151.667 -115 -185c50.667 -22.667 90.834 -57.334 120.501 -104.001s44.5 -98 44.5 -154
c0 -84.667 -30.667 -156.334 -92 -215.001s-134.333 -88 -219 -88c-83.333 0 -155 29.667 -215 89s-90 130.666 -90 213.999c0 54 15 105.333 45 154c31.333 51.333 71.333 86 120 104c-74.667 36.667 -112 101 -112 193zM151.999 280.004
c0 -57.333 20.168 -105.667 60.501 -145s89.5 -59 147.5 -59c60 0 110.833 20 152.5 60s62.5 89.667 62.5 149c0 58 -20.833 106.667 -62.5 146s-91.834 59 -150.501 59c-60 0 -110 -20 -150 -60s-60 -90 -60 -150zM205 742.003c0 -46 15.5 -84.167 46.5 -114.5
s69.5 -45.5 115.5 -45.5c41.333 0 78 15.5 110 46.5s48 66.833 48 107.5c0 44 -15.333 80.833 -46 110.5s-68 44.5 -112 44.5c-43.333 0 -81 -13.667 -113 -41c-32.667 -29.333 -49 -65.333 -49 -108z" />
    <glyph glyph-name="nine" unicode="9" horiz-adv-x="726" 
d="M228 0l228 340c-32 -20 -70.667 -30 -116 -30c-86 0 -159 35.333 -219 106c-57.333 67.333 -86 144.666 -86 231.999c0 90 31.5 168.833 94.5 236.5s142.167 101.5 237.5 101.5c90.667 0 168 -33.167 232 -99.5s96 -145.166 96 -236.499c0 -70 -21 -140 -63 -210
c-2.66699 -4.66699 -24 -37 -64 -97l-228 -343h-112zM365 406c65.333 0 120.5 23 165.5 69s67.5 102 67.5 168c0 67.333 -22.167 125.5 -66.5 174.5s-99.833 73.5 -166.5 73.5c-65.333 0 -120.666 -23.833 -165.999 -71.5s-68 -104.167 -68 -169.5
c0 -64 23.167 -120.667 69.5 -170s101.166 -74 164.499 -74z" />
    <glyph glyph-name="colon" unicode=":" horiz-adv-x="365" 
d="M133 165h97v-165h-97v165zM133 668h97v-165h-97v165z" />
    <glyph glyph-name="semicolon" unicode=";" horiz-adv-x="365" 
d="M170 165h98l-116 -255h-97zM170 668h98v-165h-98v165z" />
    <glyph glyph-name="less" unicode="&#x3c;" horiz-adv-x="795" 
d="M731 145v-95l-666 303v85l666 304v-97l-543 -249z" />
    <glyph glyph-name="equal" unicode="=" horiz-adv-x="795" 
d="M728 475h-660v96h660v-96zM728 218h-660v99h660v-99z" />
    <glyph glyph-name="greater" unicode="&#x3e;" horiz-adv-x="795" 
d="M605 396l-542 249v97l668 -304v-85l-668 -303v95z" />
    <glyph glyph-name="question" unicode="?" horiz-adv-x="776" 
d="M346 165h97v-165h-97v165zM87 666l-0.00195312 29.002c0 77.333 29.833 145.166 89.5 203.499s132.834 87.5 219.501 87.5c84.667 0 154.834 -28.167 210.501 -84.5s83.5 -126.833 83.5 -211.5c0 -58 -21.333 -110.667 -64 -158l-118 -122
c-43.333 -47.333 -65 -99 -65 -155h-97c0 92 46.333 180.667 139 266c72 66 108 125.667 108 179c0 54 -20.5 99.333 -61.5 136s-88.833 55 -143.5 55c-60 0 -110 -22.333 -150 -67s-60 -97.334 -60 -158.001h-91z" />
    <glyph glyph-name="at" unicode="@" horiz-adv-x="1138" 
d="M1023 230c-42 -75.333 -102.001 -134.999 -180.001 -178.999s-160.667 -66 -248 -66c-142 0 -260.833 48.667 -356.5 146s-143.5 217 -143.5 359c0 138 48.667 255.167 146 351.5s215.333 144.5 354 144.5c57.333 0 113 -9.66699 167 -29
c56.667 -20.667 105.334 -48.667 146.001 -84c44.667 -38.667 79.334 -84.334 104.001 -137.001c22.667 -50 34 -106 34 -168c0 -88.667 -26 -168.667 -78 -240c-70.667 -96.667 -148 -145 -232 -145c-59.333 0 -97 23 -113 69c-40 -44 -92 -66 -156 -66
c-55.333 0 -99.833 18.833 -133.5 56.5s-50.5 84.5 -50.5 140.5c0 96.667 30 185.667 90 267c65.333 88.667 144.666 133 237.999 133c71.333 0 120.333 -28.333 147 -85l20 60h90l-135 -398c-11.333 -33.333 -17 -56.333 -17 -69c0 -26 13 -39 39 -39
c55.333 0 109 36.333 161 109c42.667 60.667 64 132 64 214c0 103.333 -39.333 188 -118 254c-74.667 62.667 -164.334 94 -269.001 94c-121.333 0 -223.833 -43.333 -307.5 -130s-125.5 -191 -125.5 -313c0 -120.667 42.333 -222.5 127 -305.5
s187.334 -124.5 308.001 -124.5c149.333 0 265.333 60 348 180h80zM636.999 385.001c17.333 32.667 32.667 69.334 46 110.001c14.667 44 22 82.667 22 116c0 25.333 -9 47.333 -27 66s-39.667 28 -65 28c-65.333 0 -121.333 -37.333 -168 -112
c-41.333 -66 -62 -133.667 -62 -203c0 -32.667 8.66699 -60.334 26 -83.001c18.667 -24.667 44 -37 76 -37c34 0 67 15 99 45c21.333 20 39 43.333 53 70z" />
    <glyph glyph-name="A" unicode="A" horiz-adv-x="970" 
d="M433 970h107l417 -970h-105l-142 325h-450l-140 -325h-105zM673 415l-185 443l-190 -443h375z" />
    <glyph glyph-name="B" unicode="B" horiz-adv-x="753" 
d="M100 970l227.999 0.00195312c96.667 0 171 -17 223 -51c72.667 -48 109 -116.667 109 -206c0 -80.667 -35.667 -145 -107 -193c106.667 -44.667 160 -126.334 160 -245.001c0 -97.333 -39.333 -171.333 -118 -222c-37.333 -24.667 -80.666 -40.334 -129.999 -47.001
c-29.333 -4 -75 -6 -137 -6h-228v970zM341.999 90.002c44.667 0 75.333 1 92 3c72.667 8.66699 124.667 38.667 156 90c17.333 28.667 26 58.667 26 90c0 113.333 -63.667 177 -191 191c-26 2 -55.667 3 -89 3h-139v-377h145zM325.998 556.002c70 0 123 9.66797 159 29.001
c52 28 78 72.333 78 133c0 59.333 -24 103.666 -72 132.999c-34 20 -87 30 -159 30h-135v-325h129z" />
    <glyph glyph-name="C" unicode="C" horiz-adv-x="1068" 
d="M899 721c-35.333 53.333 -84.667 95.334 -148 126.001c-60 29.333 -123.333 44 -190 44c-109.333 0 -204.333 -39.833 -285 -119.5s-121 -174.167 -121 -283.5c0 -112.667 40.333 -209.5 121 -290.5s177.334 -121.5 290.001 -121.5c139.333 0 251.333 59.667 336 179h107
c-42 -82.667 -103.333 -148.834 -184 -198.501s-167 -74.5 -259 -74.5c-143.333 0 -263.833 48.5 -361.5 145.5s-146.5 217.167 -146.5 360.5c0 138 48.667 255.5 146 352.5s215.333 145.5 354 145.5c105.333 0 198.666 -27 279.999 -81
c87.333 -58 143.333 -119.333 168 -184h-107z" />
    <glyph glyph-name="D" unicode="D" horiz-adv-x="975" 
d="M100 970h261.999c160 0 287.333 -38.333 382 -115c116 -94.667 174 -217 174 -367c0 -144 -53.333 -265.333 -160 -364c-89.333 -82.667 -219.666 -124 -390.999 -124h-267v970zM322.999 90c82.667 0 143 3.66699 181 11c128.667 24.667 221.334 96 278.001 214
c25.333 52.667 38 110.334 38 173.001c0 127.333 -49.667 229.666 -149 306.999c-46.667 36 -102 60.333 -166 73c-44.667 8.66699 -105.334 13 -182.001 13h-126v-791h126z" />
    <glyph glyph-name="E" unicode="E" horiz-adv-x="703" 
d="M100 970h530v-89h-433v-349h419v-87h-419v-355h433v-90h-530v970z" />
    <glyph glyph-name="F" unicode="F" horiz-adv-x="637" 
d="M100 970h493v-89h-396v-349h380v-89h-380v-443h-97v970z" />
    <glyph glyph-name="G" unicode="G" horiz-adv-x="1143" 
d="M1091 448c0 -132 -53.334 -243.666 -160.001 -334.999c-102 -87.333 -220 -131 -354 -131c-141.333 0 -263.166 49.333 -365.499 148s-153.5 218.667 -153.5 360c0 134 49.667 249.333 149 346c102.667 100 226 150 370 150c105.333 0 200.666 -28 285.999 -84
c32.667 -21.333 65 -49 97 -83c36 -38 59.333 -74.333 70 -109h-110c-34 57.333 -83 102.333 -147 135c-61.333 30.667 -126.666 46 -195.999 46c-114.667 0 -211 -36 -289 -108c-88.667 -82.667 -133 -181 -133 -295c0 -116.667 42.333 -215 127 -295
c82.667 -78 182.667 -117 300 -117c88 0 168.667 26.333 242 79c76 53.333 125.667 121.666 149 204.999h-540v88h658z" />
    <glyph glyph-name="H" unicode="H" horiz-adv-x="896" 
d="M100 970h97v-427h503v427h97v-970h-97v456h-503v-456h-97v970z" />
    <glyph glyph-name="I" unicode="I" horiz-adv-x="296" 
d="M100 970h97v-970h-97v970z" />
    <glyph glyph-name="J" unicode="J" horiz-adv-x="632" 
d="M532 273c0 -48.667 -2 -82.667 -6 -102c-15.333 -75.333 -61 -130 -137 -164c-36 -16.667 -74.667 -25 -116 -25c-71.333 0 -132.166 23.667 -182.499 71s-75.5 106.333 -75.5 177h95c4 -45.333 22.333 -82.333 55 -111s72 -43 118 -43
c69.333 0 116.666 32.333 141.999 97c6.66699 17.333 10 47 10 89v708h97v-697z" />
    <glyph glyph-name="K" unicode="K" horiz-adv-x="776" 
d="M100 970h97v-558l448 558h123l-383 -472l383 -498h-120l-325 420l-126 -155v-265h-97v970z" />
    <glyph glyph-name="L" unicode="L" horiz-adv-x="605" 
d="M100 970h97v-880h401v-90h-498v970z" />
    <glyph glyph-name="M" unicode="M" horiz-adv-x="1206" 
d="M100 970h150l353 -825l354 825h149v-970h-97v863l-364 -863h-84l-364 863v-863h-97v970z" />
    <glyph glyph-name="N" unicode="N" horiz-adv-x="970" 
d="M100 970h130l543 -805v805h97v-970h-97l-576 852v-852h-97v970z" />
    <glyph glyph-name="O" unicode="O" horiz-adv-x="1140" 
d="M1083 488c0 -142 -50.333 -261.834 -151 -359.501s-222 -146.5 -364 -146.5c-138.667 0 -258.334 48.5 -359.001 145.5s-151 214.5 -151 352.5c0 140.667 49.833 259.667 149.5 357s219.834 146 360.501 146c140 0 260.833 -47.667 362.5 -143
s152.5 -212.666 152.5 -351.999zM155 479.999c0 -112 41.667 -207.666 125 -286.999c81.333 -78 178.333 -117 291 -117c115.333 0 213.333 39.833 294 119.5s121 177.167 121 292.5c0 111.333 -41.167 206.333 -123.5 285s-179.5 118 -291.5 118
c-114.667 0 -212.667 -39.833 -294 -119.5s-122 -176.834 -122 -291.501z" />
    <glyph glyph-name="P" unicode="P" horiz-adv-x="776" 
d="M100 970h253c118 0 204.667 -17.333 260 -52c86 -54 129 -134 129 -240c0 -94.667 -36 -169 -108 -223c-58 -43.333 -142.667 -65 -254 -65h-183v-390h-97v970zM365 480c42.667 0 76.001 1.99902 100.001 5.99902c74 12.667 126.333 46.334 157 101.001
c15.333 28.667 23 59 23 91c0 87.333 -40 148 -120 182c-34.667 14.667 -80.334 22 -137.001 22h-33c-14 -0.666992 -24.667 -1 -32 -1h-126v-401h168z" />
    <glyph glyph-name="Q" unicode="Q" horiz-adv-x="1143" 
d="M1085 -18h-12c-76 0 -144.333 27.667 -205 83c-81.333 -55.333 -178.333 -83 -291 -83c-140.667 0 -261.667 47 -363 141c-104 96 -156 214 -156 354c0 146.667 50.333 268.667 151 366c100 95.333 223.667 143 371 143c148.667 0 272.667 -48.167 372 -144.5
s149 -218.5 149 -366.5c0 -136.667 -54.333 -255 -163 -355c45.333 -31.333 87.333 -47 126 -47h21v-91zM742 173l-76 57c-50 32.667 -115 56.667 -195 72c-38 6.66699 -75 10 -111 10c-58.667 0 -108.667 -9.66699 -150 -29c26.667 -50.667 72 -96.667 136 -138
c71.333 -46 151 -69 239 -69c81.333 0 151.333 19 210 57zM378 401c97.333 0 186.334 -18.999 267.001 -56.999c70 -32.667 145 -85.334 225 -158.001c89.333 84.667 134 181.667 134 291c0 118 -41.167 216.5 -123.5 295.5s-182.5 118.5 -300.5 118.5
c-118.667 0 -219.167 -39.5 -301.5 -118.5s-123.5 -177.5 -123.5 -295.5c0 -37.333 5 -74 15 -110c67.333 22.667 136.666 34 207.999 34z" />
    <glyph glyph-name="R" unicode="R" horiz-adv-x="797" 
d="M100 970h230.001c63.333 0 110.666 -2 141.999 -6c114.667 -14.667 197 -66 247 -154c26 -47.333 39 -99.666 39 -156.999c0 -80 -27.667 -148.5 -83 -205.5s-123 -85.5 -203 -85.5l273 -362h-122l-330 440h56c84 0 146 9 186 27c83.333 37.333 125 102.666 125 195.999
c0 71.333 -30.333 129 -91 173c-27.333 19.333 -62 32.333 -104 39c-25.333 4 -63.333 6 -114 6h-154v-881h-97v970z" />
    <glyph glyph-name="S" unicode="S" horiz-adv-x="653" 
d="M133 273c0 -55.333 18.8301 -102 56.4971 -140s83.834 -57 138.501 -57c56 0 103.167 18 141.5 54s57.5 82 57.5 138c0 54 -21.333 99.667 -64 137c-20 16.667 -44 30.334 -72 41.001c-19.333 7.33301 -45.666 15.333 -78.999 24c-44 11.333 -74 20 -90 26
c-31.333 12 -58 27.667 -80 47c-54.667 49.333 -82 109.333 -82 180c0 78 26.167 141.333 78.5 190s117.833 73 196.5 73c74.667 0 137.5 -25.167 188.5 -75.5s76.5 -112.833 76.5 -187.5h-100c0 49.333 -17.167 89.666 -51.5 120.999s-76.166 47 -125.499 47
c-47.333 0 -86.833 -16.167 -118.5 -48.5s-47.5 -72.166 -47.5 -119.499c0 -52.667 20 -92.334 60 -119.001c24 -16 61 -31.333 111 -46c70 -20 109 -31.667 117 -35c75.333 -28.667 127.333 -76.334 156 -143.001c14.667 -35.333 22 -72.666 22 -111.999
c0 -80 -28.667 -147.667 -86 -203s-126.333 -83 -207 -83c-84.667 0 -156 27.5 -214 82.5s-87 124.5 -87 208.5h104z" />
    <glyph glyph-name="T" unicode="T" horiz-adv-x="558" 
d="M233 881h-223v89h540v-89h-220v-881h-97v881z" />
    <glyph glyph-name="U" unicode="U" horiz-adv-x="860" 
d="M197 970l-0.000976562 -590.001c0 -88 14.667 -155.333 44 -202c42.667 -68 105.667 -102 189 -102c76.667 0 136.667 30 180 90c35.333 49.333 53 120.666 53 213.999v590h97v-590c0 -59.333 -4 -106.666 -12 -141.999c-24 -104.667 -81.667 -179 -173 -223
c-45.333 -22 -93.666 -33 -144.999 -33c-104.667 0 -188.667 39 -252 117c-52 62.667 -78 156.334 -78 281.001v590h97z" />
    <glyph glyph-name="V" unicode="V" horiz-adv-x="920" 
d="M13 970h107l338 -850l345 850h105l-402 -970h-91z" />
    <glyph glyph-name="W" unicode="W" horiz-adv-x="1258" 
d="M13 970h102l236 -845l234 845h91l232 -845l238 845h99l-275 -970h-129l-211 795l-213 -795h-129z" />
    <glyph glyph-name="X" unicode="X" horiz-adv-x="800" 
d="M340 495l-308 475h113l256 -388l254 388h113l-312 -475l332 -495h-115l-272 415l-276 -415h-115z" />
    <glyph glyph-name="Y" unicode="Y" horiz-adv-x="776" 
d="M340 325l-337 645h107l278 -545l280 545h105l-335 -645v-325h-98v325z" />
    <glyph glyph-name="Z" unicode="Z" horiz-adv-x="630" 
d="M23 87l475 794h-461v89h571v-89l-475 -791h488v-90h-598v87z" />
    <glyph glyph-name="bracketleft" unicode="[" horiz-adv-x="461" 
d="M412 -168c-66.667 15.333 -124.668 51.3311 -174.001 107.998c-60.667 69.333 -91 159.333 -91 270v380c0 57.333 4 101.333 12 132c20 77.333 68.667 143.333 146 198c36.667 26 72.334 42.667 107.001 50v-100c-114 -50.667 -171 -144 -171 -280v-365
c0 -77.333 11 -136.666 33 -177.999c25.333 -47.333 71.333 -85.666 138 -114.999v-100z" />
    <glyph glyph-name="backslash" unicode="\" horiz-adv-x="795" 
d="M110 970h95l403 -970h-92z" />
    <glyph glyph-name="bracketright" unicode="]" horiz-adv-x="461" 
d="M50 970c68.667 -19.333 126.333 -54.998 173 -106.998c61.333 -68.667 92 -158.667 92 -270v-381c0 -56 -4.33301 -100 -13 -132c-10 -37.333 -31.333 -77.333 -64 -120c-24.667 -32 -52.667 -59.333 -84 -82c-36 -24.667 -70.667 -40 -104 -46v100
c113.333 46 170 139.333 170 280v363c0 51.333 -1.66699 85.666 -5 102.999c-11.333 61.333 -42.333 111.666 -93 150.999c-20 15.333 -44 29 -72 41v100z" />
    <glyph glyph-name="asciicircum" unicode="^" horiz-adv-x="881" 
d="M68 236l333 734h76l338 -734h-84l-293 634l-286 -634h-84z" />
    <glyph glyph-name="underscore" unicode="_" horiz-adv-x="655" 
d="M0 -270v73h655v-73h-655z" />
    <glyph glyph-name="grave" unicode="`" horiz-adv-x="495" 
d="M398 881l-41 -76l-260 138l43 80z" />
    <glyph glyph-name="a" unicode="a" horiz-adv-x="896" 
d="M813 0h-92v136c-55.333 -102.667 -148 -154 -278 -154c-120.667 0 -226.667 51.333 -318 154c-15.333 17.333 -30 45.333 -44 84c-17.333 48.667 -26 97 -26 145c0 42 9.33301 86.667 28 134c14.667 37.333 30.667 65 48 83c96.667 100.667 199.667 151 309 151
c133.333 0 227 -50.333 281 -151v136h92v-718zM152 357c0 -78 28.833 -144.333 86.5 -199s125.834 -82 204.501 -82c74.667 0 139.667 27.5 195 82.5s83 119.833 83 194.5c0 80.667 -26.667 148.667 -80 204s-120.333 83 -201 83c-78.667 0 -146.334 -27.5 -203.001 -82.5
s-85 -121.833 -85 -200.5z" />
    <glyph glyph-name="b" unicode="b" horiz-adv-x="893" 
d="M84 970h96.002v-385c22.667 47.333 60.667 84.333 114 111c48.667 24.667 101 37 157 37c107.333 0 198.666 -35.333 273.999 -106s113 -159 113 -265c0 -97.333 -27.667 -177 -83 -239c-84 -94 -182 -141 -294 -141c-55.333 0 -109 12 -161 36
c-56.667 26 -98.334 61 -125.001 105v-123h-91v970zM192.002 464c-12.667 -32.667 -19.001 -69.667 -19.001 -111c0 -79.333 28 -145.333 84 -198s124 -79 204 -79c78 0 144.333 27.833 199 83.5s82 122.5 82 200.5c0 81.333 -27.667 148.333 -83 201s-124 79 -206 79
c-37.333 0 -73.666 -7.66699 -108.999 -23c-75.333 -32.667 -126 -83.667 -152 -153z" />
    <glyph glyph-name="c" unicode="c" horiz-adv-x="850" 
d="M797 210c-72 -152 -188.335 -228.001 -349.002 -228.001c-109.333 0 -201.666 35.333 -276.999 106c-77.333 72.667 -116 163.334 -116 272.001c0 105.333 38.667 194.333 116 267c75.333 70.667 166 106 272 106c78 0 149.833 -21 215.5 -63
s111.834 -98.667 138.501 -170h-107c-55.333 93.333 -137 140 -245 140c-80.667 0 -149.667 -26.333 -207 -79s-86 -119 -86 -199c0 -80.667 27.5 -148.5 82.5 -203.5s122.833 -82.5 203.5 -82.5c101.333 0 185.333 44.667 252 134h107z" />
    <glyph glyph-name="d" unicode="d" horiz-adv-x="899" 
d="M815 0h-91.999v131c-70 -99.333 -166 -149 -288 -149c-102.667 0 -203.334 49.667 -302.001 149c-52 52.667 -78 129.667 -78 231c0 105.333 37.667 193.5 113 264.5s166 106.5 272 106.5c127.333 0 220 -46.667 278 -140v377h97v-970zM435.001 640
c-77.333 0 -143.833 -27.167 -199.5 -81.5s-83.5 -119.833 -83.5 -196.5c0 -80 27.667 -147.667 83 -203s123 -83 203 -83c78.667 0 145.5 28 200.5 84s82.5 123.333 82.5 202s-27.833 144.667 -83.5 198s-123.167 80 -202.5 80z" />
    <glyph glyph-name="e" unicode="e" horiz-adv-x="852" 
d="M152 325c0 -67.333 27.999 -125.668 83.999 -175.001s118 -74 186 -74c54.667 0 105.334 13.667 152.001 41c49.333 28.667 84 67.334 104 116.001h103c-25.333 -72.667 -70.666 -132.667 -135.999 -180s-136 -71 -212 -71c-106 0 -195.5 36.5 -268.5 109.5
s-109.5 162.5 -109.5 268.5c0 105.333 36.167 193.833 108.5 265.5s161.166 107.5 266.499 107.5c117.333 0 213.333 -46 288 -138c56.667 -70 85 -160 85 -270h-651zM704.999 411.998c-14 66 -46.666 120.501 -97.999 163.501s-110.333 64.5 -177 64.5
c-68.667 0 -129.334 -21.333 -182.001 -64s-84.667 -97.334 -96 -164.001h553z" />
    <glyph glyph-name="f" unicode="f" horiz-adv-x="412" 
d="M133 630h-113v88h113c0 80 22.5 142 67.5 186s107.5 66 187.5 66h18v-89h-18c-105.333 0 -158 -50 -158 -150v-13h178v-88h-178v-630h-97v630z" />
    <glyph glyph-name="g" unicode="g" horiz-adv-x="883" 
d="M800 102c0 -66.667 -3.66602 -114.331 -10.999 -142.998c-24.667 -96.667 -91 -166.334 -199 -209.001c-50.667 -20 -103 -30 -157 -30c-81.333 0 -155 24 -221 72c-68 49.333 -111.667 112.666 -131 189.999h94c62.667 -113.333 151 -170 265 -170
c110 0 188.667 41.667 236 125c21.333 37.333 32 92.333 32 165v40c-22.667 -51.333 -61.334 -91.333 -116.001 -120c-50 -26.667 -104.667 -40 -164 -40c-98.667 0 -186 36.333 -262 109c-74 70 -111 158.667 -111 266c0 92.667 22.667 167 68 223
c82.667 102 182.334 153 299.001 153c135.333 0 230.666 -51 285.999 -153v138h92v-616zM152.001 367.003c0 -81.333 25.667 -149.666 77 -204.999c52 -57.333 118.333 -86 199 -86c78.667 0 143.334 26.667 194.001 80c55.333 58 83 126 83 204
c0 80.667 -27.333 147.5 -82 200.5s-122.334 79.5 -203.001 79.5c-74.667 0 -138 -26.833 -190 -80.5s-78 -117.834 -78 -192.501z" />
    <glyph glyph-name="h" unicode="h" horiz-adv-x="800" 
d="M84 970h95.998v-357c42.667 80 115.334 120 218.001 120c100 0 181.667 -36 245 -108c50 -58 75 -140.333 75 -247v-378h-97v378c0 76 -13.667 133.333 -41 172c-42.667 60 -105 90 -187 90c-73.333 0 -131.666 -29 -174.999 -87c-25.333 -34 -38 -92.333 -38 -175v-378
h-96v970z" />
    <glyph glyph-name="i" unicode="i" horiz-adv-x="262" 
d="M84 718h96v-718h-96v718zM84 970h96v-165h-96v165z" />
    <glyph glyph-name="j" unicode="j" horiz-adv-x="268" 
d="M183 65c0 -62.667 -2.33301 -105.667 -7 -129c-8.66699 -44 -28 -82 -58 -114c-46.667 -49.333 -106 -74 -178 -74v95c62 0 103.667 23 125 69c14.667 31.333 22 82.333 22 153v653h96v-653zM87 970h96v-165h-96v165z" />
    <glyph glyph-name="k" unicode="k" horiz-adv-x="658" 
d="M84 970h96v-682l328 430h127l-278 -358l296 -360h-126l-234 283l-113 -147v-136h-96v970z" />
    <glyph glyph-name="l" unicode="l" horiz-adv-x="262" 
d="M84 970h96v-970h-96v970z" />
    <glyph glyph-name="m" unicode="m" horiz-adv-x="1230" 
d="M84 718l90.999 -0.00195312v-95c32.667 73.333 96.667 110 192 110c94.667 0 171.667 -36.667 231 -110c5.33301 -5.33301 11.333 -13.666 18 -24.999l16 25c21.333 33.333 54 60.333 98 81c40.667 19.333 83.334 29 128.001 29c75.333 0 149.333 -36.667 222 -110
c45.333 -46 68 -117.667 68 -215v-408h-97v401c0 70 -12 121.667 -36 155c-40 56 -94.333 84 -163 84c-44 0 -84 -14 -120 -42s-57 -63.333 -63 -106c-4 -24.667 -6 -55 -6 -91v-401h-97v412c0 60.667 -11.333 107.667 -34 141c-40 58 -93.333 87 -160 87
s-119 -25.667 -157 -77c-23.333 -31.333 -35 -81.666 -35 -150.999v-412h-96v718z" />
    <glyph glyph-name="n" unicode="n" horiz-adv-x="800" 
d="M84 718l90.999 -0.00292969v-105c56 80 130.333 120 223 120c105.333 0 190.333 -40 255 -120c43.333 -53.333 65 -131.666 65 -234.999v-378h-97v378c0 76.667 -13.667 133.334 -41 170.001c-45.333 61.333 -107.666 92 -186.999 92c-76 0 -133.667 -28 -173 -84
c-26.667 -37.333 -40 -96.666 -40 -177.999v-378h-96v718z" />
    <glyph glyph-name="o" unicode="o" horiz-adv-x="860" 
d="M805 365c0 -104 -36.1699 -193.833 -108.503 -269.5s-160.166 -113.5 -263.499 -113.5s-192.166 36.167 -266.499 108.5s-111.5 159.833 -111.5 262.5c0 106 36.5 195.833 109.5 269.5s162.5 110.5 268.5 110.5c100.667 0 187.834 -36.167 261.501 -108.5
s110.5 -158.833 110.5 -259.5zM151.997 353c0 -77.333 27.5 -142.833 82.5 -196.5s121.167 -80.5 198.5 -80.5c79.333 0 145.333 28.667 198 86c51.333 55.333 77 123 77 203c0 74.667 -27.167 139.167 -81.5 193.5s-118.833 81.5 -193.5 81.5
c-80 0 -146.833 -27.833 -200.5 -83.5s-80.5 -123.5 -80.5 -203.5z" />
    <glyph glyph-name="p" unicode="p" horiz-adv-x="893" 
d="M175 718l0.000976562 -122.999c26 44 67.667 78.667 125 104c51.333 22.667 105 34 161 34c54.667 0 106 -10.667 154 -32c43.333 -20 90 -55.333 140 -106c24 -24 43.667 -56.333 59 -97c16 -44.667 24 -91.667 24 -141c0 -106.667 -37.833 -195.834 -113.5 -267.501
s-166.834 -107.5 -273.501 -107.5c-56.667 0 -109 12.667 -157 38c-52.667 27.333 -90.667 65 -114 113v-385h-96v970h91zM742.001 357.001c0 78.667 -27.167 145.501 -81.5 200.501s-120.833 82.5 -199.5 82.5c-80 0 -148 -26 -204 -78s-84 -117.667 -84 -197
c0 -80.667 25.667 -147.334 77 -200.001c58 -59.333 125.667 -89 203 -89c81.333 0 149.833 26.667 205.5 80s83.5 120.333 83.5 201z" />
    <glyph glyph-name="q" unicode="q" horiz-adv-x="893" 
d="M813 -252l-97 0.000976562v385c-23.333 -47.333 -61.666 -85 -114.999 -113c-48.667 -25.333 -101.334 -38 -158.001 -38c-106.667 0 -198 36 -274 108s-114 161 -114 267c0 103.333 28.333 182.666 85 237.999c78 92 176.333 138 295 138c132 0 227.333 -46 286 -138
v123h92v-970zM705 254.001c10.667 32 15.999 69 15.999 111c0 80 -27.5 145.833 -82.5 197.5s-122.833 77.5 -203.5 77.5c-78.667 0 -145.5 -27.5 -200.5 -82.5s-82.5 -121.833 -82.5 -200.5c0 -80 27.833 -146.833 83.5 -200.5s123.834 -80.5 204.501 -80.5
c40 0 78 7.66699 114 23c76.667 33.333 127 85 151 155z" />
    <glyph glyph-name="r" unicode="r" horiz-adv-x="396" 
d="M84 718l91.001 -0.000976562v-105c34 80 103.333 120 208 120v-96c-46.667 0 -89.334 -16.333 -128.001 -49c-32 -26.667 -53 -54.667 -63 -84c-8 -23.333 -12 -57.666 -12 -102.999v-401h-96v718z" />
    <glyph glyph-name="s" unicode="s" horiz-adv-x="508" 
d="M120 212c0 -37.333 12.833 -69.335 38.5 -96.002s56.834 -40 93.501 -40c35.333 0 65.166 11.333 89.499 34s36.5 51.667 36.5 87c0 38.667 -14.333 69.667 -43 93c-18.667 15.333 -51 29.666 -97 42.999c-35.333 10.667 -64 21.334 -86 32.001
c-39.333 19.333 -68 50.333 -86 93c-10.667 24 -16 48.667 -16 74c0 58.667 19.833 106.834 59.5 144.501s88.834 56.5 147.501 56.5c54 0 100.667 -18.833 140 -56.5s59 -83.167 59 -136.5h-96c0 66.667 -37.667 100 -113 100c-28 0 -51.667 -9.66699 -71 -29
s-29 -43 -29 -71c0 -35.333 13 -62.666 39 -81.999c14.667 -10.667 43.667 -22.667 87 -36c63.333 -19.333 110.333 -42.333 141 -69c40.667 -35.333 61 -82.333 61 -141c0 -68 -21.833 -123.333 -65.5 -166s-99.834 -64 -168.501 -64c-60.667 0 -112.167 23 -154.5 69
s-63.5 99.667 -63.5 161h97z" />
    <glyph glyph-name="t" unicode="t" horiz-adv-x="445" 
d="M165 630h-150v88h150v252h97v-252h168v-88h-168v-630h-97v630z" />
    <glyph glyph-name="u" unicode="u" horiz-adv-x="797" 
d="M716 0h-93.001v113c-43.333 -87.333 -122.666 -131 -237.999 -131c-93.333 0 -177.333 43.667 -252 131c-32.667 38 -49 113 -49 225v380h96v-380c0 -70 10.667 -122.667 32 -158c41.333 -69.333 103.333 -104 186 -104c73.333 0 132.333 29.667 177 89
c28.667 38 43 95.667 43 173v380h98v-718z" />
    <glyph glyph-name="v" unicode="v" horiz-adv-x="726" 
d="M10 718h105l250 -595l246 595h105l-301 -718h-103z" />
    <glyph glyph-name="w" unicode="w" horiz-adv-x="1091" 
d="M10 718h103l225 -600l165 512h82l165 -512l228 600h102l-272 -718h-110l-155 477l-150 -477h-113z" />
    <glyph glyph-name="x" unicode="x" horiz-adv-x="630" 
d="M257 365l-247 353h115l190 -278l191 278h112l-246 -353l246 -365h-112l-191 288l-190 -288h-115z" />
    <glyph glyph-name="y" unicode="y" horiz-adv-x="703" 
d="M692 718l-414 -970h-103l113 275l-275 695h102l231 -571l242 571h104z" />
    <glyph glyph-name="z" unicode="z" horiz-adv-x="558" 
d="M13 87l388 543h-375v88h494v-88l-387 -540h412v-90h-532v87z" />
    <glyph glyph-name="braceleft" unicode="{" horiz-adv-x="461" 
d="M157 771c0 76 14.334 128.166 43.001 156.499s81 42.5 157 42.5c-70 -22 -105 -72.667 -105 -152v-233c0 -53.333 -6.66699 -92.333 -20 -117c-17.333 -32 -50.333 -54.333 -99 -67c46 -8.66699 78 -27 96 -55c15.333 -23.333 23 -60 23 -110v-251
c0 -80 35 -131 105 -153c-38 0 -64.667 1.33301 -80 4c-60.667 10.667 -97.334 40 -110.001 88c-6.66699 24 -10 52.667 -10 86v250c0 44 -9.66699 77.333 -29 100c-21.333 24.667 -47.333 38.334 -78 41.001c29.333 9.33301 52.333 21 69 35s27.667 30.667 33 50
c3.33301 12.667 5 34 5 64v221z" />
    <glyph glyph-name="bar" unicode="|" horiz-adv-x="881" 
d="M398 970h85v-970h-85v970z" />
    <glyph glyph-name="braceright" unicode="}" horiz-adv-x="461" 
d="M152 818c0 79.333 -34.001 130 -102.001 152c74.667 0 126.167 -14.5 154.5 -43.5s42.5 -80.833 42.5 -155.5v-221c0 -56.667 12.667 -95 38 -115c20 -15.333 42.667 -26.666 68 -33.999c-31.333 -2.66699 -57.333 -16.334 -78 -41.001c-18.667 -22 -28 -55.333 -28 -100
v-250c0 -70.667 -16.333 -118 -49 -142s-82 -36 -148 -36c68 22.667 102 73.667 102 153v251c0 49.333 7.33301 86 22 110c18 28 50 46.333 96 55c-47.333 12.667 -79.666 34.667 -96.999 66c-14 26 -21 65.333 -21 118v233z" />
    <glyph glyph-name="asciitilde" unicode="~" horiz-adv-x="795" 
d="M728 451c-52 -96 -113.667 -144.001 -185 -144.001c-22 0 -52.333 7.33301 -91 22l-87 36c-12 4.66699 -29.5 11 -52.5 19s-42.167 12 -57.5 12c-30 0 -57 -13 -81 -39c-10 -11.333 -28 -37.666 -54 -78.999l-52 62c54.667 103.333 117 155 187 155
c32.667 0 82.834 -15.333 150.501 -46s113.5 -46 137.5 -46c47.333 0 90.666 36.667 129.999 110z" />
    <glyph glyph-name="exclamdown" unicode="&#xa1;" horiz-adv-x="821" 
d="M631 0v530c0 68 -26 124 -78 168c-48.667 41.333 -107.667 62 -177 62c-117.333 0 -200.333 -46 -249 -138l96 -96v-526h-71v504l-105 106c60 144 169.667 216 329 216c94 0 171.333 -26.667 232 -80c63.333 -56 95 -130.333 95 -223v-523h-72z" />
    <glyph glyph-name="cent" unicode="&#xa2;" horiz-adv-x="804" 
d="M688 0l-402.002 -0.000976562v66h94v556c0 40 -11.667 72.167 -35 96.5s-54.666 36.5 -93.999 36.5c-51.333 0 -89.666 -19 -114.999 -57c10 2 22.667 3 38 3c34.667 0 63.167 -11.333 85.5 -34s33.5 -51.667 33.5 -87s-11 -63.833 -33 -85.5s-50.667 -32.5 -86 -32.5
c-41.333 0 -73.333 15 -96 45c-20.667 27.333 -31 62.333 -31 105c0 64.667 17.833 116.5 53.5 155.5s85.834 58.5 150.501 58.5c59.333 0 107.666 -19.167 144.999 -57.5s56 -87.166 56 -146.499v-556h162v752h74v-818zM173.998 635.999c-36 0 -54 -18.333 -54 -55
s18 -55 54 -55s54 18.333 54 55s-18 55 -54 55z" />
    <glyph glyph-name="sterling" unicode="&#xa3;" horiz-adv-x="799" 
d="M376 619l72.002 63.999c-6.66699 12 -12.667 21 -18 27c-17.333 20 -37 33.333 -59 40l-78 -52l-72 50c-20.667 -4.66699 -40 -16.334 -58 -35.001c-25.333 -26.667 -38 -47 -38 -61c19.333 8.66699 38.333 13 57 13c33.333 0 61 -11.5 83 -34.5s33 -51.167 33 -84.5
c0 -35.333 -9.66699 -64.333 -29 -87c-20 -24.667 -47.333 -37 -82 -37c-82.667 0 -129.334 44.667 -140.001 134c-0.666992 5.33301 -1 9.33301 -1 12v10c0 52.667 12 98.334 36 137.001c34 54 80.333 90 139 108l72 -54l83 54c30 -12 52 -22.333 66 -31
c47.333 -29.333 76.666 -66.666 87.999 -111.999l-82 -80v-534h162v750h70v-816h-400v66h96v553zM180.002 601.999c-38.667 0 -58 -19.667 -58 -59s19.333 -59 58 -59c39.333 0 59 19.667 59 59s-19.667 59 -59 59z" />
    <glyph glyph-name="currency" unicode="&#xa4;" horiz-adv-x="863" 
d="M326 533c24.667 65.333 64.3311 98.001 118.998 98.001c34.667 0 63.167 -11.167 85.5 -33.5s33.5 -50.833 33.5 -85.5c0 -35.333 -11.333 -63.833 -34 -85.5s-51.667 -32.5 -87 -32.5c-26.667 0 -47.667 5 -63 15c-4 2.66699 -9.33301 8 -16 16l-174 -425h-72v504
c0 98 29.833 175.667 89.5 233s138.834 86 237.501 86c91.333 0 165.333 -31 222 -93c54 -59.333 81 -135.333 81 -228v-502h-72v499c0 63.333 -18 119 -54 167c-43.333 57.333 -102.333 86 -177 86c-77.333 0 -139.166 -21.833 -185.499 -65.5
s-69.5 -103.834 -69.5 -180.501v-332zM444.997 572.001c-38.667 0 -58 -20 -58 -60s19.333 -60 58 -60c39.333 0 59 20 59 60s-19.667 60 -59 60z" />
    <glyph glyph-name="yen" unicode="&#xa5;" horiz-adv-x="882" 
d="M324 523c22.667 64 62.3311 96.002 118.998 96.002c35.333 0 64.166 -11.333 86.499 -34s33.5 -51.667 33.5 -87c0 -34.667 -11.167 -63 -33.5 -85s-51.166 -33 -86.499 -33c-25.333 0 -46.666 5.66699 -63.999 17c-6 4 -12 10 -18 18l-162 -415h-72v514
c0 77.333 18.333 143 55 197c38.667 58.667 94.334 96 167.001 112l111 -78l105 78c132.667 -38.667 199 -144.334 199 -317.001v-506h-70v504c0 139.333 -44.667 219.666 -134 240.999l-100 -77l-108 80c-102 -26 -153 -102.667 -153 -230v-349zM442.997 560.002
c-38.667 0 -58 -20 -58 -60s19.333 -60 58 -60c39.333 0 59 20 59 60s-19.667 60 -59 60z" />
    <glyph glyph-name="brokenbar" unicode="&#xa6;" horiz-adv-x="973" 
d="M448 214l336.002 -143.001v745h72v-816h-77l-331 143c2 -10 3 -20.333 3 -31c0 -81.333 -40.667 -122 -122 -122c-37.333 0 -67.833 12 -91.5 36s-35.5 54.667 -35.5 92s11.833 68 35.5 92s54.167 36 91.5 36c10 -0.666992 25.667 -3 47 -7v380l72 64
c-6.66699 12 -12.667 21 -18 27c-17.333 20 -37 33.333 -59 40l-78 -52l-72 50c-20.667 -4.66699 -40 -16.334 -58 -35.001c-25.333 -26.667 -38 -47 -38 -61c19.333 8.66699 38.333 13 57 13c33.333 0 61 -11.5 83 -34.5s33 -51.167 33 -84.5
c0 -35.333 -9.66699 -64.333 -29 -87c-20 -24.667 -47.333 -37 -82 -37c-82.667 0 -129.334 44.667 -140.001 134c-0.666992 5.33301 -1 9.33301 -1 12v10c0 52.667 12 98.334 36 137.001c34 54 80.333 90 139 108l72 -54l83 54c30 -12 52 -22.333 66 -31
c47.333 -29.333 76.666 -66.666 87.999 -111.999l-82 -80v-386zM329.002 51.999c31.333 0 47 14 47 42v73c-13.333 10 -29 15 -47 15c-41.333 0 -62 -21.667 -62 -65s20.667 -65 62 -65zM180.002 601.999c-38.667 0 -58 -19.667 -58 -59s19.333 -59 58 -59
c39.333 0 59 19.667 59 59s-19.667 59 -59 59z" />
    <glyph glyph-name="section" unicode="&#xa7;" horiz-adv-x="644" 
d="M455 598c-6 -10.667 -22.333 -16 -49 -16c-36 0 -65.667 11.833 -89 35.5s-35 53.5 -35 89.5s11.5 64.833 34.5 86.5s52.833 32.5 89.5 32.5c80 0 120 -40 120 -120v-706h-76l-403 448l63 36l345 -383v497zM406 764c-38.667 0 -58 -19.667 -58 -59
c0 -38.667 19.333 -58 58 -58c39.333 0 59 19.333 59 58c0 39.333 -19.667 59 -59 59z" />
    <glyph glyph-name="dieresis" unicode="&#xa8;" horiz-adv-x="786" 
d="M539 152l59.002 350.003c1.33301 9.33301 2 18.666 2 27.999c0 50.667 -22.667 101 -68 151c-43.333 47.333 -102 71 -176 71c-69.333 0 -126.333 -22.333 -171 -67s-67 -101.667 -67 -171v-16c1.33301 -8 2 -13.667 2 -17h-73l8 88c32.667 169.333 134 254 304 254
c98 0 176.667 -34.333 236 -103c50.667 -58.667 76 -123.334 76 -194.001c0 -9.33301 -1 -20 -3 -32l-81 -494h-85l-75 391c-6 -4.66699 -12 -8.33398 -18 -11.001c-18 -8 -35.667 -12 -53 -12c-34.667 0 -62.834 11 -84.501 33s-32.5 50.333 -32.5 85
c0 35.333 10.667 64.333 32 87s49.666 34 84.999 34c68 0 108 -33.667 120 -101zM356.002 546.003c-40.667 0 -61 -20 -61 -60c0 -39.333 20.333 -59 61 -59c41.333 0 62 19.667 62 59c0 40 -20.667 60 -62 60z" />
    <glyph glyph-name="copyright" unicode="&#xa9;" horiz-adv-x="809" 
d="M622 504c0 73.333 -24.002 133.5 -72.002 180.5s-108.667 70.5 -182 70.5c-135.333 0 -218 -65 -248 -195h-73c14.667 84 50.5 149.333 107.5 196s128.167 70 213.5 70c94.667 0 172.667 -30 234 -90s92 -137.333 92 -232v-272c57.333 -18 86 -56.333 86 -115
c0 -36 -11.667 -66.167 -35 -90.5s-53 -36.5 -89 -36.5c-78.667 0 -118 38 -118 114c0 9.33301 0.333008 16.333 1 21l-199 -125h-80v268c-9.33301 -5.33301 -25.666 -8 -48.999 -8c-36 0 -65.5 11.333 -88.5 34s-34.5 52 -34.5 88c0 36.667 11.333 66.167 34 88.5
s52.334 33.5 89.001 33.5c82.667 0 124 -41.333 124 -124v-314l287 168v270zM655.998 172c-38.667 0 -58 -20 -58 -60s19.333 -60 58 -60c39.333 0 59 20 59 60s-19.667 60 -59 60zM210.998 443c-39.333 0 -59 -20.333 -59 -61c0 -40 19.667 -60 59 -60s59 20 59 60
c0 40.667 -19.667 61 -59 61z" />
    <glyph glyph-name="ordfeminine" unicode="&#xaa;" horiz-adv-x="804" 
d="M722 902l49.998 -46.001l-153 -148c46 -30 69 -82.333 69 -157v-551h-402v66h94v556c0 40 -11.667 72.167 -35 96.5s-54.666 36.5 -93.999 36.5c-51.333 0 -89.666 -19 -114.999 -57c10 2 22.667 3 38 3c34.667 0 63.167 -11.333 85.5 -34s33.5 -51.667 33.5 -87
s-11 -63.833 -33 -85.5s-50.667 -32.5 -86 -32.5c-41.333 0 -73.333 15 -96 45c-20.667 27.333 -31 62.333 -31 105c0 64.667 17.833 116.5 53.5 155.5s85.834 58.5 150.501 58.5c59.333 0 107.666 -19.167 144.999 -57.5s56 -87.166 56 -146.499v-556h162v478
c0 82.667 -32 135.667 -96 159zM173.998 635.999c-36 0 -54 -18.333 -54 -55s18 -55 54 -55s54 18.333 54 55s-18 55 -54 55z" />
    <glyph glyph-name="guillemotleft" unicode="&#xab;" horiz-adv-x="814" 
d="M742 905l46 -49.002l-166 -148c49.333 -68 74 -138.333 74 -211v-497h-419v66h96v452c0 34.667 15.667 66.667 47 96l98 92c-12.667 8.66699 -23 15.334 -31 20.001c-25.333 14.667 -48.333 23.334 -69 26.001l-94 -58l-90 54c-24.667 -8 -46 -21.667 -64 -41
c-13.333 -14.667 -20 -25 -20 -31c4 0.666992 10 1 18 1c34 0 61.333 -11.167 82 -33.5s31 -50.5 31 -84.5c0 -34.667 -10.5 -62.667 -31.5 -84s-48.5 -32 -82.5 -32c-80 0 -120 43 -120 129c0 69.333 26 131 78 185c42.667 44 78.334 66 107.001 66l92 -59l91 59
c30 -3.33301 54 -8.33301 72 -15c29.333 -10.667 57.666 -27.667 84.999 -51zM476 574.998c-20.667 -14.667 -31 -37.667 -31 -69v-440h179v424c0 60 -18.667 116.333 -56 169zM167 621.998c-39.333 0 -59 -20 -59 -60s19.667 -60 59 -60s59 20 59 60s-19.667 60 -59 60z
" />
    <glyph glyph-name="logicalnot" unicode="&#xac;" horiz-adv-x="1180" 
d="M703 185l287 -114.001v747h72v-818h-72l-287 108c0 -33.333 -10 -61.333 -30 -84s-46.667 -34 -80 -34c-76.667 0 -115 36.667 -115 110c0 34 10.667 62.167 32 84.5s49 33.5 83 33.5c6 0 18.667 -2.33301 38 -7v333c0 66.667 -26.333 120.334 -79 161.001
c-48 36.667 -106.667 55 -176 55c-117.333 0 -200.333 -46 -249 -138l96 -96v-300c16.667 6.66699 34 10 52 10c37.333 0 67.5 -11.333 90.5 -34s34.5 -52.667 34.5 -90c0 -36.667 -11.667 -66.167 -35 -88.5s-53.333 -33.5 -90 -33.5c-36 0 -65.5 11.5 -88.5 34.5
s-34.5 52.5 -34.5 88.5v391l-105 106c60 144 169.667 216 329 216c94.667 0 171.667 -24.667 231 -74c64 -53.333 96 -126.333 96 -219v-348zM590 55.999c12 -1.33301 22.167 1.16699 30.5 7.5s11.833 15.5 10.5 27.5v52c-8 9.33301 -21.667 14 -41 14
c-32 0 -48 -17.333 -48 -52c0 -32.667 16 -49 48 -49zM275 171.999c-39.333 0 -59 -20 -59 -60s19.667 -60 59 -60s59 20 59 60s-19.667 60 -59 60z" />
    <glyph glyph-name="minus" unicode="&#xad;" horiz-adv-x="1123" 
d="M934 71l-0.000976562 745h72v-816h-480v71h49v482c0 60 -23.333 109.333 -70 148c-44 36 -96.667 54 -158 54c-104.667 0 -176.667 -39 -216 -117l83 -92v-320c18.667 6.66699 35.667 10 51 10c36.667 0 66.5 -11.333 89.5 -34s34.5 -52.334 34.5 -89.001
c0 -37.333 -11.333 -67.166 -34 -89.499s-52.667 -33.5 -90 -33.5c-36 0 -65.333 12.333 -88 37s-34 55 -34 91v412l-96 99c54 131.333 154.667 197 302 197c86.667 0 157.334 -24 212.001 -72c57.333 -50 86 -117.667 86 -203v-480h287zM862.999 -290
c-48.667 -24 -99.334 -36.001 -152.001 -36.001c-19.333 0 -40.666 1.33301 -63.999 4c-82.667 9.33301 -124 51.333 -124 126c0 36 11.667 65.833 35 89.5s53 35.5 89 35.5c81.333 0 122 -41 122 -123c0 -15.333 -4.33301 -34 -13 -56
c-1.33301 -3.33301 -3.33301 -7.66602 -6 -12.999c74.667 11.333 126.667 46.666 156 105.999c9.33301 18.667 17 47.334 23 86.001h74c-6 -37.333 -13 -65.666 -21 -84.999c-25.333 -62.667 -65 -107.334 -119 -134.001zM646.999 -136.001c-38.667 0 -58 -20 -58 -60
s19.333 -60 58 -60c39.333 0 59 20 59 60s-19.667 60 -59 60zM264.999 171.999c-40.667 0 -61 -20 -61 -60s20.333 -60 61 -60c41.333 0 62 20 62 60s-20.667 60 -62 60z" />
    <glyph glyph-name="minus" unicode="&#x2212;" horiz-adv-x="1123" 
d="M934 71l-0.000976562 745h72v-816h-480v71h49v482c0 60 -23.333 109.333 -70 148c-44 36 -96.667 54 -158 54c-104.667 0 -176.667 -39 -216 -117l83 -92v-320c18.667 6.66699 35.667 10 51 10c36.667 0 66.5 -11.333 89.5 -34s34.5 -52.334 34.5 -89.001
c0 -37.333 -11.333 -67.166 -34 -89.499s-52.667 -33.5 -90 -33.5c-36 0 -65.333 12.333 -88 37s-34 55 -34 91v412l-96 99c54 131.333 154.667 197 302 197c86.667 0 157.334 -24 212.001 -72c57.333 -50 86 -117.667 86 -203v-480h287zM862.999 -290
c-48.667 -24 -99.334 -36.001 -152.001 -36.001c-19.333 0 -40.666 1.33301 -63.999 4c-82.667 9.33301 -124 51.333 -124 126c0 36 11.667 65.833 35 89.5s53 35.5 89 35.5c81.333 0 122 -41 122 -123c0 -15.333 -4.33301 -34 -13 -56
c-1.33301 -3.33301 -3.33301 -7.66602 -6 -12.999c74.667 11.333 126.667 46.666 156 105.999c9.33301 18.667 17 47.334 23 86.001h74c-6 -37.333 -13 -65.666 -21 -84.999c-25.333 -62.667 -65 -107.334 -119 -134.001zM646.999 -136.001c-38.667 0 -58 -20 -58 -60
s19.333 -60 58 -60c39.333 0 59 20 59 60s-19.667 60 -59 60zM264.999 171.999c-40.667 0 -61 -20 -61 -60s20.333 -60 61 -60c41.333 0 62 20 62 60s-20.667 60 -62 60z" />
    <glyph glyph-name="registered" unicode="&#xae;" horiz-adv-x="887" 
d="M701 -260l0.00292969 790c-6.66699 68.667 -33.834 124.167 -81.501 166.5s-105.834 63.5 -174.501 63.5c-118.667 0 -201.334 -46 -248.001 -138l96 -96v-408c0 -38 -11.167 -68.833 -33.5 -92.5s-52.5 -35.5 -90.5 -35.5c-36.667 0 -66.5 11.167 -89.5 33.5
s-34.5 51.833 -34.5 88.5c0 36 11.5 65.667 34.5 89s52.833 35 89.5 35c23.333 0 39.666 -3.33301 48.999 -10v278l-105 106c60 144 170.667 216 332 216c93.333 0 170.666 -26.667 231.999 -80c63.333 -56 95 -130.333 95 -223v-791l-190 -189l-122 86l-59 -54
c-6.66699 -6 -14 -11.333 -22 -16c-18.667 -10.667 -37.667 -16 -57 -16c-36 0 -65.5 11.333 -88.5 34s-34.5 52 -34.5 88c0 36.667 11.333 66.5 34 89.5s52.334 34.5 89.001 34.5c18 0 34.667 -3.66699 50 -11c4.66699 -2 10.334 -6 17.001 -12l71 -61l91 86l42 -42
l-89 -84l68 -51zM169.003 52c40 0 60 20 60 60s-20 60 -60 60s-60 -20 -60 -60s20 -60 60 -60zM413.003 -335l-54 45c-1.33301 2 -2.33301 3.33301 -3 4c-8 7.33301 -19.333 11 -34 11c-38.667 0 -58 -20 -58 -60c0 -39.333 19.333 -59 58 -59c14 0 27 6 39 18z" />
    <glyph glyph-name="macron" unicode="&#xaf;" horiz-adv-x="887" 
d="M772 -317l-107.995 -140l-108 84l-96 -84l-104 86l-58 -54c-6.66699 -6 -14 -11.333 -22 -16c-18.667 -10.667 -38 -16 -58 -16c-81.333 0 -122 40.333 -122 121c0 36 11.333 65.833 34 89.5s52 35.5 88 35.5c18.667 0 36 -3.66699 52 -11
c6.66699 -2.66699 12.667 -6.66699 18 -12l68 -61l92 86l42 -42l-89 -84l59 -45l96 82l100 -78l45 64v842c-6.66699 68.667 -33.834 124.167 -81.501 166.5s-105.834 63.5 -174.501 63.5c-118.667 0 -201.334 -46 -248.001 -138l96 -96v-408
c0 -38 -11.167 -68.833 -33.5 -92.5s-52.5 -35.5 -90.5 -35.5c-36.667 0 -66.5 11.167 -89.5 33.5s-34.5 51.833 -34.5 88.5c0 36 11.5 65.667 34.5 89s52.833 35 89.5 35c23.333 0 39.666 -3.33301 48.999 -10v278l-105 106c60 144 170.667 216 332 216
c93.333 0 170.666 -26.667 231.999 -80c63.333 -56 95 -130.333 95 -223v-840zM310.005 -335l-52.001 45c-1.33301 2 -2.66602 3.33301 -3.99902 4c-9.33301 7.33301 -21.333 11 -36 11c-38.667 0 -58 -20 -58 -60c0 -39.333 19.333 -59 58 -59c14 0 26 4 36 12l6 6z
M169.004 52c40 0 60 20 60 60s-20 60 -60 60s-60 -20 -60 -60s20 -60 60 -60z" />
    <glyph glyph-name="macron" unicode="&#x2c9;" horiz-adv-x="887" 
d="M772 -317l-107.995 -140l-108 84l-96 -84l-104 86l-58 -54c-6.66699 -6 -14 -11.333 -22 -16c-18.667 -10.667 -38 -16 -58 -16c-81.333 0 -122 40.333 -122 121c0 36 11.333 65.833 34 89.5s52 35.5 88 35.5c18.667 0 36 -3.66699 52 -11
c6.66699 -2.66699 12.667 -6.66699 18 -12l68 -61l92 86l42 -42l-89 -84l59 -45l96 82l100 -78l45 64v842c-6.66699 68.667 -33.834 124.167 -81.501 166.5s-105.834 63.5 -174.501 63.5c-118.667 0 -201.334 -46 -248.001 -138l96 -96v-408
c0 -38 -11.167 -68.833 -33.5 -92.5s-52.5 -35.5 -90.5 -35.5c-36.667 0 -66.5 11.167 -89.5 33.5s-34.5 51.833 -34.5 88.5c0 36 11.5 65.667 34.5 89s52.833 35 89.5 35c23.333 0 39.666 -3.33301 48.999 -10v278l-105 106c60 144 170.667 216 332 216
c93.333 0 170.666 -26.667 231.999 -80c63.333 -56 95 -130.333 95 -223v-840zM310.005 -335l-52.001 45c-1.33301 2 -2.66602 3.33301 -3.99902 4c-9.33301 7.33301 -21.333 11 -36 11c-38.667 0 -58 -20 -58 -60c0 -39.333 19.333 -59 58 -59c14 0 26 4 36 12l6 6z
M169.004 52c40 0 60 20 60 60s-20 60 -60 60s-60 -20 -60 -60s20 -60 60 -60z" />
    <glyph glyph-name="degree" unicode="&#xb0;" horiz-adv-x="706" 
d="M54 502c0 92.667 28.1641 169.668 84.4971 231.001s130.166 92 221.499 92c76.667 0 141.334 -23.167 194.001 -69.5s84.334 -107.5 95.001 -183.5h-74c-5.33301 40 -22.666 76.667 -51.999 110c-41.333 46.667 -97.666 70 -168.999 70
c-54.667 0 -103.5 -16.667 -146.5 -50s-68.5 -76.666 -76.5 -129.999h279c33.333 0 62 -8.33301 86 -25c26 -18.667 39 -44.334 39 -77.001c0 -4 -0.666992 -10 -2 -18l-73 -452h-71l-82 218c-9.33301 -6 -16.333 -10.333 -21 -13c-18 -8.66699 -36 -13 -54 -13
c-35.333 0 -64.333 10.833 -87 32.5s-34 50.167 -34 85.5s11.333 64.166 34 86.499s51.667 33.5 87 33.5c30.667 0 56 -10.333 76 -31s34.667 -45.667 44 -75l58 -184l52 303c6.66699 39.333 -13 59 -59 59h-349zM532.997 -189.999l-0.000976562 -164l-103 -110l-66 46
l-54 -46l-89 73l-45 -43c-4 -4 -9.66699 -9 -17 -15c-14.667 -10 -31.667 -15 -51 -15c-32 0 -57.833 10.333 -77.5 31s-29.5 47 -29.5 79s9.83301 58.333 29.5 79s45.5 31 77.5 31c16.667 0 31.334 -3 44.001 -9c4 -2 9 -5.33301 15 -10l51 -49l38 35l42 -40l-38 -37
l50 -40l54 47l58 -47l45 47v52c-2 -1.33301 -3.66699 -2 -5 -2c-10 -3.33301 -22.333 -5 -37 -5c-32 0 -58.167 10.333 -78.5 31s-30.5 47 -30.5 79c0 32.667 10 59.167 30 79.5s46.333 30.5 79 30.5c72 0 108 -36 108 -108zM184.996 -351.999l-42 38.001
c-7.33301 9.33301 -19 14 -35 14c-35.333 0 -53 -18 -53 -54s17.667 -54 53 -54c10.667 0 19.667 2.33301 27 7c2 1.33301 4.66699 3.66602 8 6.99902zM424.996 -137.998c-36 0 -54 -18 -54 -54s18 -54 54 -54s54 18 54 54s-18 54 -54 54zM231.996 368.002
c-38.667 0 -58 -19.667 -58 -59c0 -38.667 19.333 -58 58 -58c39.333 0 59 19.333 59 58c0 39.333 -19.667 59 -59 59z" />
    <glyph glyph-name="plusminus" unicode="&#xb1;" horiz-adv-x="1044" 
d="M376 619l72.001 63.999c-6.66699 12 -12.667 21 -18 27c-17.333 20 -37 33.333 -59 40l-78 -52l-72 50c-20.667 -4.66699 -40 -16.334 -58 -35.001c-25.333 -26.667 -38 -47 -38 -61c19.333 8.66699 38.333 13 57 13c33.333 0 61 -11.5 83 -34.5s33 -51.167 33 -84.5
c0 -35.333 -9.66699 -64.333 -29 -87c-20 -24.667 -47.333 -37 -82 -37c-82.667 0 -129.334 44.667 -140.001 134c-0.666992 5.33301 -1 9.33301 -1 12v10c0 52.667 12 98.334 36 137.001c34 54 80.333 90 139 108l72 -54l83 54c30 -12 52 -22.333 66 -31
c47.333 -29.333 76.666 -66.666 87.999 -111.999l-82 -80v-413l166 514c26.667 83.333 79.334 125 158.001 125c47.333 0 84.833 -14.5 112.5 -43.5s41.5 -67.167 41.5 -114.5v-668h-70v668c0 59.333 -29 89 -87 89c-42.667 0 -70.667 -19.667 -84 -59l-233 -698h-76v619z
M180.001 601.999c-38.667 0 -58 -19.667 -58 -59s19.333 -59 58 -59c39.333 0 59 19.667 59 59s-19.667 59 -59 59z" />
    <glyph glyph-name="twosuperior" unicode="&#xb2;" horiz-adv-x="1219" 
d="M420 394c-72.667 0 -109.001 37.666 -109.001 112.999c0 35.333 11 64.833 33 88.5s50.667 35.5 86 35.5c36.667 0 66.834 -12 90.501 -36s35.5 -54.333 35.5 -91c0 -24.667 -7 -46 -21 -64l-338 -440h-79v526c0 156.667 67 256.667 201 300l113 -69l116 69
c129.333 -39.333 194 -139.333 194 -300v-324l288 -131v745h72v-816h-77l-283 131c1.33301 -9.33301 2 -18.666 2 -27.999c0 -75.333 -39.333 -113 -118 -113c-36.667 0 -66.334 11.5 -89.001 34.5s-34 52.833 -34 89.5s11.333 66.167 34 88.5s52.334 33.5 89.001 33.5
c10 -0.666992 25 -3.33398 45 -8.00098v298c0 110 -44 185.333 -132 226l-107 -72l-110 72c-88 -49.333 -132 -124.666 -132 -225.999v-430zM625.999 51.999c30 0 45 14 45 42v63c-12 10 -27 15 -45 15c-39.333 0 -59 -20.333 -59 -61c0 -39.333 19.667 -59 59 -59z
M429.999 571.999c-40.667 0 -61 -20 -61 -60s20.333 -60 61 -60s61 20 61 60s-20.333 60 -61 60z" />
    <glyph glyph-name="threesuperior" unicode="&#xb3;" horiz-adv-x="1123" 
d="M265 236c36.667 0 66.498 -11.334 89.498 -34.001s34.5 -52.334 34.5 -89.001c0 -37.333 -11.333 -67.166 -34 -89.499s-52.667 -33.5 -90 -33.5c-36 0 -65.333 12.333 -88 37s-34 55 -34 91v412l-96 99c54 131.333 154.667 197 302 197
c86.667 0 157.334 -24 212.001 -72c57.333 -50 86 -117.667 86 -203v-475l287 160v580h72v-584c58 -14 87 -54.333 87 -121c0 -80.667 -40.667 -121 -122 -121c-35.333 0 -65.166 11.833 -89.499 35.5s-34.5 52.834 -30.5 87.501l-204 -113h-72v553
c0 60 -23.333 109.333 -70 148c-44 36 -96.667 54 -158 54c-104.667 0 -176.667 -39 -216 -117l83 -92v-320c18.667 6.66699 35.667 10 51 10zM264.998 171.999c-40.667 0 -61 -20 -61 -60s20.333 -60 61 -60c41.333 0 62 20 62 60s-20.667 60 -62 60zM970.998 171.999
c-38.667 0 -58 -20 -58 -60s19.333 -60 58 -60c39.333 0 59 20 59 60s-19.667 60 -59 60z" />
    <glyph glyph-name="acute" unicode="&#xb4;" horiz-adv-x="858" 
d="M190 506v-412l220 302c-70 0 -105 38.333 -105 115c0 36 10.5 65.5 31.5 88.5s49.5 34.5 85.5 34.5c37.333 0 68 -11.5 92 -34.5s36 -53.167 36 -90.5c0 -28 -7.33301 -51.667 -22 -71l-329 -438h-81v506c0 91.333 27.667 167 83 227s128.333 90 219 90
c101.333 0 180.333 -29.333 237 -88s85 -139 85 -241v-494h-74v494c0 172 -83.333 258 -250 258c-69.333 0 -125.333 -24 -168 -72c-40 -45.333 -60 -103.333 -60 -174zM427 572c-39.333 0 -59 -20 -59 -60s19.667 -60 59 -60s59 20 59 60s-19.667 60 -59 60z" />
    <glyph glyph-name="mu1" unicode="&#xb5;" horiz-adv-x="872" 
d="M190 506v-408.003l232 293c-66.667 0 -100 38 -100 114c0 36 10.667 65.667 32 89s50 35 86 35c37.333 0 68.166 -12 92.499 -36s36.5 -54.333 36.5 -91c0 -27.333 -7.66699 -50.666 -23 -69.999l-347 -432h-81v506c0 88.667 10 153.334 30 194.001
c29.333 59.333 86.333 101.333 171 126l129 -81l129 81c80.667 -24 133 -65.667 157 -125c15.333 -38 23 -103 23 -195v-506h-72v552c0 52.667 -5.33301 90.334 -16 113.001c-16 34.667 -49.667 63 -101 85l-120 -82l-126 82c-59.333 -25.333 -97.666 -59.333 -114.999 -102
c-11.333 -28 -17 -75.333 -17 -142zM443 567.997c-38.667 0 -58 -20 -58 -60s19.333 -60 58 -60c39.333 0 59 20 59 60s-19.667 60 -59 60z" />
    <glyph glyph-name="mu1" unicode="&#x3bc;" horiz-adv-x="872" 
d="M190 506v-408.003l232 293c-66.667 0 -100 38 -100 114c0 36 10.667 65.667 32 89s50 35 86 35c37.333 0 68.166 -12 92.499 -36s36.5 -54.333 36.5 -91c0 -27.333 -7.66699 -50.666 -23 -69.999l-347 -432h-81v506c0 88.667 10 153.334 30 194.001
c29.333 59.333 86.333 101.333 171 126l129 -81l129 81c80.667 -24 133 -65.667 157 -125c15.333 -38 23 -103 23 -195v-506h-72v552c0 52.667 -5.33301 90.334 -16 113.001c-16 34.667 -49.667 63 -101 85l-120 -82l-126 82c-59.333 -25.333 -97.666 -59.333 -114.999 -102
c-11.333 -28 -17 -75.333 -17 -142zM443 567.997c-38.667 0 -58 -20 -58 -60s19.333 -60 58 -60c39.333 0 59 20 59 60s-19.667 60 -59 60z" />
    <glyph glyph-name="paragraph" unicode="&#xb6;" horiz-adv-x="821" 
d="M223 226c17.333 6.66699 34.667 9.99805 52 9.99805c36 0 65.5 -11.5 88.5 -34.5s34.5 -52.5 34.5 -88.5s-11.333 -65.5 -34 -88.5s-52.334 -34.5 -89.001 -34.5s-66.334 11.333 -89.001 34s-34 52.334 -34 89.001v391l-105 106c60 144 169.667 216 329 216
c94.667 0 172.334 -27.333 233.001 -82c62.667 -57.333 94 -132.666 94 -225.999v-518h-72v526c0 68 -25.667 124.667 -77 170c-49.333 42.667 -108.666 64 -177.999 64c-117.333 0 -200.333 -46 -249 -138l96 -96v-300zM275.001 171.998c-39.333 0 -59 -20 -59 -60
s19.667 -60 59 -60s59 20 59 60s-19.667 60 -59 60z" />
    <glyph glyph-name="periodcentered" unicode="&#xb7;" horiz-adv-x="884" 
d="M295 0h-77v593c-10.667 -7.33301 -27.667 -11 -51 -11c-36.667 0 -66.5 11.333 -89.5 34s-34.5 52 -34.5 88s11.667 65.333 35 88s53 34 89 34c82 0 123 -40 123 -120v-519l167 514c27.333 83.333 79 125 155 125c48 0 86.167 -14.333 114.5 -43s42.5 -67 42.5 -115v-668
h-71v668c0 59.333 -28.667 89 -86 89c-42.667 0 -70.667 -19.667 -84 -59zM167 764c-39.333 0 -59 -20 -59 -60s19.667 -60 59 -60s59 20 59 60s-19.667 60 -59 60z" />
    <glyph glyph-name="periodcentered" unicode="&#x2219;" horiz-adv-x="884" 
d="M295 0h-77v593c-10.667 -7.33301 -27.667 -11 -51 -11c-36.667 0 -66.5 11.333 -89.5 34s-34.5 52 -34.5 88s11.667 65.333 35 88s53 34 89 34c82 0 123 -40 123 -120v-519l167 514c27.333 83.333 79 125 155 125c48 0 86.167 -14.333 114.5 -43s42.5 -67 42.5 -115v-668
h-71v668c0 59.333 -28.667 89 -86 89c-42.667 0 -70.667 -19.667 -84 -59zM167 764c-39.333 0 -59 -20 -59 -60s19.667 -60 59 -60s59 20 59 60s-19.667 60 -59 60z" />
    <glyph glyph-name="cedilla" unicode="&#xb8;" horiz-adv-x="725" 
d="M556 0l-438.001 -0.000976562v66h74v408h-133c0 101.333 26.667 184.333 80 249c57.333 69.333 135.333 104 234 104c75.333 0 140.333 -21.667 195 -65c56 -45.333 89.333 -104.666 100 -177.999h-70c-27.333 115.333 -104 173 -230 173
c-75.333 0 -134.666 -25 -177.999 -75c-34 -39.333 -53.667 -86.333 -59 -141h425v-541zM483.999 473.999h-221v-408h221v408z" />
    <glyph glyph-name="onesuperior" unicode="&#xb9;" horiz-adv-x="880" 
d="M595 148l-300.001 -147.999h-77v593c-10.667 -7.33301 -27.667 -11 -51 -11c-36.667 0 -66.5 11.333 -89.5 34s-34.5 52 -34.5 88s11.667 65.333 35 88s53 34 89 34c82 0 123 -40 123 -120v-640l386 182v568h72v-570c60.667 -18 91 -60 91 -126
c0 -37.333 -11.667 -68.333 -35 -93s-53.666 -37 -90.999 -37s-66.833 11.667 -88.5 35s-32.5 53.666 -32.5 90.999c0 10 1 20.667 3 32zM712.999 182.001c-42.667 0 -64 -21.667 -64 -65s21.333 -65 64 -65c43.333 0 65 21.667 65 65s-21.667 65 -65 65zM166.999 764.001
c-39.333 0 -59 -20 -59 -60s19.667 -60 59 -60s59 20 59 60s-19.667 60 -59 60z" />
    <glyph glyph-name="ordmasculine" unicode="&#xba;" horiz-adv-x="884" 
d="M122 0v68h96v525c-10.667 -7.33301 -27.667 -11 -51 -11c-36.667 0 -66.5 11.333 -89.5 34s-34.5 52 -34.5 88s11.667 65.333 35 88s53 34 89 34c82 0 123 -40 123 -120v-640h408v750h71v-816h-647zM167 764c-39.333 0 -59 -20 -59 -60s19.667 -60 59 -60s59 20 59 60
s-19.667 60 -59 60z" />
    <glyph glyph-name="guillemotright" unicode="&#xbb;" horiz-adv-x="884" 
d="M122 0v68h96v525c-10.667 -7.33301 -27.667 -11 -51 -11c-36.667 0 -66.5 11.333 -89.5 34s-34.5 52 -34.5 88s11.667 65.333 35 88s53 34 89 34c82 0 123 -40 123 -120v-640h408v1195h71v-1261h-647zM167 764c-39.333 0 -59 -20 -59 -60s19.667 -60 59 -60s59 20 59 60
s-19.667 60 -59 60z" />
    <glyph glyph-name="onequarter" unicode="&#xbc;" horiz-adv-x="838" 
d="M194 0l-76.001 -0.000976562v706c0 36.667 11.333 65.834 34 87.501s52.334 32.5 89.001 32.5c36 0 65.5 -11 88.5 -33s34.5 -51 34.5 -87s-11.5 -65.667 -34.5 -89s-52.5 -35 -88.5 -35c-18 0 -32 2.66699 -42 8c-2.66699 1.33301 -5.66699 4 -9 8v-502l230 265
l232 -265v720h70v-816h-75l-227 265zM240.999 643.999c40.667 0 61 20 61 60s-20.333 60 -61 60s-61 -20 -61 -60s20.333 -60 61 -60z" />
    <glyph glyph-name="onehalf" unicode="&#xbd;" horiz-adv-x="838" 
d="M194 0l-76.001 -0.000976562v706c0 36.667 11.333 65.834 34 87.501s52.334 32.5 89.001 32.5c36 0 65.5 -11 88.5 -33s34.5 -51 34.5 -87s-11.5 -65.667 -34.5 -89s-52.5 -35 -88.5 -35c-18 0 -32 2.66699 -42 8c-2.66699 1.33301 -5.66699 4 -9 8v-502l230 265
l232 -265v1165h70v-1261h-75l-227 265zM240.999 643.999c40.667 0 61 20 61 60s-20.333 60 -61 60s-61 -20 -61 -60s20.333 -60 61 -60z" />
    <glyph glyph-name="threequarters" unicode="&#xbe;" horiz-adv-x="938" 
d="M745 0l-227 715l-223 -715h-77v593c-10.667 -7.33301 -27.667 -11 -51 -11c-36.667 0 -66.5 11.333 -89.5 34s-34.5 52 -34.5 88s11.667 65.333 35 88s53 34 89 34c82 0 123 -40 123 -120v-519l202 631h56l202 -631v629h71v-816h-76zM167 764c-39.333 0 -59 -20 -59 -60
s19.667 -60 59 -60s59 20 59 60s-19.667 60 -59 60z" />
    <glyph glyph-name="questiondown" unicode="&#xbf;" horiz-adv-x="938" 
d="M745 0l-227 715l-223 -715h-77v593c-10.667 -7.33301 -27.667 -11 -51 -11c-36.667 0 -66.5 11.333 -89.5 34s-34.5 52 -34.5 88s11.667 65.333 35 88s53 34 89 34c82 0 123 -40 123 -120v-519l202 631h56l202 -631v1074h71v-1261h-76zM167 764
c-39.333 0 -59 -20 -59 -60s19.667 -60 59 -60s59 20 59 60s-19.667 60 -59 60z" />
    <glyph glyph-name="Agrave" unicode="&#xc0;" horiz-adv-x="887" 
d="M293 118c0 -38 -11.168 -68.834 -33.501 -92.501s-52.5 -35.5 -90.5 -35.5c-36 0 -65.5 11.5 -88.5 34.5s-34.5 52.5 -34.5 88.5s11.333 65.5 34 88.5s52.334 34.5 89.001 34.5c22.667 0 39 -3.33301 49 -10v278l-105 106c60 144 170.667 216 332 216
c94 0 171.333 -27.667 232 -83c63.333 -57.333 95 -132.333 95 -225v-518h-71v526c-6.66699 68.667 -33.667 124.834 -81 168.501s-105.666 65.5 -174.999 65.5c-118.667 0 -201.334 -46 -248.001 -138l96 -96v-408zM168.999 51.999c40 0 60 20 60 60s-20 60 -60 60
s-60 -20 -60 -60s20 -60 60 -60z" />
    <glyph glyph-name="Aacute" unicode="&#xc1;" horiz-adv-x="870" 
d="M310 218l369.997 -147.002v745h75v-816h-79l-366 148c2 -10 3 -20.333 3 -31c0 -37.333 -11 -67.833 -33 -91.5s-51.333 -35.5 -88 -35.5c-39.333 0 -71.166 12.333 -95.499 37s-36.5 56.334 -36.5 95.001s12.333 69.834 37 93.501s56.334 35.5 95.001 35.5
c18 0 33.667 -2.33301 47 -7v349c-11.333 -7.33301 -28.666 -11 -51.999 -11c-35.333 0 -64.5 11.5 -87.5 34.5s-34.5 52.167 -34.5 87.5c0 36 11.167 65.333 33.5 88s51.833 34 88.5 34c82 0 123 -40 123 -120v-488zM191.997 51.998c31.333 0 47 14 47 42v73
c-14 10 -29.667 15 -47 15c-44 0 -66 -22.333 -66 -67c0 -42 22 -63 66 -63zM186.997 763.998c-40.667 0 -61 -20 -61 -60s20.333 -60 61 -60s61 20 61 60s-20.333 60 -61 60z" />
    <glyph glyph-name="Acircumflex" unicode="&#xc2;" horiz-adv-x="786" 
d="M190 268l-0.000976562 -202h408v750h70v-816h-550v268c0 53.333 9.66699 94.333 29 123c6.66699 9.33301 16.334 18.333 29.001 27c-73.333 24 -110 92 -110 204c0 59.333 22 108.666 66 147.999c42.667 37.333 94 56 154 56c36.667 0 66.167 -11 88.5 -33
s33.5 -51 33.5 -87s-11.333 -65.667 -34 -89s-52 -35 -88 -35c-48.667 0 -84 18.667 -106 56c-6.66699 11.333 -12.667 30 -18 56c-11.333 -20.667 -18.666 -42 -21.999 -64c-1.33301 -8 -2 -17.333 -2 -28c-0.666992 -41.333 12.833 -75 40.5 -101s62.5 -39 104.5 -39h115
v-71h-140c-10 0 -19.667 -3.66699 -29 -11c-2.66699 -2 -6.33398 -6 -11.001 -12c-18.667 -17.333 -28 -50.666 -28 -99.999zM285.999 764c-38.667 0 -58 -20 -58 -60s19.333 -60 58 -60c39.333 0 59 20 59 60s-19.667 60 -59 60z" />
    <glyph glyph-name="Atilde" unicode="&#xc3;" horiz-adv-x="652" 
d="M356 504l-308.999 0.00292969c0 92 24.667 168 74 228c52.667 64 124 96 214 96c74.667 0 136.667 -23.667 186 -71s74 -108 74 -182h-72c0 51.333 -20.667 94.666 -62 129.999c-38.667 33.333 -84.334 50 -137.001 50c-55.333 0 -101.833 -16.333 -139.5 -49
s-59.167 -76.334 -64.5 -131.001h310v-462c0 -34.667 -11.833 -63.834 -35.5 -87.501s-52.834 -35.5 -87.501 -35.5c-36 0 -65.5 11.5 -88.5 34.5s-34.5 52.5 -34.5 88.5s11.333 65.5 34 88.5s52.334 34.5 89.001 34.5c24 0 40.333 -5 49 -15v283zM307.001 172.003
c-39.333 0 -59 -20 -59 -60s19.667 -60 59 -60s59 20 59 60s-19.667 60 -59 60z" />
    <glyph glyph-name="Adieresis" unicode="&#xc4;" horiz-adv-x="821" 
d="M223 226c17.333 6.66699 34.6689 9.99902 52.002 9.99902c36 0 65.5 -11.5 88.5 -34.5s34.5 -52.5 34.5 -88.5s-11.333 -65.5 -34 -88.5s-52.334 -34.5 -89.001 -34.5s-66.334 11.333 -89.001 34s-34 52.334 -34 89.001v391l-105 106c60 144 169.667 216 329 216
c94 0 171.333 -26.667 232 -80c63.333 -56 95 -130.333 95 -223v-980h-72v987c0 68 -26 124 -78 168c-48.667 41.333 -107.667 62 -177 62c-117.333 0 -200.333 -46 -249 -138l96 -96v-300zM275.003 171.999c-39.333 0 -59 -20 -59 -60s19.667 -60 59 -60s59 20 59 60
s-19.667 60 -59 60z" />
    <glyph glyph-name="Aring" unicode="&#xc5;" horiz-adv-x="811" 
d="M376 755c-74.667 0 -135.668 -23.168 -183.001 -69.501s-71 -106.833 -71 -181.5h-70c0 94.667 30.333 172 91 232s138.334 90 233.001 90c86.667 0 161 -28 223 -84c63.333 -58 95 -130 95 -216v-526h-72v211c0 164 -80.667 246 -242 246
c-44 0 -84.667 -15.667 -122 -47s-56 -68.666 -56 -111.999v-72c4.66699 2.66699 8.66699 4.33398 12 5.00098c11.333 3.33301 24.333 5 39 5c36 0 65.5 -11.333 88.5 -34s34.5 -52 34.5 -88s-11.5 -65.667 -34.5 -89s-52.5 -35 -88.5 -35c-81.333 0 -122 41 -122 123v175
c0 70 24 127.167 72 171.5s107 66.5 177 66.5c80.667 0 144.667 -17.333 192 -52c12 -8.66699 28.667 -27.334 50 -56.001v108c0 65.333 -25 120.333 -75 165c-47.333 42.667 -104.333 64 -171 64zM252.999 171.999c-40.667 0 -61 -20 -61 -60s20.333 -60 61 -60
c41.333 0 62 20 62 60s-20.667 60 -62 60z" />
    <glyph glyph-name="AE" unicode="&#xc6;" horiz-adv-x="887" 
d="M293 118c0 -38 -11.1641 -68.833 -33.4971 -92.5s-52.5 -35.5 -90.5 -35.5c-36 0 -65.5 11.5 -88.5 34.5s-34.5 52.5 -34.5 88.5s11.333 65.5 34 88.5s52.334 34.5 89.001 34.5c22.667 0 39 -3.33301 49 -10v278l-105 106c60 144 170.667 216 332 216
c93.333 0 170.666 -26.667 231.999 -80c63.333 -56 95 -130.333 95 -223v-980h-71v987c-6.66699 68.667 -33.834 124.167 -81.501 166.5s-105.834 63.5 -174.501 63.5c-118.667 0 -201.334 -46 -248.001 -138l96 -96v-408zM169.003 52c40 0 60 20 60 60s-20 60 -60 60
s-60 -20 -60 -60s20 -60 60 -60z" />
    <glyph glyph-name="Ccedilla" unicode="&#xc7;" horiz-adv-x="694" 
d="M452 -10c-36 0 -65.335 11.668 -88.002 35.001s-34 53 -34 89c0 36.667 11.167 66.167 33.5 88.5s51.833 33.5 88.5 33.5c16.667 0 30.334 -2.33301 41.001 -7c3.33301 -1.33301 7 -4 11 -8v342c0 55.333 -18.167 101.166 -54.5 137.499s-82.166 54.5 -137.499 54.5
c-58 0 -104.833 -18 -140.5 -54s-53.5 -83 -53.5 -141h-71c0 78 24.667 141.833 74 191.5s113 74.5 191 74.5c78.667 0 142.167 -24.167 190.5 -72.5s72.5 -111.833 72.5 -190.5v-450c0 -36 -11.5 -65.5 -34.5 -88.5s-52.5 -34.5 -88.5 -34.5zM451.998 172.001
c-38.667 0 -58 -20 -58 -60s19.333 -60 58 -60c39.333 0 59 20 59 60s-19.667 60 -59 60z" />
    <glyph glyph-name="Egrave" unicode="&#xc8;" horiz-adv-x="870" 
d="M127 504c0 92 28.833 168.169 86.5 228.502s132.5 90.5 224.5 90.5c70.667 0 129.667 -14 177 -42c14.667 -8.66699 31.667 -22.667 51 -42c21.333 27.333 35.333 60.666 42 99.999c2 10.667 3.66699 28.334 5 53.001h71c-0.666992 -20 -1.66699 -34 -3 -42
c-9.33301 -64.667 -33 -118.667 -71 -162c10 -16 17.333 -30.333 22 -43c15.333 -40.667 23 -87 23 -139v-506h-75v504c0 37.333 -4 69.666 -12 96.999c-2.66699 8 -6.66699 18 -12 30c-18 -18.667 -43.667 -34.334 -77 -47.001c-8 -3.33301 -23.333 -8 -46 -14
c15.333 -10.667 23 -33.667 23 -69c0 -80.667 -40.667 -121 -122 -121c-25.333 0 -46.333 5.66699 -63 17c-6 4 -11.667 10 -17 18l-143 -415h-84v504zM434 560.002c-40.667 0 -61 -20 -61 -60s20.333 -60 61 -60c41.333 0 62 20 62 60s-20.667 60 -62 60zM317 523.002
c20.667 64 59.668 96 117.001 96c51.333 0 97 10 137 30c13.333 6.66699 28.666 17 45.999 31c-16.667 16.667 -31 28.667 -43 36c-39.333 24 -86 36 -140 36c-70 0 -126.667 -23.667 -170 -71s-65 -106.333 -65 -177v-349z" />
    <glyph glyph-name="Eacute" unicode="&#xc9;" horiz-adv-x="898" 
d="M698 816l70.999 0.000976562v-408c35.333 22 64.333 51 87 87c6.66699 11.333 14.667 27.666 24 48.999l56 -40c-14.667 -26.667 -28 -48 -40 -64c-36.667 -47.333 -79 -82.333 -127 -105v-335h-647v68h96v525c-10.667 -7.33301 -27.667 -11 -51 -11
c-36.667 0 -66.5 11.333 -89.5 34s-34.5 52 -34.5 88s11.667 65.333 35 88s53 34 89 34c82 0 123 -40 123 -120v-640h408v241c-36 -8.66699 -74 -13 -114 -13c-27.333 0 -54.666 2.66699 -81.999 8c-82.667 16 -124 59 -124 129c0 35.333 11.833 64.5 35.5 87.5
s53.167 34.5 88.5 34.5c32.667 0 61.167 -10 85.5 -30s36.5 -46 36.5 -78c0 -26 -3 -48 -9 -66c-2 -6 -5.33301 -12.667 -10 -20c31.333 0 62.333 5.66699 93 17v440zM501.999 490.001c-40 0 -60 -20.333 -60 -61s20 -61 60 -61s60 20.333 60 61s-20 61 -60 61z
M166.999 764.001c-39.333 0 -59 -20 -59 -60s19.667 -60 59 -60s59 20 59 60s-19.667 60 -59 60z" />
    <glyph glyph-name="Ecircumflex" unicode="&#xca;" horiz-adv-x="811" 
d="M694 526l-0.000976562 -525.997h-72v202c0 79.333 -20.667 142.166 -62 188.499s-101.333 69.5 -180 69.5c-44.667 0 -85 -15.667 -121 -47c-38 -32.667 -57 -71 -57 -115v-72c4.66699 2.66699 8.66699 4.33398 12 5.00098c11.333 3.33301 24.333 5 39 5
c36 0 65.5 -11.333 88.5 -34s34.5 -52 34.5 -88s-11.5 -65.667 -34.5 -89s-52.5 -35 -88.5 -35c-81.333 0 -122 41 -122 123v175c0 63.333 22 117.333 66 162c38.667 39.333 84.667 63.666 138 72.999c36 6.66699 74.667 28.667 116 66c36 33.333 62.333 72.333 79 117
c-15.333 10.667 -28.666 18.667 -39.999 24c-36 16.667 -74 25 -114 25c-77.333 0 -139 -22.5 -185 -67.5s-69 -106.167 -69 -183.5h-70c0 96 30 173.667 90 233s138 89 234 89c47.333 0 91 -7.33301 131 -22c14 -5.33301 29.333 -13 46 -23c5.33301 22.667 8 45 8 67
c0 11.333 -1.66699 26.666 -5 45.999h70c2 -14 3 -29.667 3 -47c0 -38 -5 -77 -15 -117c18 -18.667 31.333 -35.334 40 -50.001c26.667 -44.667 40 -96 40 -154zM621.999 410.003l-0.000976562 116c0 33.333 -6.33301 64.333 -19 93c-4 10 -10.333 21 -19 33
c-17.333 -39.333 -40.666 -73.666 -69.999 -102.999c-8 -7.33301 -21.333 -18.333 -40 -33c47.333 -10 86.333 -30.667 117 -62c10.667 -10.667 21 -25.334 31 -44.001zM252.998 172.003c-40.667 0 -61 -20 -61 -60s20.333 -60 61 -60c41.333 0 62 20 62 60
s-20.667 60 -62 60z" />
    <glyph glyph-name="Edieresis" unicode="&#xcb;" horiz-adv-x="884" 
d="M568 530l-273.001 -530h-77v593c-10.667 -7.33301 -27.667 -11 -51 -11c-36.667 0 -66.334 11.667 -89.001 35s-34 53.333 -34 90c0 36 11.333 64.833 34 86.5s52.334 32.5 89.001 32.5s66.334 -10.833 89.001 -32.5s34 -50.834 34 -87.501v-570l209 420
c16.667 34 38.334 53 65.001 57c5.33301 0.666992 13 1 23 1c-28 16 -42 45.667 -42 89c0 36.667 11.167 66.334 33.5 89.001s52.166 34 89.499 34c36.667 0 66.334 -10.833 89.001 -32.5s34 -50.834 34 -87.501c0 -48.667 -19 -84 -57 -106c7.33301 -4 13 -8.33301 17 -13
c12 -13.333 18 -28.666 18 -45.999v-541h-71v523c0 12.667 -6 23.667 -18 33s-24.667 14 -38 14c-38.667 0 -63.334 -13.333 -74.001 -40zM667.999 764c-40.667 0 -61 -20 -61 -60s20.333 -60 61 -60c41.333 0 62 20 62 60s-20.667 60 -62 60zM166.999 764
c-39.333 0 -59 -20 -59 -60s19.667 -60 59 -60s59 20 59 60s-19.667 60 -59 60z" />
    <glyph glyph-name="Igrave" unicode="&#xcc;" horiz-adv-x="943" 
d="M821 811l-0.000976562 -810.999h-76l-227 584l-223 -584h-77v593c-10.667 -7.33301 -27.667 -11 -51 -11c-36 0 -65.5 11.167 -88.5 33.5s-34.5 51.5 -34.5 87.5s11.333 65.5 34 88.5s52.334 34.5 89.001 34.5s66.334 -10.833 89.001 -32.5s34 -50.834 34 -87.501v-519
l228 568l232 -568v558c-16.667 -7.33301 -33 -11 -49 -11c-36.667 0 -66.5 11.167 -89.5 33.5s-34.5 51.833 -34.5 88.5s11.333 66.167 34 88.5s52.667 33.5 90 33.5c38.667 0 69 -13 91 -39c7.33301 -8.66699 14.666 -21.667 21.999 -39l66 78l46 -44zM166.999 764.001
c-39.333 0 -59 -20 -59 -60s19.667 -60 59 -60s59 20 59 60s-19.667 60 -59 60zM700.999 914.001c-38.667 0 -58 -19.667 -58 -59c0 -38.667 19.333 -58 58 -58c39.333 0 59 19.333 59 58c0 39.333 -19.667 59 -59 59z" />
    <glyph glyph-name="Iacute" unicode="&#xcd;" horiz-adv-x="784" 
d="M236 66l362.001 0.000976562v448c0 69.333 -22.833 126.333 -68.5 171s-103.5 67 -173.5 67c-72 0 -129.667 -23.5 -173 -70.5s-65 -106.833 -65 -179.5h-71c0 94 28.167 171 84.5 231s131.166 90 224.499 90c90.667 0 165.334 -28.833 224.001 -86.5
s88 -131.834 88 -222.501v-514h-504v440c0 35.333 11.5 63.833 34.5 85.5s52.167 32.5 87.5 32.5s64 -11.5 86 -34.5s33 -52.167 33 -87.5c0 -78 -39.667 -117 -119 -117c-14.667 0 -25.334 1.16699 -32.001 3.5l-18 6.5v-263zM286.001 499.001
c-38.667 0 -58 -20.333 -58 -61c0 -40 19.333 -60 58 -60c39.333 0 59 20 59 60c0 40.667 -19.667 61 -59 61z" />
    <glyph glyph-name="Icircumflex" unicode="&#xce;" horiz-adv-x="779" 
d="M590 66v447.999c0 24.667 -3.66699 51 -11 79c-2.66699 10.667 -6.33398 21.667 -11.001 33c-66 -48.667 -145.667 -73 -239 -73c-42 0 -84 8.33301 -126 25c-47.333 18.667 -78 39.334 -92 62.001c-8.66699 14 -13 30 -13 48c0 30.667 13.333 56 40 76
c52 39.333 115.667 59 191 59c69.333 0 132.666 -14.667 189.999 -44c19.333 -10 41 -25 65 -45c16.667 14 29 26.667 37 38c25.333 35.333 38 75.333 38 120h71c0 -66 -17.333 -122.333 -52 -169c-11.333 -15.333 -28.666 -32 -51.999 -50
c23.333 -52.667 35 -105.667 35 -159v-514h-543v378c0 36 11.167 64.833 33.5 86.5s51.5 32.5 87.5 32.5c35.333 0 64 -11.5 86 -34.5s33 -52.167 33 -87.5c0 -78 -39.667 -117 -119 -117c-19.333 0 -35.666 3.33301 -48.999 10v-202h400zM329 621.999
c49.333 0 97.668 11 145.001 33c14.667 6.66699 33.334 17.667 56.001 33c-18.667 14 -36.334 24.667 -53.001 32c-46.667 21.333 -96 32 -148 32c-66.667 0 -116.334 -16.333 -149.001 -49c-1.33301 -0.666992 -4 -5.66699 -8 -15c0 -9.33301 3.33301 -16 10 -20
c37.333 -30.667 86.333 -46 147 -46zM239.002 437.999c-38.667 0 -58 -20.333 -58 -61c0 -40 19.333 -60 58 -60c39.333 0 59 20 59 60c0 40.667 -19.667 61 -59 61z" />
    <glyph glyph-name="Idieresis" unicode="&#xcf;" horiz-adv-x="752" 
d="M314 560c-24.667 0 -46.667 2 -66 6l-22 6c-82.667 12.667 -124 56.667 -124 132c0 35.333 11.667 64 35 86s53 33 89 33c80.667 0 121 -41.333 121 -124c0 -33.333 -7.66699 -56.666 -23 -69.999c15.333 0 32 2 50 6c98 21.333 161 81.666 189 180.999h71v-816h-71v671
c-52 -74 -135 -111 -249 -111zM226 760c-39.333 0 -59 -19.667 -59 -59s19.667 -59 59 -59s59 19.667 59 59s-19.667 59 -59 59z" />
    <glyph glyph-name="Eth" unicode="&#xd0;" horiz-adv-x="734" 
d="M560 809l71 -0.00292969c-16 -82 -51.833 -145.5 -107.5 -190.5s-125.5 -67.5 -209.5 -67.5c-24.667 0 -46.667 2 -66 6l-22 6c-35.333 4.66699 -64.833 18.834 -88.5 42.501s-35.5 53.167 -35.5 88.5c0 36.667 11.5 65.834 34.5 87.501s52.833 32.5 89.5 32.5
c80.667 0 121 -42 121 -126c0 -32.667 -7.66699 -55.667 -23 -69c58.667 0 110 17.667 154 53c40.667 32.667 68 78.334 82 137.001zM560 262.997l71 -0.00390625c-16 -81.333 -52 -144.666 -108 -189.999s-125.667 -68 -209 -68c-24.667 0 -46.667 2 -66 6l-22 6
c-35.333 4.66699 -64.833 18.834 -88.5 42.501s-35.5 53.167 -35.5 88.5c0 36.667 11.5 65.834 34.5 87.501s52.833 32.5 89.5 32.5c80.667 0 121 -42 121 -126c0 -32.667 -7.66699 -55.667 -23 -69c58.667 0 110 17.667 154 53c40.667 32.667 68 78.334 82 137.001z
M226 203.993c-39.333 0 -59 -19.667 -59 -59s19.667 -59 59 -59s59 19.667 59 59s-19.667 59 -59 59zM226 749.993c-39.333 0 -59 -20 -59 -60c0 -39.333 19.667 -59 59 -59s59 19.667 59 59c0 40 -19.667 60 -59 60z" />
    <glyph glyph-name="Ntilde" unicode="&#xd1;" 
d="M-415 990c-78 21.333 -117 66.3301 -117 134.997c0 34.667 11.167 64.334 33.5 89.001s50.5 37 84.5 37c6 -0.666992 10.333 -1 13 -1c76.667 0 115 -39 115 -117c0 -51.333 -12.667 -82.666 -38 -93.999c16.667 -3.33301 37 -5 61 -5c168 0 277 71.333 327 214l63 -24
c-62 -170 -187.667 -255 -377 -255h-33c-3.33301 0.666992 -15.333 2 -36 4c-26 2.66699 -50 6.33398 -72 11.001c-6 1.33301 -14 3.33301 -24 6zM-406 1187c-41.333 0 -62 -20 -62 -60c0 -38.667 19.333 -58 58 -58c41.333 0 62 20.667 62 62c0 37.333 -19.333 56 -58 56z
" />
    <glyph glyph-name="Ograve" unicode="&#xd2;" horiz-adv-x="680" 
d="M570 0l-71.001 0.000976562v563c0 55.333 -18.167 101.166 -54.5 137.499s-82.166 54.5 -137.499 54.5c-58 0 -104.833 -18 -140.5 -54s-53.5 -83 -53.5 -141h-71c0 78 24.667 141.833 74 191.5s113 74.5 191 74.5c78.667 0 142.167 -24.167 190.5 -72.5
s72.5 -111.833 72.5 -190.5v-563z" />
    <glyph glyph-name="Oacute" unicode="&#xd3;" horiz-adv-x="727" 
d="M-152 983c-36 0 -65.5 11.167 -88.5 33.5s-34.5 51.5 -34.5 87.5c0 36.667 11.333 66.167 34 88.5s52.334 33.5 89.001 33.5c36 0 65.5 -11.333 88.5 -34s34.5 -52 34.5 -88s-11.333 -65.167 -34 -87.5s-52.334 -33.5 -89.001 -33.5zM565 0h-71v563c0 56 -18 102 -54 138
s-82 54 -138 54c-58 0 -104.833 -18 -140.5 -54s-53.5 -83 -53.5 -141h-71c0 78 24.667 141.833 74 191.5s113 74.5 191 74.5c78.667 0 142.167 -24.167 190.5 -72.5s72.5 -111.833 72.5 -190.5v-563zM-152 1165c-40.667 0 -61 -20.333 -61 -61c0 -40 20.333 -60 61 -60
s61 20 61 60c0 40.667 -20.333 61 -61 61z" />
    <glyph glyph-name="Ocircumflex" unicode="&#xd4;" 
d="M-118 971l-57.999 20.999c-52 18.667 -97.667 33.667 -137 45c-90.667 26 -181.667 42 -273 48c-35.333 2 -70 3 -104 3c-42.667 0 -74 -1.33301 -94 -4c24.667 70.667 66.667 126 126 166s127 60 203 60c97.333 0 176.333 -32.667 237 -98
c57.333 -61.333 90.666 -141.666 99.999 -240.999zM-454.999 1246c-108.667 0 -182.335 -34.666 -221.002 -103.999c4 0 10.333 0.333008 19 1s15.334 1 20.001 1c40.667 0 102 -4.33301 184 -13c46 -5.33301 102.333 -19.333 169 -42
c20 -6.66699 48.333 -17.334 85 -32.001c-51.333 126 -136.666 189 -255.999 189z" />
    <glyph glyph-name="Otilde" unicode="&#xd5;" 
d="M-118 971l-58 21c-52 18.667 -97.667 33.667 -137 45c-90.667 26 -181.667 42 -273 48c-35.333 2 -70 3 -104 3c-42.667 0 -74 -1.33301 -94 -4c24.667 70.667 66.667 126 126 166s127 60 203 60c112.667 0 202.667 -46.667 270 -140v206h67v-405zM-455 1246
c-108.667 0 -182.335 -34.666 -221.002 -103.999c4 0 10.333 0.333008 19 1s15.334 1 20.001 1c40.667 0 102 -4.33301 184 -13c46 -5.33301 102.333 -19.333 169 -42c20 -6.66699 48.333 -17.334 85 -32.001c-51.333 126 -136.666 189 -255.999 189z" />
    <glyph glyph-name="Odieresis" unicode="&#xd6;" 
d="M-118 971l-58 21c-52 18.667 -97.667 33.667 -137 45c-90.667 26 -181.667 42 -273 48c-35.333 2 -70 3 -104 3c-42.667 0 -74 -1.33301 -94 -4c24.667 70.667 66.667 126 126 166s127 60 203 60c27.333 0 48 -1.66699 62 -5c4.66699 -0.666992 9 -2.33398 13 -5.00098
c-2 5.33301 -3 12.666 -3 21.999c0 80 41 120 123 120c34.667 0 63.334 -9.83301 86.001 -29.5s34 -46.5 34 -80.5c0 -68 -24.667 -109.667 -74 -125c17.333 -19.333 31 -37.666 41 -54.999c29.333 -51.333 47.666 -111.666 54.999 -180.999zM-455 1246
c-108.667 0 -182.335 -34.666 -221.002 -103.999c4 0 10.333 0.333008 19 1s15.334 1 20.001 1c40.667 0 102 -4.33301 184 -13c46 -5.33301 102.333 -19.333 169 -42c20 -6.66699 48.333 -17.334 85 -32.001c-51.333 126 -136.666 189 -255.999 189zM-260.001 1381
c-38.667 0 -58 -20 -58 -60s19.333 -60 58 -60c39.333 0 59 20 59 60s-19.667 60 -59 60z" />
    <glyph glyph-name="multiply" unicode="&#xd7;" 
d="M-118 971l-57.999 21c-52 18.667 -97.667 33.667 -137 45c-90.667 26 -181.667 42 -273 48c-35.333 2 -70 3 -104 3c-42.667 0 -74 -1.33301 -94 -4c24.667 70.667 66.667 126 126 166s127 60 203 60c37.333 0 76.666 -6.66699 117.999 -20v86h67v-123
c12.667 -8.66699 22 -15.667 28 -21c22 -18 41 -38.667 57 -62v206h67v-405zM-454.999 1246c-108.667 0 -182.335 -34.666 -221.002 -103.999c4 0 10.333 0.333008 19 1s15.334 1 20.001 1c40.667 0 102 -4.33301 184 -13c46 -5.33301 102.333 -19.333 169 -42
c20 -6.66699 48.333 -17.334 85 -32.001c-51.333 126 -136.666 189 -255.999 189z" />
    <glyph glyph-name="Oslash" unicode="&#xd8;" 
d="M-190 -322c-14.667 -10 -31.667 -15 -51 -15c-36 0 -65.5 11.5 -88.5 34.5s-34.5 52.5 -34.5 88.5s11.5 65 34.5 87s52.5 33 88.5 33s65.5 -11 88.5 -33s34.5 -51 34.5 -87v-337h-72v229zM-241 -155c-40.667 0 -61 -20 -61 -60s20.333 -60 61 -60s61 20 61 60
s-20.333 60 -61 60z" />
    <glyph glyph-name="Ugrave" unicode="&#xd9;" 
d="M-322 -484h132v390h72v-457h-276v229c-14.667 -10 -31.667 -15 -51 -15c-36 0 -65.5 11.5 -88.5 34.5s-34.5 52.5 -34.5 88.5s11.5 65 34.5 87s52.5 33 88.5 33s65.5 -11 88.5 -33s34.5 -51 34.5 -87v-270zM-445 -155c-40.667 0 -61 -20 -61 -60s20.333 -60 61 -60
s61 20 61 60s-20.333 60 -61 60z" />
    <glyph glyph-name="Uacute" unicode="&#xda;" 
d="M-204 -263c-52.667 0 -79 26.667 -79 80s26.333 80 79 80c53.333 0 80 -26.667 80 -80s-26.667 -80 -80 -80z" />
    <glyph glyph-name="Ucircumflex" unicode="&#xdb;" 
d="M-260 971l-59.002 20.999c-57.333 20 -103 35 -137 45c-88.667 25.333 -179.667 41.333 -273 48c-35.333 2 -70 3 -104 3c-42 0 -73 -1.33301 -93 -4c24.667 71.333 66.334 126.833 125.001 166.5s126.334 59.5 203.001 59.5c97.333 0 176.333 -32.667 237 -98
c57.333 -61.333 91 -141.666 101 -240.999zM-598.002 1246c-109.333 0 -182.668 -34.667 -220.001 -104c10.667 1.33301 23.334 2 38.001 2c40.667 0 102 -4.33301 184 -13c45.333 -5.33301 101.666 -19.333 168.999 -42c24 -8 52.333 -18.667 85 -32
c-49.333 126 -134.666 189 -255.999 189z" />
    <glyph glyph-name="Udieresis" unicode="&#xdc;" 
d="M-260 971l-59.002 21c-57.333 20 -103 35 -137 45c-88.667 25.333 -179.667 41.333 -273 48c-35.333 2 -70 3 -104 3c-42 0 -73 -1.33301 -93 -4c24.667 71.333 66.334 126.833 125.001 166.5s126.334 59.5 203.001 59.5c112 0 202.667 -46.667 272 -140v206h66v-405z
M-598.002 1246c-109.333 0 -182.668 -34.667 -220.001 -104c10.667 1.33301 23.334 2 38.001 2c40.667 0 102 -4.33301 184 -13c45.333 -5.33301 101.666 -19.333 168.999 -42c24 -8 52.333 -18.667 85 -32c-49.333 126 -134.666 189 -255.999 189z" />
    <glyph glyph-name="Yacute" unicode="&#xdd;" 
d="M-260 971l-59.002 21.001c-57.333 20 -103 35 -137 45c-88.667 25.333 -179.667 41.333 -273 48c-35.333 2 -70 3 -104 3c-42 0 -73 -1.33301 -93 -4c24.667 71.333 66.334 126.833 125.001 166.5s126.334 59.5 203.001 59.5c16 0 33 -1.33301 51 -4
c6.66699 -0.666992 13.667 -2 21 -4c-3.33301 28.667 2 56 16 82c20.667 38.667 56.334 58 107.001 58c82 0 123 -40.667 123 -122c0 -57.333 -25.333 -95 -76 -113c18 -20.667 31.667 -39.334 41 -56.001c29.333 -52 47.666 -112 54.999 -180zM-598.002 1246
c-109.333 0 -182.668 -34.667 -220.001 -104c10.667 1.33301 23.334 2 38.001 2c40.667 0 102 -4.33301 184 -13c45.333 -5.33301 101.666 -19.333 168.999 -42c24 -8 52.333 -18.667 85 -32c-49.333 126 -134.666 189 -255.999 189zM-403.004 1381
c-39.333 0 -59 -20 -59 -60s19.667 -60 59 -60s59 20 59 60s-19.667 60 -59 60z" />
    <glyph glyph-name="Thorn" unicode="&#xde;" 
d="M-260 971l-59.002 21c-57.333 20 -103 35 -137 45c-88.667 25.333 -179.667 41.333 -273 48c-35.333 2 -70 3 -104 3c-42 0 -73 -1.33301 -93 -4c24.667 71.333 66.334 126.833 125.001 166.5s126.334 59.5 203.001 59.5c32 0 68 -6 108 -18v84h68v-112l31 -24
c24 -20.667 45.667 -44 65 -70v206h66v-405zM-598.002 1246c-109.333 0 -182.668 -34.667 -220.001 -104c10.667 1.33301 23.334 2 38.001 2c40.667 0 102 -4.33301 184 -13c45.333 -5.33301 101.666 -19.333 168.999 -42c24 -8 52.333 -18.667 85 -32
c-49.333 126 -134.666 189 -255.999 189z" />
    <glyph glyph-name="germandbls" unicode="&#xdf;" horiz-adv-x="706" 
d="M298 0h-203.999v910h204v100h78v-103c45.333 0 91.333 -14.667 138 -44c70 -44 105 -109 105 -195c0 -76 -33.667 -136.333 -101 -181c100 -40 150 -116.333 150 -229c0 -92 -36.667 -161.667 -110 -209c-50.667 -32.667 -111.334 -49 -182.001 -49v-110h-78v110z
M376.001 823v-305.001c16 0 42.333 10 79 30c48.667 26.667 73 68.334 73 125.001c0 56 -23.667 98 -71 126c-27.333 16 -54.333 24 -81 24zM298.001 83.999l-3 354h-110v-354h113zM376.001 433.999v-350.001c42 0 80 8.66699 114 26c58 29.333 87 78 87 146
c0 82.667 -37.667 137.334 -113 164.001c-26 9.33301 -55.333 14 -88 14zM298.001 520.998v305h-113v-305h113z" />
    <glyph glyph-name="agrave" unicode="&#xe0;" horiz-adv-x="418" 
d="M199 218c5.33301 4.66699 9.33398 7.66602 12.001 8.99902c11.333 6 24.666 9 39.999 9c36 0 65.333 -11.667 88 -35s34 -53 34 -89s-11.167 -65.333 -33.5 -88s-51.833 -34 -88.5 -34s-66.5 11.333 -89.5 34s-34.5 52.334 -34.5 89.001v703h72v-598zM251.001 53.999
c39.333 0 59 19.667 59 59s-19.667 59 -59 59s-59 -19.667 -59 -59s19.667 -59 59 -59z" />
    <glyph glyph-name="aacute" unicode="&#xe1;" horiz-adv-x="760" 
d="M199 218c5.33301 4.66699 9.33398 7.66602 12.001 8.99902c11.333 6 24.666 9 39.999 9c36 0 65.333 -11.667 88 -35s34 -53 34 -89s-11.167 -65.333 -33.5 -88s-51.833 -34 -88.5 -34s-66.5 11.333 -89.5 34s-34.5 52.334 -34.5 89.001v703h72v-598zM535.001 217.999
c15.333 12 32.667 18 52 18c36.667 0 66.334 -11.5 89.001 -34.5s34 -52.833 34 -89.5s-11.333 -66.167 -34 -88.5s-52.334 -33.5 -89.001 -33.5c-36 0 -65.5 11.5 -88.5 34.5s-34.5 52.5 -34.5 88.5v703h71v-598zM587.002 53.999c39.333 0 59 19.667 59 59
s-19.667 59 -59 59c-38.667 0 -58 -19.667 -58 -59s19.333 -59 58 -59zM251.002 53.999c39.333 0 59 19.667 59 59s-19.667 59 -59 59s-59 -19.667 -59 -59s19.667 -59 59 -59z" />
    <glyph glyph-name="acircumflex" unicode="&#xe2;" horiz-adv-x="490" 
d="M-42 1088c0 71.333 20.998 129.831 62.998 175.498s98.333 68.5 169 68.5c68 0 123 -21.167 165 -63.5s63 -97.166 63 -164.499h-71c0 48 -14.167 86.667 -42.5 116s-66.5 44 -114.5 44c-95.333 0 -148.666 -47 -159.999 -141l211 -101c18 -10.667 27 -23 27 -37v-759
c6 2.66699 10.333 4.33398 13 5.00098c8.66699 3.33301 21.334 5 38.001 5c36.667 0 66.5 -11.333 89.5 -34s34.5 -52.334 34.5 -89.001c0 -37.333 -11.333 -67.166 -34 -89.499s-52.667 -33.5 -90 -33.5c-36.667 0 -66.167 11.667 -88.5 35s-33.5 53.333 -33.5 90v828
c0 19.333 -11 33.333 -33 42zM318.998 171.998c-40.667 0 -61 -20 -61 -60s20.333 -60 61 -60c41.333 0 62 20 62 60s-20.667 60 -62 60z" />
    <glyph glyph-name="atilde" unicode="&#xe3;" horiz-adv-x="568" 
d="M101 1205c34.667 0 62.8359 -11.001 84.5029 -33.001s32.5 -50.333 32.5 -85c0 -35.333 -10.833 -64 -32.5 -86s-49.834 -33 -84.501 -33c-44.667 0 -80.334 18.333 -107.001 55c-24 32.667 -36 72.334 -36 119.001c0 54 18.667 99.167 56 135.5s83.333 54.5 138 54.5
c56 0 102 -18 138 -54s54 -82 54 -138v-914c4 2.66699 7.66699 4.33398 11 5.00098c10.667 3.33301 23.667 5 39 5c36.667 0 66.5 -11.333 89.5 -34s34.5 -52.334 34.5 -89.001c0 -36 -11.667 -65.5 -35 -88.5s-53 -34.5 -89 -34.5c-81.333 0 -122 41.667 -122 125v1020
c0 84 -40 126 -120 126c-36.667 0 -66.334 -12.333 -89.001 -37c-7.33301 -8 -15 -20.333 -23 -37c6 4.66699 10.667 7.66699 14 9c13.333 6 29 9 47 9zM101.002 1138c-35.333 0 -53 -18 -53 -54s17.667 -54 53 -54s53 18 53 54s-17.667 54 -53 54zM394.002 171.999
c-40 0 -60 -20 -60 -60s20 -60 60 -60s60 20 60 60s-20 60 -60 60z" />
    <glyph glyph-name="adieresis" unicode="&#xe4;" horiz-adv-x="568" 
d="M277 1180l-84.999 -216h-74l-160 358h74l123 -288l122 288h72v-1096c4.66699 2.66699 8.66699 4.33398 12 5.00098c11.333 3.33301 24.666 5 39.999 5c36.667 0 66.167 -11.333 88.5 -34s33.5 -52.334 33.5 -89.001c0 -36 -11.333 -65.5 -34 -88.5s-52 -34.5 -88 -34.5
c-37.333 0 -67.333 11.5 -90 34.5s-34 53.167 -34 90.5v1065zM401.001 172c-38.667 0 -58 -20 -58 -60s19.333 -60 58 -60c39.333 0 59 20 59 60s-19.667 60 -59 60z" />
    <glyph glyph-name="aring" unicode="&#xe5;" horiz-adv-x="680" 
d="M570 -457l-71.001 0.000976562v1020c0 55.333 -18.167 101.166 -54.5 137.499s-82.166 54.5 -137.499 54.5c-58 0 -104.833 -18 -140.5 -54s-53.5 -83 -53.5 -141h-71c0 78 24.667 141.833 74 191.5s113 74.5 191 74.5c78.667 0 142.167 -24.167 190.5 -72.5
s72.5 -111.833 72.5 -190.5v-1020z" />
    <glyph glyph-name="ae" unicode="&#xe6;" horiz-adv-x="1018" 
d="M361 587c3.33301 2.66699 6.66797 5 10.001 7c19.333 10.667 39 16 59 16c36.667 0 66.5 -11 89.5 -33s34.5 -51.333 34.5 -88c0 -36 -11.667 -65.5 -35 -88.5s-53 -34.5 -89 -34.5c-48.667 0 -86 18.333 -112 55c-22.667 32 -34 73.333 -34 124
c0 65.333 16.667 124.333 50 177c37.333 59.333 86.333 94 147 104l112 -81l115 81c128 -54.667 192 -162 192 -322v-959h-72v959c0 122 -42.333 204 -127 246l-108 -82l-109 82c-50 -14.667 -85.333 -46 -106 -94c-6.66699 -15.333 -12.334 -38.333 -17.001 -69z
M430.002 548c-40.667 0 -61 -20.333 -61 -61c0 -40 20.333 -60 61 -60s61 20 61 60c0 40.667 -20.333 61 -61 61z" />
    <glyph glyph-name="ccedilla" unicode="&#xe7;" 
d="M-253 983c-65.333 0 -119.333 16.667 -162 50c-14 11.333 -29 28.333 -45 51l-66 -94c-40.667 0 -76 20.667 -106 62c-27.333 38 -41 78 -41 120c0 47.333 18.333 87 55 119c34.667 30.667 76 46 124 46h258c46.667 0 77.667 18 93 54l57 -37
c-10.667 -19.333 -21 -34 -31 -44c-30.667 -29.333 -70.334 -44 -119.001 -44h-258c-29.333 0 -54.666 -8 -75.999 -24c-23.333 -18 -35 -41.333 -35 -70c0 -38.667 11 -66.334 33 -83.001c6.66699 -5.33301 17.667 -10.333 33 -15l79 108c15.333 -25.333 28 -44.333 38 -57
c30.667 -38.667 56.667 -58 78 -58c-0.666992 4.66699 -1 8.66699 -1 12c0 68.667 31.333 103 94 103c29.333 0 53.333 -9.16699 72 -27.5s28 -42.166 28 -71.499c0 -66.667 -34 -100 -102 -100zM-251 1135c-34 0 -51 -17.333 -51 -52c0 -32.667 17 -49 51 -49
s51 16.667 51 50c0 34 -17 51 -51 51z" />
    <glyph glyph-name="egrave" unicode="&#xe8;" 
d="M-118 1775v-310h-67v310h67z" />
    <glyph glyph-name="eacute" unicode="&#xe9;" 
d="M-246 1700c0 -51.333 -9.66699 -96.001 -29 -134.001c-6.66699 -14 -16.667 -28 -30 -42c26.667 6 46 11 58 15c63.333 21.333 113 59.333 149 114c28.667 43.333 45.667 91 51 143l64 -16c-7.33301 -56.667 -26.666 -109 -57.999 -157c-30 -36 -46 -55.667 -48 -59
c-66.667 -68.667 -156.334 -103 -269.001 -103c-16 0 -28 0.666992 -36 2v61c8.66699 6 16.334 12 23.001 18c18 17.333 31.333 35 40 53c-4.66699 -3.33301 -14 -5 -28 -5c-32.667 0 -59.167 10.167 -79.5 30.5s-30.5 46.833 -30.5 79.5s10.167 59.334 30.5 80.001
s46.833 31 79.5 31c45.333 0 77.666 -18.333 96.999 -55c6 -11.333 11.333 -30 16 -56zM-359 1754c-35.333 0 -53 -18 -53 -54s17.667 -54 53 -54s53 18 53 54s-17.667 54 -53 54z" />
    <glyph glyph-name="ecircumflex" unicode="&#xea;" 
d="M-354 1477c-44 0 -79.9971 17.335 -107.997 52.002c-26.667 32.667 -40 71.667 -40 117c0 40.667 9.33301 74.667 28 102c22 32 52.333 48 91 48c27.333 0 51.666 -7.33301 72.999 -22c6.66699 -4.66699 14.667 -12 24 -22c10 9.33301 19 16.666 27 21.999
c22 14.667 43.667 22 65 22c61.333 0 100.666 -28 117.999 -84l52 101l52 -24l-159 -309h-66l59 120c4.66699 9.33301 9 26.666 13 51.999c0.666992 2.66699 1.66699 8.33398 3 17.001c0 19.333 -7.5 36 -22.5 50s-32.5 21 -52.5 21c-14 0 -33 -9.33301 -57 -28
c-5.33301 -4 -16 -13.333 -32 -28c-10.667 11.333 -19.334 19.666 -26.001 24.999c-22 17.333 -43.333 26 -64 26c-44.667 0 -67 -31 -67 -93c0 -22.667 3.66699 -37.667 11 -45c6.66699 11.333 12 19.333 16 24c15.333 16.667 36 25 62 25c56.667 0 85 -27.333 85 -82
c0 -58 -28.333 -87 -85 -87zM-355.997 1604c-28.667 0 -43 -14.333 -43 -43c0 -28 14.333 -42 43 -42c29.333 0 44 14 44 42c0 28.667 -14.667 43 -44 43z" />
    <glyph glyph-name="edieresis" unicode="&#xeb;" 
d="M-118 1658h123v-66h-123v-122h-67v122h-120v66h120v122h67v-122z" />
    <glyph glyph-name="igrave" unicode="&#xec;" 
d="M-218 1438c-32.667 0 -59.333 10.501 -80 31.501s-31 47.833 -31 80.5c0 48 23 82.667 69 104l324 152l32 -52l-248 -112c28 -20.667 42 -52.334 42 -95.001c0 -72.667 -36 -109 -108 -109zM-217.999 1602c-34.667 0 -52 -18 -52 -54s17.333 -54 52 -54
c35.333 0 53 18 53 54s-17.667 54 -53 54z" />
    <glyph glyph-name="iacute" unicode="&#xed;" 
d="M-152 983c-36 0 -65.5 11.167 -88.5 33.5s-34.5 51.5 -34.5 87.5c0 36.667 11.333 66.167 34 88.5s52.334 33.5 89.001 33.5c36 0 65.5 -11.333 88.5 -34s34.5 -52 34.5 -88s-11.333 -65.167 -34 -87.5s-52.334 -33.5 -89.001 -33.5zM-152 1165
c-40.667 0 -61 -20.333 -61 -61c0 -40 20.333 -60 61 -60s61 20 61 60c0 40.667 -20.333 61 -61 61z" />
    <glyph glyph-name="icircumflex" unicode="&#xee;" horiz-adv-x="769" 
d="M103 182l228 228l-228 228l49 52l231 -228l227 228l49 -48l-227 -229l227 -228l-49 -49l-232 228l-228 -231z" />
    <glyph glyph-name="idieresis" unicode="&#xef;" horiz-adv-x="983" 
d="M492 0c-112.667 0 -208.833 39.832 -288.5 119.499s-119.5 175.834 -119.5 288.501c0 113.333 39.667 209.666 119 288.999s175.666 119 288.999 119c114 0 210.5 -39.5 289.5 -118.5s118.5 -175.5 118.5 -289.5c0 -113.333 -39.667 -209.666 -119 -288.999
s-175.666 -119 -288.999 -119zM838.001 407.999c0 96.667 -33.667 178.667 -101 246s-149 101 -245 101c-96.667 0 -178.667 -33.667 -246 -101s-101 -149.333 -101 -246s33.667 -178.667 101 -246s149.333 -101 246 -101s178.5 33.667 245.5 101s100.5 149.333 100.5 246z
M492.001 163.999c-68.667 0 -126.5 23.499 -173.5 70.499s-70.5 104.833 -70.5 173.5s23.5 126.834 70.5 174.501s104.833 71.5 173.5 71.5c68 0 125.833 -24 173.5 -72s71.5 -106 71.5 -174s-23.833 -125.667 -71.5 -173s-105.5 -71 -173.5 -71zM676.001 407.998
c0 50.667 -18 94.167 -54 130.5s-79.333 54.5 -130 54.5c-51.333 0 -94.5 -18 -129.5 -54s-52.5 -79.667 -52.5 -131c0 -50.667 17.667 -93.667 53 -129s78.333 -53 129 -53c51.333 0 94.833 17.667 130.5 53s53.5 78.333 53.5 129z" />
    <glyph glyph-name="eth" unicode="&#xf0;" horiz-adv-x="760" 
d="M371 -5c-90.667 0 -166.667 23.667 -228 71c-68 51.333 -102 121 -102 209s33.667 158 101 210c62 47.333 138.333 71 229 71s167 -23.667 229 -71c67.333 -52 101 -122 101 -210c0 -87.333 -34 -157 -102 -209c-61.333 -47.333 -137.333 -71 -228 -71zM371 492
c-68.667 0 -126 -18.334 -172 -55.001c-50 -40 -75 -93.667 -75 -161s24.667 -120.666 74 -159.999c46 -36.667 103.667 -55 173 -55c68.667 0 126.334 18.333 173.001 55c50 40 75 93.333 75 160s-25 120 -75 160c-46.667 37.333 -104.334 56 -173.001 56z" />
    <glyph glyph-name="ntilde" unicode="&#xf1;" horiz-adv-x="811" 
d="M506 -40c54.667 21.333 97.334 57.002 128.001 107.002s46 105 46 165c0 78.667 -26.333 141 -79 187c-50 43.333 -115 65 -195 65c-166.667 0 -257.667 -72 -273 -216c-0.666992 -6 -1 -10.333 -1 -13v-12c0 -45.333 14 -87.333 42 -126c30.667 -42 68 -63 112 -63
c8 0 18.333 2.33301 31 7c-16 9.33301 -27.333 17.666 -34 24.999c-23.333 24 -35 52.667 -35 86c0 37.333 12 68 36 92s54.667 36 92 36c84 0 126 -44.333 126 -133c0 -52.667 -21.667 -96 -65 -130c-40 -31.333 -87.333 -47 -142 -47c-74 0 -132.667 29 -176 87
c-38.667 52 -58 116.333 -58 193c0 92.667 35.667 165 107 217c63.333 46 143.333 69 240 69c100 0 181.667 -26.667 245 -80c68 -56.667 102 -134 102 -232c0 -78 -18.667 -147.333 -56 -208c-38.667 -64.667 -93.334 -110.334 -164.001 -137.001zM376 239.002
c-44 0 -66 -22.333 -66 -67c0 -44 22 -66 66 -66s66 22 66 66c0 44.667 -22 67 -66 67z" />
    <glyph glyph-name="ograve" unicode="&#xf2;" horiz-adv-x="892" 
d="M556 499c12.667 12.667 23.666 22 32.999 28c30 19.333 62 29 96 29c45.333 0 80.833 -14.333 106.5 -43s38.5 -66 38.5 -112v-258c0 -42 -13.667 -76.333 -41 -103s-62 -40 -104 -40h-457c-40.667 0 -73 15.667 -97 47c-22 28 -33 63 -33 105v645h71v-637
c0 -62.667 29 -94 87 -94h424c53.333 0 80 26.333 80 79v244c0 63.333 -29 95 -87 95c-31.333 0 -60.666 -11.667 -87.999 -35c-8.66699 -7.33301 -19.334 -19.333 -32.001 -36c-13.333 16 -24.333 27.667 -33 35c-28 24 -54.667 36 -80 36c-43.333 0 -75 -14.667 -95 -44
l-14 -44c6.66699 2 14.334 3.66699 23.001 5c18.667 3.33301 32.667 5 42 5c38 0 68.667 -11.167 92 -33.5s35 -52.5 35 -90.5c0 -37.333 -11.833 -68.333 -35.5 -93s-54.167 -37 -91.5 -37c-96.667 0 -145 69 -145 207c0 52.667 16 98 48 136c33.333 40.667 76 61 128 61
c39.333 0 72.666 -9.33301 99.999 -28c8.66699 -6 18.334 -15.667 29.001 -29zM395.999 347c-44 0 -66 -22.333 -66 -67c0 -44 22 -66 66 -66s66 22 66 66c0 44.667 -22 67 -66 67z" />
    <glyph glyph-name="oacute" unicode="&#xf3;" horiz-adv-x="924" 
d="M322 490c-56.667 0 -103.667 -23.001 -141 -69.001c-34.667 -43.333 -52 -93.666 -52 -150.999c0 -32.667 9.33301 -67 28 -103c8.66699 19.333 16.334 33.333 23.001 42c22.667 28 54.334 42 95.001 42c37.333 0 68 -12.5 92 -37.5s36 -56.5 36 -94.5
s-11.667 -68.5 -35 -91.5s-54.333 -34.5 -93 -34.5c-63.333 0 -116.333 32.667 -159 98c-38 57.333 -57 119.333 -57 186v16c1.33301 8 2 13.667 2 17c9.33301 71.333 37.333 130.333 84 177c49.333 48.667 109 73 179 73c54.667 0 100.667 -14.333 138 -43
c12 -9.33301 25.333 -23.666 40 -42.999c15.333 19.333 29.666 34 42.999 44c39.333 30 83 45 131 45c54 0 98.333 -20 133 -60c32.667 -38 49 -84.333 49 -139v-364h-72v364c0 33.333 -9.33301 62 -28 86c-20.667 26.667 -47.334 40 -80.001 40
c-39.333 0 -72.333 -11.333 -99 -34s-40 -53.334 -40 -92.001v-364h-72v364c0 37.333 -15.333 68 -46 92c-28 22.667 -61 34 -99 34zM275 189.999c-44.667 0 -67 -22.333 -67 -67s22.333 -67 67 -67s67 22.333 67 67s-22.333 67 -67 67z" />
    <glyph glyph-name="ocircumflex" unicode="&#xf4;" horiz-adv-x="929" 
d="M133 275c0 -52 18.665 -99.333 55.998 -142c38.667 -44.667 83.667 -67 135 -67h108c-54 36.667 -81 98.334 -81 185.001c0 54.667 17.667 98.334 53 131.001c25.333 24 56.333 36 93 36c38 0 69 -11.5 93 -34.5s36 -53.5 36 -91.5s-12 -69.167 -36 -93.5
s-55 -36.5 -93 -36.5c-14 0 -26.333 2.33301 -37 7c-4 1.33301 -8 3.66602 -12 6.99902c-2 -16 9.66699 -37.333 35 -64c28.667 -30.667 59.334 -46 92.001 -46h255v-66h-506c-74.667 0 -137.167 27.667 -187.5 83s-75.5 121 -75.5 197c0 84 25.5 151 76.5 201
s118.5 75 202.5 75h424c48.667 0 87.334 25 116.001 75l54 -36c-14.667 -30.667 -38 -55.834 -70 -75.501s-65.333 -29.5 -100 -29.5h-420c-140.667 0 -211 -71.667 -211 -215zM496.998 356c-43.333 0 -65 -22.333 -65 -67c0 -44 21.667 -66 65 -66s65 22 65 66
c0 44.667 -21.667 67 -65 67z" />
    <glyph glyph-name="otilde" unicode="&#xf5;" horiz-adv-x="943" 
d="M548 656c0 -43.333 -10.0029 -76.667 -30.0029 -100h261c28 0 55 11.333 81 34l38 41l51 -36c-14.667 -30 -38 -55 -70 -75s-64.667 -30 -98 -30h-351c-8.66699 0 -32 -4.66699 -70 -14l-53 -14c-116 -34 -174 -96.333 -174 -187c0 -61.333 16.333 -111 49 -149
c34.667 -40 82 -60 142 -60h114c-54.667 35.333 -82 99 -82 191c0 10.667 1 21 3 31c16.667 86.667 64.334 130 143.001 130c38.667 0 69.834 -11.667 93.501 -35s35.5 -54 35.5 -92c0 -37.333 -12 -68.166 -36 -92.499s-55 -36.5 -93 -36.5c-12 0 -24 2.33301 -36 7
c-3.33301 1.33301 -8 3.66602 -14 6.99902c0 -16.667 12 -38 36 -64c28.667 -30.667 59.334 -46 92.001 -46h266v-66h-522c-80.667 -0 -144.667 26.333 -192 79s-71 119.667 -71 201c0 128.667 83 212 249 250c-10.667 10 -19 19.667 -25 29c-16.667 26 -25 55.333 -25 88
c0 42 13.833 76 41.5 102s62.5 39 104.5 39c40.667 0 74.5 -12 101.5 -36s40.5 -56 40.5 -96zM402.997 729.999c-55.333 0 -83 -28 -83 -84c0 -55.333 27.667 -83 83 -83s83 27.667 83 83c0 56 -27.667 84 -83 84zM501.997 355.999c-44 0 -66 -22.333 -66 -67
c0 -44 22 -66 66 -66s66 22 66 66c0 44.667 -22 67 -66 67z" />
    <glyph glyph-name="odieresis" unicode="&#xf6;" horiz-adv-x="730" 
d="M391 556c82.667 0 149.997 -23.667 201.997 -71c53.333 -49.333 80 -115 80 -197c0 -64.667 -17 -124 -51 -178c-50 -80 -127.667 -120 -233 -120c-71.333 0 -134 12.333 -188 37c-71.333 32 -107 79.333 -107 142c0 38 11.167 69 33.5 93s52.5 36 90.5 36
c38.667 0 69.834 -12.167 93.501 -36.5s35.5 -55.833 35.5 -94.5c0 -42 -13.333 -72.333 -40 -91c22.667 -10.667 43.334 -16 62.001 -16c4.66699 0 10.334 0.333008 17.001 1c142.667 14 214 89 214 225c0 58 -20.167 105.5 -60.5 142.5s-89.833 55.5 -148.5 55.5
c-82 0 -144.333 -29.333 -187 -88l-176 343l58 30l137 -263c49.333 33.333 105.333 50 168 50zM217.997 236c-44.667 0 -67 -22.333 -67 -67c0 -44 22.333 -66 67 -66s67 22 67 66c0 44.667 -22.333 67 -67 67z" />
    <glyph glyph-name="divide" unicode="&#xf7;" horiz-adv-x="929" 
d="M52 305c6.66699 69.333 27.332 126.668 61.999 172.001c40 52.667 92.667 79 158 79c46 0 85.667 -13.667 119 -41c10.667 -8.66699 22.667 -22.334 36 -41.001c14.667 18.667 27.334 32.334 38.001 41.001c33.333 27.333 70 41 110 41c56 0 103.167 -16 141.5 -48
s57.5 -75.333 57.5 -130l140 312l57 -26l-291 -664h-80l98 223c11.333 26 17 55.667 17 89c0 25.333 -2.33301 45.666 -7 60.999c-4.66699 34 -19.834 61 -45.501 81s-55.834 30 -90.501 30c-72 0 -108 -38.667 -108 -116h-70c0 34 -12.167 61.833 -36.5 83.5
s-53.5 32.5 -87.5 32.5c-42.667 0 -76.667 -17.833 -102 -53.5s-39 -79.167 -41 -130.5c-2 -50.667 7.66699 -97 29 -139c6.66699 -12.667 16.334 -25.667 29.001 -39c0 28 8 53.333 24 76c22.667 32 56.334 48 101.001 48c38.667 0 70.5 -11.667 95.5 -35
s37.5 -54.333 37.5 -93s-12.5 -69.667 -37.5 -93s-56.833 -35 -95.5 -35c-76 0 -138.667 29 -188 87c-47.333 54.667 -71 120.667 -71 198c0 13.333 0.333008 23.333 1 30zM309.998 185.002c-44 0 -66 -22.333 -66 -67c0 -44 22 -66 66 -66s66 22 66 66
c0 44.667 -22 67 -66 67z" />
    <glyph glyph-name="oslash" unicode="&#xf8;" horiz-adv-x="959" 
d="M870 143c0 -51.333 -20.001 -90.667 -60.001 -118c-34.667 -23.333 -78.667 -35 -132 -35c-110 0 -201.667 62 -275 186l-86 -176c-170.667 34.667 -256 128 -256 280c0 72.667 25.833 136.834 77.5 192.501s113.5 83.5 185.5 83.5h455c24.667 0 50.334 8 77.001 24
c29.333 16.667 47.333 36 54 58l58 -33c-14.667 -32.667 -40.5 -61 -77.5 -85s-73.5 -36 -109.5 -36h-452c-48.667 0 -92.667 -21.667 -132 -65s-59 -89.666 -59 -138.999c0 -97.333 45.667 -160.333 137 -189l91 177h77c24 -88.667 75.333 -151.334 154 -188.001
c20 -9.33301 33.667 -14 41 -14c-16 17.333 -24 42.666 -24 75.999c0 86.667 42.667 130 128 130s128 -43 128 -129zM741.999 210.999c-45.333 0 -68 -23 -68 -69s22.667 -69 68 -69s68 23 68 69s-22.667 69 -68 69z" />
    <glyph glyph-name="ugrave" unicode="&#xf9;" horiz-adv-x="934" 
d="M568 457c8.66699 26 27.999 48.1641 57.999 66.4971s59 27.5 87 27.5h105c44 0 66 24.333 66 73v140h72v-150c0 -37.333 -12.333 -69.166 -37 -95.499s-55.667 -39.5 -93 -39.5h-108c-2.66699 0.666992 -6.66699 1 -12 1c-24.667 0 -45.5 -11.667 -62.5 -35
s-25.5 -47.666 -25.5 -72.999c0 -11.333 2 -21.333 6 -30l173 -342h-82l-187 378c-18.667 37.333 -44 64.333 -76 81c-34 16.667 -73 25 -117 25c-60.667 0 -109.834 -19.5 -147.501 -58.5s-56.5 -88.833 -56.5 -149.5c0 -80 30.667 -139.333 92 -178
c1.33301 34 5 59.333 11 76c18.667 51.333 56.334 77 113.001 77c36 0 66.5 -11.167 91.5 -33.5s37.5 -51.166 37.5 -86.499c0 -38 -12.167 -71 -36.5 -99s-55.166 -42 -92.499 -42c-84 0 -152.667 26.667 -206 80s-80 122 -80 206c0 83.333 26.667 150.833 80 202.5
s122 77.5 206 77.5c63.333 0 119 -16.333 167 -49c16.667 -11.333 34.667 -28 54 -50zM348.999 186.997c-42.667 0 -64 -22 -64 -66c0 -43.333 21.333 -65 64 -65s64 21.667 64 65c0 44 -21.333 66 -64 66z" />
    <glyph glyph-name="uacute" unicode="&#xfa;" horiz-adv-x="873" 
d="M475 819c64.667 0 97.001 -27.001 97.001 -81.001v-537c0 -54.667 -15.667 -101 -47 -139c-32.667 -40 -75.667 -61.333 -129 -64l-41 72c80 12.667 120 57 120 133v313c-25.333 -46 -50 -77.667 -74 -95c-27.333 -20 -65.333 -30 -114 -30
c-99.333 0 -169 42.667 -209 128c-19.333 41.333 -29 91 -29 149c0 40 16.167 75.167 48.5 105.5s68.833 45.5 109.5 45.5c84.667 0 127 -40.667 127 -122c0 -37.333 -11.667 -69 -35 -95s-53.333 -39 -90 -39c-22.667 0 -43 5 -61 15c10 -41.333 24.667 -70.166 44 -86.499
s49.666 -24.5 90.999 -24.5c58 0 110.333 52.333 157 157c23.333 53.333 35 118.333 35 195zM205.001 757.999c-42 0 -63 -22 -63 -66c0 -43.333 21 -65 63 -65c44 0 66 21.667 66 65c0 44 -22 66 -66 66zM721.001 808.999l95.999 -16v-594c0 -54.667 -15.333 -101 -46 -139
c-33.333 -40.667 -76.666 -62 -129.999 -64l-41 72c80.667 10 121 54.333 121 133v608z" />
    <glyph glyph-name="ucircumflex" unicode="&#xfb;" horiz-adv-x="1637" 
d="M629 684l-5.99707 -90.0029c-66.667 48 -136.334 72 -209.001 72c-92 0 -161.333 -41.667 -208 -125c-25.333 -45.333 -38 -104.666 -38 -177.999c0 -109.333 36.667 -187.666 110 -234.999c37.333 -24 84 -36 140 -36c88 0 158 39.333 210 118
c26 38.667 63.333 106.667 112 204l122 -152l121 154l105 -160l125 156c81.333 -130.667 144.666 -196 189.999 -196c74 0 121.667 67.333 143 202h74c-30.667 -185.333 -103 -278 -217 -278c-73.333 0 -137.333 54.333 -192 163l-131 -146l-103 148
c-40 -57.333 -80.333 -103.666 -121 -138.999l-94 117c-66 -130.667 -132.333 -211.667 -199 -243c-42.667 -20.667 -90.334 -31 -143.001 -31c-129.333 0 -226.333 54 -291 162c-34 56 -51 124.667 -51 206c0 106 28.667 193.333 86 262c62 74 144.667 111 248 111
c70 0 142.333 -22 217 -66z" />
    <glyph glyph-name="udieresis" unicode="&#xfc;" 
d="M-190 -710c-14.667 -10 -31.667 -15 -51 -15c-36 0 -65.5 11.5 -88.5 34.5s-34.5 52.5 -34.5 88.5s11.5 65 34.5 87s52.5 33 88.5 33s65.5 -11 88.5 -33s34.5 -51 34.5 -87v-197h-72v89zM-241 -543c-40.667 0 -61 -20 -61 -60s20.333 -60 61 -60s61 20 61 60
s-20.333 60 -61 60z" />
    <glyph glyph-name="yacute" unicode="&#xfd;" 
d="M-322 -732h132v250h72v-317h-276v89c-14.667 -10 -31.667 -15 -51 -15c-36 0 -65.5 11.5 -88.5 34.5s-34.5 52.5 -34.5 88.5s11.5 65 34.5 87s52.5 33 88.5 33s65.5 -11 88.5 -33s34.5 -51 34.5 -87v-130zM-445 -543c-40.667 0 -61 -20 -61 -60s20.333 -60 61 -60
s61 20 61 60s-20.333 60 -61 60z" />
    <glyph glyph-name="thorn" unicode="&#xfe;" 
d="M-204 -636c-52.667 0 -79 26.667 -79 80s26.333 80 79 80c53.333 0 80 -26.667 80 -80s-26.667 -80 -80 -80z" />
    <glyph glyph-name="ydieresis" unicode="&#xff;" horiz-adv-x="455" 
 />
    <glyph glyph-name="OE" unicode="&#x152;" horiz-adv-x="706" 
d="M54 502c0 92.667 28.1641 169.668 84.4971 231.001s130.166 92 221.499 92c76.667 0 141.334 -23.167 194.001 -69.5s84.334 -107.5 95.001 -183.5h-74c-5.33301 40 -22.666 76.667 -51.999 110c-41.333 46.667 -97.666 70 -168.999 70
c-54.667 0 -103.5 -16.667 -146.5 -50s-68.5 -76.666 -76.5 -129.999h279c33.333 0 62 -8.33301 86 -25c26 -18.667 39 -44.334 39 -77.001c0 -4 -0.666992 -10 -2 -18l-73 -452h-71l-82 218c-9.33301 -6 -16.333 -10.333 -21 -13c-18 -8.66699 -36 -13 -54 -13
c-35.333 0 -64.333 10.833 -87 32.5s-34 50.167 -34 85.5s11.333 64.166 34 86.499s51.667 33.5 87 33.5c30.667 0 56 -10.333 76 -31s34.667 -45.667 44 -75l58 -184l52 303c6.66699 39.333 -13 59 -59 59h-349zM231.997 368.001c-38.667 0 -58 -19.667 -58 -59
c0 -38.667 19.333 -58 58 -58c39.333 0 59 19.333 59 58c0 39.333 -19.667 59 -59 59z" />
    <glyph glyph-name="oe" unicode="&#x153;" 
d="M-293 1438c-32 0 -58 10.668 -78 32.001s-30 48 -30 80c0 47.333 23.333 82 70 104l321 152l34 -52l-250 -112c29.333 -20.667 44 -52.334 44 -95.001c0 -72.667 -37 -109 -111 -109zM-290 1602c-36 0 -54 -18 -54 -54s18 -54 54 -54s54 18 54 54s-18 54 -54 54z" />
    <glyph glyph-name="Scaron" unicode="&#x160;" 
d="M-221 1172v-182h-72v182h-181v71h181v180h72v-180h179v-71h-179z" />
    <glyph glyph-name="scaron" unicode="&#x161;" 
d="M-509 1477c-43.333 0 -78.998 17.666 -106.998 52.999c-25.333 32.667 -38 71.334 -38 116.001c0 40 9 73.667 27 101c20.667 32.667 50 49 88 49c28 0 53.333 -7.33301 76 -22c7.33301 -4.66699 15.666 -12 24.999 -22c11.333 10.667 20 18 26 22
c22 14.667 43.667 22 65 22c62 0 101.667 -28 119 -84l52 101l51 -24l-161 -309h-63l56 120c6 10.667 10.333 24.667 13 42c0.666992 5.33301 1.66699 14.333 3 27c0 20 -7.33301 36.833 -22 50.5s-32.334 20.5 -53.001 20.5c-12.667 0 -30.667 -9.33301 -54 -28l-32 -28
c-11.333 12 -20 20.333 -26 25c-22.667 17.333 -44 26 -64 26c-44.667 0 -67 -31 -67 -93c0 -22.667 3.66699 -37.667 11 -45c6 11.333 11 19.333 15 24c15.333 16.667 36.333 25 63 25c55.333 0 83 -26.667 83 -80c0 -25.333 -8 -46.5 -24 -63.5s-36.667 -25.5 -62 -25.5z
M-508.998 1604c-28.667 0 -43 -14.333 -43 -43c0 -28 14.333 -42 43 -42s43 14 43 42c0 28.667 -14.333 43 -43 43z" />
    <glyph glyph-name="Ydieresis" unicode="&#x178;" horiz-adv-x="1118" 
d="M934 71v744.999h72v-816h-480v71h49v477c0 60.667 -22.5 110.334 -67.5 149.001s-98.5 58 -160.5 58c-104.667 0 -176.667 -39 -216 -117l83 -92v-320c18.667 6.66699 35.667 10 51 10c36.667 0 66.5 -11.333 89.5 -34s34.5 -52.334 34.5 -89.001
c0 -37.333 -11.333 -67.166 -34 -89.499s-52.667 -33.5 -90 -33.5c-36 0 -65.333 12.333 -88 37s-34 55 -34 91v412l-96 99c54 131.333 154.667 197 302 197c86.667 0 157.667 -24.667 213 -74c56.667 -51.333 85 -120 85 -206v-475h287zM265 171.999
c-40.667 0 -61 -20 -61 -60s20.333 -60 61 -60c41.333 0 62 20 62 60s-20.667 60 -62 60z" />
    <glyph glyph-name="florin" unicode="&#x192;" 
d="M-464 1229c0 -52 -10.335 -96.6709 -31.002 -134.004c-6.66699 -12 -17 -25.333 -31 -40c24.667 4.66699 44 9.33398 58 14.001c42.667 14 78.334 35.333 107.001 64c11.333 10.667 25.666 26.334 42.999 47.001c30 42.667 47.667 91 53 145l61 -17
c-7.33301 -56 -26.666 -109 -57.999 -159c-13.333 -21.333 -28.333 -40.666 -45 -57.999c-66 -68.667 -157.333 -103 -274 -103c-14 0 -25 0.666992 -33 2v62c9.33301 6.66699 17 13 23 19c17.333 16.667 30 34 38 52c-6.66699 -3.33301 -15.667 -5 -27 -5
c-32.667 0 -59.167 10.167 -79.5 30.5s-30.5 46.833 -30.5 79.5s10.167 59.334 30.5 80.001s46.833 31 79.5 31c46 0 79 -18.333 99 -55c6.66699 -12 12.334 -30.333 17.001 -55zM-580.002 1283c-36.667 0 -55 -18 -55 -54s18.333 -54 55 -54c37.333 0 56 18 56 54
s-18.667 54 -56 54z" />
    <glyph glyph-name="circumflex" unicode="&#x2c6;" 
d="M-331 1256c0 -56.667 -11.668 -106.667 -35.001 -150c-8 -14.667 -19.667 -30 -35 -46c28.667 5.33301 50.334 10.666 65.001 15.999c48.667 16.667 88.667 41.334 120 74.001c22.667 23.333 38 41 46 53c32 46.667 51 99 57 157l71 -18
c-6.66699 -50 -21 -96.333 -43 -139c-18.667 -37.333 -43.667 -71 -75 -101c-48 -46 -102 -77.667 -162 -95c-43.333 -12.667 -89 -19 -137 -19c-20 0 -32.667 0.666992 -38 2v67c10.667 8 19 15 25 21c18.667 18.667 32.667 38.667 42 60
c-4.66699 -3.33301 -14.667 -5 -30 -5c-36 0 -65.167 11.333 -87.5 34s-33.5 51.667 -33.5 87c0 36 11.167 65.333 33.5 88s51.5 34 87.5 34c50 0 86.333 -20 109 -60c7.33301 -12.667 14 -32.667 20 -60zM-460.001 1315c-40 0 -60 -20.333 -60 -61c0 -40 20 -60 60 -60
s60 20 60 60c0 40.667 -20 61 -60 61z" />
    <glyph glyph-name="tilde" unicode="&#x2dc;" 
d="M-260 1759v-309h-66v309h66z" />
    <glyph glyph-name="u0E00" unicode="&#xe00;" horiz-adv-x="211" 
 />
    <glyph glyph-name="afii59681" unicode="&#xe01;" horiz-adv-x="821" 
d="M631 0v530c0 68 -26 124 -78 168c-48.667 41.333 -107.667 62 -177 62c-117.333 0 -200.333 -46 -249 -138l96 -96v-526h-71v504l-105 106c60 144 169.667 216 329 216c94 0 171.333 -26.667 232 -80c63.333 -56 95 -130.333 95 -223v-523h-72z" />
    <glyph glyph-name="afii59682" unicode="&#xe02;" horiz-adv-x="804" 
d="M688 0l-402.002 -0.000976562v66h94v556c0 40 -11.667 72.167 -35 96.5s-54.666 36.5 -93.999 36.5c-51.333 0 -89.666 -19 -114.999 -57c10 2 22.667 3 38 3c34.667 0 63.167 -11.333 85.5 -34s33.5 -51.667 33.5 -87s-11 -63.833 -33 -85.5s-50.667 -32.5 -86 -32.5
c-41.333 0 -73.333 15 -96 45c-20.667 27.333 -31 62.333 -31 105c0 64.667 17.833 116.5 53.5 155.5s85.834 58.5 150.501 58.5c59.333 0 107.666 -19.167 144.999 -57.5s56 -87.166 56 -146.499v-556h162v752h74v-818zM173.998 635.999c-36 0 -54 -18.333 -54 -55
s18 -55 54 -55s54 18.333 54 55s-18 55 -54 55z" />
    <glyph glyph-name="afii59683" unicode="&#xe03;" horiz-adv-x="799" 
d="M376 619l72.002 63.999c-6.66699 12 -12.667 21 -18 27c-17.333 20 -37 33.333 -59 40l-78 -52l-72 50c-20.667 -4.66699 -40 -16.334 -58 -35.001c-25.333 -26.667 -38 -47 -38 -61c19.333 8.66699 38.333 13 57 13c33.333 0 61 -11.5 83 -34.5s33 -51.167 33 -84.5
c0 -35.333 -9.66699 -64.333 -29 -87c-20 -24.667 -47.333 -37 -82 -37c-82.667 0 -129.334 44.667 -140.001 134c-0.666992 5.33301 -1 9.33301 -1 12v10c0 52.667 12 98.334 36 137.001c34 54 80.333 90 139 108l72 -54l83 54c30 -12 52 -22.333 66 -31
c47.333 -29.333 76.666 -66.666 87.999 -111.999l-82 -80v-534h162v750h70v-816h-400v66h96v553zM180.002 601.999c-38.667 0 -58 -19.667 -58 -59s19.333 -59 58 -59c39.333 0 59 19.667 59 59s-19.667 59 -59 59z" />
    <glyph glyph-name="afii59684" unicode="&#xe04;" horiz-adv-x="863" 
d="M326 533c24.667 65.333 64.3311 98.001 118.998 98.001c34.667 0 63.167 -11.167 85.5 -33.5s33.5 -50.833 33.5 -85.5c0 -35.333 -11.333 -63.833 -34 -85.5s-51.667 -32.5 -87 -32.5c-26.667 0 -47.667 5 -63 15c-4 2.66699 -9.33301 8 -16 16l-174 -425h-72v504
c0 98 29.833 175.667 89.5 233s138.834 86 237.501 86c91.333 0 165.333 -31 222 -93c54 -59.333 81 -135.333 81 -228v-502h-72v499c0 63.333 -18 119 -54 167c-43.333 57.333 -102.333 86 -177 86c-77.333 0 -139.166 -21.833 -185.499 -65.5
s-69.5 -103.834 -69.5 -180.501v-332zM444.997 572.001c-38.667 0 -58 -20 -58 -60s19.333 -60 58 -60c39.333 0 59 20 59 60s-19.667 60 -59 60z" />
    <glyph glyph-name="afii59685" unicode="&#xe05;" horiz-adv-x="882" 
d="M324 523c22.667 64 62.3311 96.002 118.998 96.002c35.333 0 64.166 -11.333 86.499 -34s33.5 -51.667 33.5 -87c0 -34.667 -11.167 -63 -33.5 -85s-51.166 -33 -86.499 -33c-25.333 0 -46.666 5.66699 -63.999 17c-6 4 -12 10 -18 18l-162 -415h-72v514
c0 77.333 18.333 143 55 197c38.667 58.667 94.334 96 167.001 112l111 -78l105 78c132.667 -38.667 199 -144.334 199 -317.001v-506h-70v504c0 139.333 -44.667 219.666 -134 240.999l-100 -77l-108 80c-102 -26 -153 -102.667 -153 -230v-349zM442.997 560.002
c-38.667 0 -58 -20 -58 -60s19.333 -60 58 -60c39.333 0 59 20 59 60s-19.667 60 -59 60z" />
    <glyph glyph-name="afii59686" unicode="&#xe06;" horiz-adv-x="973" 
d="M448 214l336.002 -143.001v745h72v-816h-77l-331 143c2 -10 3 -20.333 3 -31c0 -81.333 -40.667 -122 -122 -122c-37.333 0 -67.833 12 -91.5 36s-35.5 54.667 -35.5 92s11.833 68 35.5 92s54.167 36 91.5 36c10 -0.666992 25.667 -3 47 -7v380l72 64
c-6.66699 12 -12.667 21 -18 27c-17.333 20 -37 33.333 -59 40l-78 -52l-72 50c-20.667 -4.66699 -40 -16.334 -58 -35.001c-25.333 -26.667 -38 -47 -38 -61c19.333 8.66699 38.333 13 57 13c33.333 0 61 -11.5 83 -34.5s33 -51.167 33 -84.5
c0 -35.333 -9.66699 -64.333 -29 -87c-20 -24.667 -47.333 -37 -82 -37c-82.667 0 -129.334 44.667 -140.001 134c-0.666992 5.33301 -1 9.33301 -1 12v10c0 52.667 12 98.334 36 137.001c34 54 80.333 90 139 108l72 -54l83 54c30 -12 52 -22.333 66 -31
c47.333 -29.333 76.666 -66.666 87.999 -111.999l-82 -80v-386zM329.002 51.999c31.333 0 47 14 47 42v73c-13.333 10 -29 15 -47 15c-41.333 0 -62 -21.667 -62 -65s20.667 -65 62 -65zM180.002 601.999c-38.667 0 -58 -19.667 -58 -59s19.333 -59 58 -59
c39.333 0 59 19.667 59 59s-19.667 59 -59 59z" />
    <glyph glyph-name="afii59687" unicode="&#xe07;" horiz-adv-x="644" 
d="M455 598c-6 -10.667 -22.333 -16 -49 -16c-36 0 -65.667 11.833 -89 35.5s-35 53.5 -35 89.5s11.5 64.833 34.5 86.5s52.833 32.5 89.5 32.5c80 0 120 -40 120 -120v-706h-76l-403 448l63 36l345 -383v497zM406 764c-38.667 0 -58 -19.667 -58 -59
c0 -38.667 19.333 -58 58 -58c39.333 0 59 19.333 59 58c0 39.333 -19.667 59 -59 59z" />
    <glyph glyph-name="afii59688" unicode="&#xe08;" horiz-adv-x="786" 
d="M539 152l59.002 350.003c1.33301 9.33301 2 18.666 2 27.999c0 50.667 -22.667 101 -68 151c-43.333 47.333 -102 71 -176 71c-69.333 0 -126.333 -22.333 -171 -67s-67 -101.667 -67 -171v-16c1.33301 -8 2 -13.667 2 -17h-73l8 88c32.667 169.333 134 254 304 254
c98 0 176.667 -34.333 236 -103c50.667 -58.667 76 -123.334 76 -194.001c0 -9.33301 -1 -20 -3 -32l-81 -494h-85l-75 391c-6 -4.66699 -12 -8.33398 -18 -11.001c-18 -8 -35.667 -12 -53 -12c-34.667 0 -62.834 11 -84.501 33s-32.5 50.333 -32.5 85
c0 35.333 10.667 64.333 32 87s49.666 34 84.999 34c68 0 108 -33.667 120 -101zM356.002 546.003c-40.667 0 -61 -20 -61 -60c0 -39.333 20.333 -59 61 -59c41.333 0 62 19.667 62 59c0 40 -20.667 60 -62 60z" />
    <glyph glyph-name="afii59689" unicode="&#xe09;" horiz-adv-x="809" 
d="M622 504c0 73.333 -24.002 133.5 -72.002 180.5s-108.667 70.5 -182 70.5c-135.333 0 -218 -65 -248 -195h-73c14.667 84 50.5 149.333 107.5 196s128.167 70 213.5 70c94.667 0 172.667 -30 234 -90s92 -137.333 92 -232v-272c57.333 -18 86 -56.333 86 -115
c0 -36 -11.667 -66.167 -35 -90.5s-53 -36.5 -89 -36.5c-78.667 0 -118 38 -118 114c0 9.33301 0.333008 16.333 1 21l-199 -125h-80v268c-9.33301 -5.33301 -25.666 -8 -48.999 -8c-36 0 -65.5 11.333 -88.5 34s-34.5 52 -34.5 88c0 36.667 11.333 66.167 34 88.5
s52.334 33.5 89.001 33.5c82.667 0 124 -41.333 124 -124v-314l287 168v270zM655.998 172c-38.667 0 -58 -20 -58 -60s19.333 -60 58 -60c39.333 0 59 20 59 60s-19.667 60 -59 60zM210.998 443c-39.333 0 -59 -20.333 -59 -61c0 -40 19.667 -60 59 -60s59 20 59 60
c0 40.667 -19.667 61 -59 61z" />
    <glyph glyph-name="afii59690" unicode="&#xe0a;" horiz-adv-x="804" 
d="M722 902l49.998 -46.001l-153 -148c46 -30 69 -82.333 69 -157v-551h-402v66h94v556c0 40 -11.667 72.167 -35 96.5s-54.666 36.5 -93.999 36.5c-51.333 0 -89.666 -19 -114.999 -57c10 2 22.667 3 38 3c34.667 0 63.167 -11.333 85.5 -34s33.5 -51.667 33.5 -87
s-11 -63.833 -33 -85.5s-50.667 -32.5 -86 -32.5c-41.333 0 -73.333 15 -96 45c-20.667 27.333 -31 62.333 -31 105c0 64.667 17.833 116.5 53.5 155.5s85.834 58.5 150.501 58.5c59.333 0 107.666 -19.167 144.999 -57.5s56 -87.166 56 -146.499v-556h162v478
c0 82.667 -32 135.667 -96 159zM173.998 635.999c-36 0 -54 -18.333 -54 -55s18 -55 54 -55s54 18.333 54 55s-18 55 -54 55z" />
    <glyph glyph-name="afii59691" unicode="&#xe0b;" horiz-adv-x="814" 
d="M742 905l46 -49.002l-166 -148c49.333 -68 74 -138.333 74 -211v-497h-419v66h96v452c0 34.667 15.667 66.667 47 96l98 92c-12.667 8.66699 -23 15.334 -31 20.001c-25.333 14.667 -48.333 23.334 -69 26.001l-94 -58l-90 54c-24.667 -8 -46 -21.667 -64 -41
c-13.333 -14.667 -20 -25 -20 -31c4 0.666992 10 1 18 1c34 0 61.333 -11.167 82 -33.5s31 -50.5 31 -84.5c0 -34.667 -10.5 -62.667 -31.5 -84s-48.5 -32 -82.5 -32c-80 0 -120 43 -120 129c0 69.333 26 131 78 185c42.667 44 78.334 66 107.001 66l92 -59l91 59
c30 -3.33301 54 -8.33301 72 -15c29.333 -10.667 57.666 -27.667 84.999 -51zM476 574.998c-20.667 -14.667 -31 -37.667 -31 -69v-440h179v424c0 60 -18.667 116.333 -56 169zM167 621.998c-39.333 0 -59 -20 -59 -60s19.667 -60 59 -60s59 20 59 60s-19.667 60 -59 60z
" />
    <glyph glyph-name="afii59692" unicode="&#xe0c;" horiz-adv-x="1180" 
d="M703 185l287 -114.001v747h72v-818h-72l-287 108c0 -33.333 -10 -61.333 -30 -84s-46.667 -34 -80 -34c-76.667 0 -115 36.667 -115 110c0 34 10.667 62.167 32 84.5s49 33.5 83 33.5c6 0 18.667 -2.33301 38 -7v333c0 66.667 -26.333 120.334 -79 161.001
c-48 36.667 -106.667 55 -176 55c-117.333 0 -200.333 -46 -249 -138l96 -96v-300c16.667 6.66699 34 10 52 10c37.333 0 67.5 -11.333 90.5 -34s34.5 -52.667 34.5 -90c0 -36.667 -11.667 -66.167 -35 -88.5s-53.333 -33.5 -90 -33.5c-36 0 -65.5 11.5 -88.5 34.5
s-34.5 52.5 -34.5 88.5v391l-105 106c60 144 169.667 216 329 216c94.667 0 171.667 -24.667 231 -74c64 -53.333 96 -126.333 96 -219v-348zM590 55.999c12 -1.33301 22.167 1.16699 30.5 7.5s11.833 15.5 10.5 27.5v52c-8 9.33301 -21.667 14 -41 14
c-32 0 -48 -17.333 -48 -52c0 -32.667 16 -49 48 -49zM275 171.999c-39.333 0 -59 -20 -59 -60s19.667 -60 59 -60s59 20 59 60s-19.667 60 -59 60z" />
    <glyph glyph-name="afii59693" unicode="&#xe0d;" horiz-adv-x="1123" 
d="M934 71l-0.000976562 745h72v-816h-480v71h49v482c0 60 -23.333 109.333 -70 148c-44 36 -96.667 54 -158 54c-104.667 0 -176.667 -39 -216 -117l83 -92v-320c18.667 6.66699 35.667 10 51 10c36.667 0 66.5 -11.333 89.5 -34s34.5 -52.334 34.5 -89.001
c0 -37.333 -11.333 -67.166 -34 -89.499s-52.667 -33.5 -90 -33.5c-36 0 -65.333 12.333 -88 37s-34 55 -34 91v412l-96 99c54 131.333 154.667 197 302 197c86.667 0 157.334 -24 212.001 -72c57.333 -50 86 -117.667 86 -203v-480h287zM862.999 -290
c-48.667 -24 -99.334 -36.001 -152.001 -36.001c-19.333 0 -40.666 1.33301 -63.999 4c-82.667 9.33301 -124 51.333 -124 126c0 36 11.667 65.833 35 89.5s53 35.5 89 35.5c81.333 0 122 -41 122 -123c0 -15.333 -4.33301 -34 -13 -56
c-1.33301 -3.33301 -3.33301 -7.66602 -6 -12.999c74.667 11.333 126.667 46.666 156 105.999c9.33301 18.667 17 47.334 23 86.001h74c-6 -37.333 -13 -65.666 -21 -84.999c-25.333 -62.667 -65 -107.334 -119 -134.001zM646.999 -136.001c-38.667 0 -58 -20 -58 -60
s19.333 -60 58 -60c39.333 0 59 20 59 60s-19.667 60 -59 60zM264.999 171.999c-40.667 0 -61 -20 -61 -60s20.333 -60 61 -60c41.333 0 62 20 62 60s-20.667 60 -62 60z" />
    <glyph glyph-name="afii59694" unicode="&#xe0e;" horiz-adv-x="887" 
d="M701 -260l0.00292969 790c-6.66699 68.667 -33.834 124.167 -81.501 166.5s-105.834 63.5 -174.501 63.5c-118.667 0 -201.334 -46 -248.001 -138l96 -96v-408c0 -38 -11.167 -68.833 -33.5 -92.5s-52.5 -35.5 -90.5 -35.5c-36.667 0 -66.5 11.167 -89.5 33.5
s-34.5 51.833 -34.5 88.5c0 36 11.5 65.667 34.5 89s52.833 35 89.5 35c23.333 0 39.666 -3.33301 48.999 -10v278l-105 106c60 144 170.667 216 332 216c93.333 0 170.666 -26.667 231.999 -80c63.333 -56 95 -130.333 95 -223v-791l-190 -189l-122 86l-59 -54
c-6.66699 -6 -14 -11.333 -22 -16c-18.667 -10.667 -37.667 -16 -57 -16c-36 0 -65.5 11.333 -88.5 34s-34.5 52 -34.5 88c0 36.667 11.333 66.5 34 89.5s52.334 34.5 89.001 34.5c18 0 34.667 -3.66699 50 -11c4.66699 -2 10.334 -6 17.001 -12l71 -61l91 86l42 -42
l-89 -84l68 -51zM169.003 52c40 0 60 20 60 60s-20 60 -60 60s-60 -20 -60 -60s20 -60 60 -60zM413.003 -335l-54 45c-1.33301 2 -2.33301 3.33301 -3 4c-8 7.33301 -19.333 11 -34 11c-38.667 0 -58 -20 -58 -60c0 -39.333 19.333 -59 58 -59c14 0 27 6 39 18z" />
    <glyph glyph-name="afii59695" unicode="&#xe0f;" horiz-adv-x="887" 
d="M772 -317l-107.995 -140l-108 84l-96 -84l-104 86l-58 -54c-6.66699 -6 -14 -11.333 -22 -16c-18.667 -10.667 -38 -16 -58 -16c-81.333 0 -122 40.333 -122 121c0 36 11.333 65.833 34 89.5s52 35.5 88 35.5c18.667 0 36 -3.66699 52 -11
c6.66699 -2.66699 12.667 -6.66699 18 -12l68 -61l92 86l42 -42l-89 -84l59 -45l96 82l100 -78l45 64v842c-6.66699 68.667 -33.834 124.167 -81.501 166.5s-105.834 63.5 -174.501 63.5c-118.667 0 -201.334 -46 -248.001 -138l96 -96v-408
c0 -38 -11.167 -68.833 -33.5 -92.5s-52.5 -35.5 -90.5 -35.5c-36.667 0 -66.5 11.167 -89.5 33.5s-34.5 51.833 -34.5 88.5c0 36 11.5 65.667 34.5 89s52.833 35 89.5 35c23.333 0 39.666 -3.33301 48.999 -10v278l-105 106c60 144 170.667 216 332 216
c93.333 0 170.666 -26.667 231.999 -80c63.333 -56 95 -130.333 95 -223v-840zM310.005 -335l-52.001 45c-1.33301 2 -2.66602 3.33301 -3.99902 4c-9.33301 7.33301 -21.333 11 -36 11c-38.667 0 -58 -20 -58 -60c0 -39.333 19.333 -59 58 -59c14 0 26 4 36 12l6 6z
M169.004 52c40 0 60 20 60 60s-20 60 -60 60s-60 -20 -60 -60s20 -60 60 -60z" />
    <glyph glyph-name="afii59696" unicode="&#xe10;" horiz-adv-x="706" 
d="M54 502c0 92.667 28.1641 169.668 84.4971 231.001s130.166 92 221.499 92c76.667 0 141.334 -23.167 194.001 -69.5s84.334 -107.5 95.001 -183.5h-74c-5.33301 40 -22.666 76.667 -51.999 110c-41.333 46.667 -97.666 70 -168.999 70
c-54.667 0 -103.5 -16.667 -146.5 -50s-68.5 -76.666 -76.5 -129.999h279c33.333 0 62 -8.33301 86 -25c26 -18.667 39 -44.334 39 -77.001c0 -4 -0.666992 -10 -2 -18l-73 -452h-71l-82 218c-9.33301 -6 -16.333 -10.333 -21 -13c-18 -8.66699 -36 -13 -54 -13
c-35.333 0 -64.333 10.833 -87 32.5s-34 50.167 -34 85.5s11.333 64.166 34 86.499s51.667 33.5 87 33.5c30.667 0 56 -10.333 76 -31s34.667 -45.667 44 -75l58 -184l52 303c6.66699 39.333 -13 59 -59 59h-349zM532.997 -189.999l-0.000976562 -164l-103 -110l-66 46
l-54 -46l-89 73l-45 -43c-4 -4 -9.66699 -9 -17 -15c-14.667 -10 -31.667 -15 -51 -15c-32 0 -57.833 10.333 -77.5 31s-29.5 47 -29.5 79s9.83301 58.333 29.5 79s45.5 31 77.5 31c16.667 0 31.334 -3 44.001 -9c4 -2 9 -5.33301 15 -10l51 -49l38 35l42 -40l-38 -37
l50 -40l54 47l58 -47l45 47v52c-2 -1.33301 -3.66699 -2 -5 -2c-10 -3.33301 -22.333 -5 -37 -5c-32 0 -58.167 10.333 -78.5 31s-30.5 47 -30.5 79c0 32.667 10 59.167 30 79.5s46.333 30.5 79 30.5c72 0 108 -36 108 -108zM184.996 -351.999l-42 38.001
c-7.33301 9.33301 -19 14 -35 14c-35.333 0 -53 -18 -53 -54s17.667 -54 53 -54c10.667 0 19.667 2.33301 27 7c2 1.33301 4.66699 3.66602 8 6.99902zM424.996 -137.998c-36 0 -54 -18 -54 -54s18 -54 54 -54s54 18 54 54s-18 54 -54 54zM231.996 368.002
c-38.667 0 -58 -19.667 -58 -59c0 -38.667 19.333 -58 58 -58c39.333 0 59 19.333 59 58c0 39.333 -19.667 59 -59 59z" />
    <glyph glyph-name="afii59697" unicode="&#xe11;" horiz-adv-x="1044" 
d="M376 619l72.001 63.999c-6.66699 12 -12.667 21 -18 27c-17.333 20 -37 33.333 -59 40l-78 -52l-72 50c-20.667 -4.66699 -40 -16.334 -58 -35.001c-25.333 -26.667 -38 -47 -38 -61c19.333 8.66699 38.333 13 57 13c33.333 0 61 -11.5 83 -34.5s33 -51.167 33 -84.5
c0 -35.333 -9.66699 -64.333 -29 -87c-20 -24.667 -47.333 -37 -82 -37c-82.667 0 -129.334 44.667 -140.001 134c-0.666992 5.33301 -1 9.33301 -1 12v10c0 52.667 12 98.334 36 137.001c34 54 80.333 90 139 108l72 -54l83 54c30 -12 52 -22.333 66 -31
c47.333 -29.333 76.666 -66.666 87.999 -111.999l-82 -80v-413l166 514c26.667 83.333 79.334 125 158.001 125c47.333 0 84.833 -14.5 112.5 -43.5s41.5 -67.167 41.5 -114.5v-668h-70v668c0 59.333 -29 89 -87 89c-42.667 0 -70.667 -19.667 -84 -59l-233 -698h-76v619z
M180.001 601.999c-38.667 0 -58 -19.667 -58 -59s19.333 -59 58 -59c39.333 0 59 19.667 59 59s-19.667 59 -59 59z" />
    <glyph glyph-name="afii59698" unicode="&#xe12;" horiz-adv-x="1219" 
d="M420 394c-72.667 0 -109.001 37.666 -109.001 112.999c0 35.333 11 64.833 33 88.5s50.667 35.5 86 35.5c36.667 0 66.834 -12 90.501 -36s35.5 -54.333 35.5 -91c0 -24.667 -7 -46 -21 -64l-338 -440h-79v526c0 156.667 67 256.667 201 300l113 -69l116 69
c129.333 -39.333 194 -139.333 194 -300v-324l288 -131v745h72v-816h-77l-283 131c1.33301 -9.33301 2 -18.666 2 -27.999c0 -75.333 -39.333 -113 -118 -113c-36.667 0 -66.334 11.5 -89.001 34.5s-34 52.833 -34 89.5s11.333 66.167 34 88.5s52.334 33.5 89.001 33.5
c10 -0.666992 25 -3.33398 45 -8.00098v298c0 110 -44 185.333 -132 226l-107 -72l-110 72c-88 -49.333 -132 -124.666 -132 -225.999v-430zM625.999 51.999c30 0 45 14 45 42v63c-12 10 -27 15 -45 15c-39.333 0 -59 -20.333 -59 -61c0 -39.333 19.667 -59 59 -59z
M429.999 571.999c-40.667 0 -61 -20 -61 -60s20.333 -60 61 -60s61 20 61 60s-20.333 60 -61 60z" />
    <glyph glyph-name="afii59699" unicode="&#xe13;" horiz-adv-x="1123" 
d="M265 236c36.667 0 66.498 -11.334 89.498 -34.001s34.5 -52.334 34.5 -89.001c0 -37.333 -11.333 -67.166 -34 -89.499s-52.667 -33.5 -90 -33.5c-36 0 -65.333 12.333 -88 37s-34 55 -34 91v412l-96 99c54 131.333 154.667 197 302 197
c86.667 0 157.334 -24 212.001 -72c57.333 -50 86 -117.667 86 -203v-475l287 160v580h72v-584c58 -14 87 -54.333 87 -121c0 -80.667 -40.667 -121 -122 -121c-35.333 0 -65.166 11.833 -89.499 35.5s-34.5 52.834 -30.5 87.501l-204 -113h-72v553
c0 60 -23.333 109.333 -70 148c-44 36 -96.667 54 -158 54c-104.667 0 -176.667 -39 -216 -117l83 -92v-320c18.667 6.66699 35.667 10 51 10zM264.998 171.999c-40.667 0 -61 -20 -61 -60s20.333 -60 61 -60c41.333 0 62 20 62 60s-20.667 60 -62 60zM970.998 171.999
c-38.667 0 -58 -20 -58 -60s19.333 -60 58 -60c39.333 0 59 20 59 60s-19.667 60 -59 60z" />
    <glyph glyph-name="afii59700" unicode="&#xe14;" horiz-adv-x="858" 
d="M190 506v-412l220 302c-70 0 -105 38.333 -105 115c0 36 10.5 65.5 31.5 88.5s49.5 34.5 85.5 34.5c37.333 0 68 -11.5 92 -34.5s36 -53.167 36 -90.5c0 -28 -7.33301 -51.667 -22 -71l-329 -438h-81v506c0 91.333 27.667 167 83 227s128.333 90 219 90
c101.333 0 180.333 -29.333 237 -88s85 -139 85 -241v-494h-74v494c0 172 -83.333 258 -250 258c-69.333 0 -125.333 -24 -168 -72c-40 -45.333 -60 -103.333 -60 -174zM427 572c-39.333 0 -59 -20 -59 -60s19.667 -60 59 -60s59 20 59 60s-19.667 60 -59 60z" />
    <glyph glyph-name="afii59701" unicode="&#xe15;" horiz-adv-x="872" 
d="M190 506v-408.003l232 293c-66.667 0 -100 38 -100 114c0 36 10.667 65.667 32 89s50 35 86 35c37.333 0 68.166 -12 92.499 -36s36.5 -54.333 36.5 -91c0 -27.333 -7.66699 -50.666 -23 -69.999l-347 -432h-81v506c0 88.667 10 153.334 30 194.001
c29.333 59.333 86.333 101.333 171 126l129 -81l129 81c80.667 -24 133 -65.667 157 -125c15.333 -38 23 -103 23 -195v-506h-72v552c0 52.667 -5.33301 90.334 -16 113.001c-16 34.667 -49.667 63 -101 85l-120 -82l-126 82c-59.333 -25.333 -97.666 -59.333 -114.999 -102
c-11.333 -28 -17 -75.333 -17 -142zM443 567.997c-38.667 0 -58 -20 -58 -60s19.333 -60 58 -60c39.333 0 59 20 59 60s-19.667 60 -59 60z" />
    <glyph glyph-name="afii59702" unicode="&#xe16;" horiz-adv-x="821" 
d="M223 226c17.333 6.66699 34.667 9.99805 52 9.99805c36 0 65.5 -11.5 88.5 -34.5s34.5 -52.5 34.5 -88.5s-11.333 -65.5 -34 -88.5s-52.334 -34.5 -89.001 -34.5s-66.334 11.333 -89.001 34s-34 52.334 -34 89.001v391l-105 106c60 144 169.667 216 329 216
c94.667 0 172.334 -27.333 233.001 -82c62.667 -57.333 94 -132.666 94 -225.999v-518h-72v526c0 68 -25.667 124.667 -77 170c-49.333 42.667 -108.666 64 -177.999 64c-117.333 0 -200.333 -46 -249 -138l96 -96v-300zM275.001 171.998c-39.333 0 -59 -20 -59 -60
s19.667 -60 59 -60s59 20 59 60s-19.667 60 -59 60z" />
    <glyph glyph-name="afii59703" unicode="&#xe17;" horiz-adv-x="884" 
d="M295 0h-77v593c-10.667 -7.33301 -27.667 -11 -51 -11c-36.667 0 -66.5 11.333 -89.5 34s-34.5 52 -34.5 88s11.667 65.333 35 88s53 34 89 34c82 0 123 -40 123 -120v-519l167 514c27.333 83.333 79 125 155 125c48 0 86.167 -14.333 114.5 -43s42.5 -67 42.5 -115v-668
h-71v668c0 59.333 -28.667 89 -86 89c-42.667 0 -70.667 -19.667 -84 -59zM167 764c-39.333 0 -59 -20 -59 -60s19.667 -60 59 -60s59 20 59 60s-19.667 60 -59 60z" />
    <glyph glyph-name="afii59704" unicode="&#xe18;" horiz-adv-x="725" 
d="M556 0l-438.001 -0.000976562v66h74v408h-133c0 101.333 26.667 184.333 80 249c57.333 69.333 135.333 104 234 104c75.333 0 140.333 -21.667 195 -65c56 -45.333 89.333 -104.666 100 -177.999h-70c-27.333 115.333 -104 173 -230 173
c-75.333 0 -134.666 -25 -177.999 -75c-34 -39.333 -53.667 -86.333 -59 -141h425v-541zM483.999 473.999h-221v-408h221v408z" />
    <glyph glyph-name="afii59705" unicode="&#xe19;" horiz-adv-x="880" 
d="M595 148l-300.001 -147.999h-77v593c-10.667 -7.33301 -27.667 -11 -51 -11c-36.667 0 -66.5 11.333 -89.5 34s-34.5 52 -34.5 88s11.667 65.333 35 88s53 34 89 34c82 0 123 -40 123 -120v-640l386 182v568h72v-570c60.667 -18 91 -60 91 -126
c0 -37.333 -11.667 -68.333 -35 -93s-53.666 -37 -90.999 -37s-66.833 11.667 -88.5 35s-32.5 53.666 -32.5 90.999c0 10 1 20.667 3 32zM712.999 182.001c-42.667 0 -64 -21.667 -64 -65s21.333 -65 64 -65c43.333 0 65 21.667 65 65s-21.667 65 -65 65zM166.999 764.001
c-39.333 0 -59 -20 -59 -60s19.667 -60 59 -60s59 20 59 60s-19.667 60 -59 60z" />
    <glyph glyph-name="afii59706" unicode="&#xe1a;" horiz-adv-x="884" 
d="M122 0v68h96v525c-10.667 -7.33301 -27.667 -11 -51 -11c-36.667 0 -66.5 11.333 -89.5 34s-34.5 52 -34.5 88s11.667 65.333 35 88s53 34 89 34c82 0 123 -40 123 -120v-640h408v750h71v-816h-647zM167 764c-39.333 0 -59 -20 -59 -60s19.667 -60 59 -60s59 20 59 60
s-19.667 60 -59 60z" />
    <glyph glyph-name="afii59707" unicode="&#xe1b;" horiz-adv-x="884" 
d="M122 0v68h96v525c-10.667 -7.33301 -27.667 -11 -51 -11c-36.667 0 -66.5 11.333 -89.5 34s-34.5 52 -34.5 88s11.667 65.333 35 88s53 34 89 34c82 0 123 -40 123 -120v-640h408v1195h71v-1261h-647zM167 764c-39.333 0 -59 -20 -59 -60s19.667 -60 59 -60s59 20 59 60
s-19.667 60 -59 60z" />
    <glyph glyph-name="afii59708" unicode="&#xe1c;" horiz-adv-x="838" 
d="M194 0l-76.001 -0.000976562v706c0 36.667 11.333 65.834 34 87.501s52.334 32.5 89.001 32.5c36 0 65.5 -11 88.5 -33s34.5 -51 34.5 -87s-11.5 -65.667 -34.5 -89s-52.5 -35 -88.5 -35c-18 0 -32 2.66699 -42 8c-2.66699 1.33301 -5.66699 4 -9 8v-502l230 265
l232 -265v720h70v-816h-75l-227 265zM240.999 643.999c40.667 0 61 20 61 60s-20.333 60 -61 60s-61 -20 -61 -60s20.333 -60 61 -60z" />
    <glyph glyph-name="afii59709" unicode="&#xe1d;" horiz-adv-x="838" 
d="M194 0l-76.001 -0.000976562v706c0 36.667 11.333 65.834 34 87.501s52.334 32.5 89.001 32.5c36 0 65.5 -11 88.5 -33s34.5 -51 34.5 -87s-11.5 -65.667 -34.5 -89s-52.5 -35 -88.5 -35c-18 0 -32 2.66699 -42 8c-2.66699 1.33301 -5.66699 4 -9 8v-502l230 265
l232 -265v1165h70v-1261h-75l-227 265zM240.999 643.999c40.667 0 61 20 61 60s-20.333 60 -61 60s-61 -20 -61 -60s20.333 -60 61 -60z" />
    <glyph glyph-name="afii59710" unicode="&#xe1e;" horiz-adv-x="938" 
d="M745 0l-227 715l-223 -715h-77v593c-10.667 -7.33301 -27.667 -11 -51 -11c-36.667 0 -66.5 11.333 -89.5 34s-34.5 52 -34.5 88s11.667 65.333 35 88s53 34 89 34c82 0 123 -40 123 -120v-519l202 631h56l202 -631v629h71v-816h-76zM167 764c-39.333 0 -59 -20 -59 -60
s19.667 -60 59 -60s59 20 59 60s-19.667 60 -59 60z" />
    <glyph glyph-name="afii59711" unicode="&#xe1f;" horiz-adv-x="938" 
d="M745 0l-227 715l-223 -715h-77v593c-10.667 -7.33301 -27.667 -11 -51 -11c-36.667 0 -66.5 11.333 -89.5 34s-34.5 52 -34.5 88s11.667 65.333 35 88s53 34 89 34c82 0 123 -40 123 -120v-519l202 631h56l202 -631v1074h71v-1261h-76zM167 764
c-39.333 0 -59 -20 -59 -60s19.667 -60 59 -60s59 20 59 60s-19.667 60 -59 60z" />
    <glyph glyph-name="afii59712" unicode="&#xe20;" horiz-adv-x="887" 
d="M293 118c0 -38 -11.168 -68.834 -33.501 -92.501s-52.5 -35.5 -90.5 -35.5c-36 0 -65.5 11.5 -88.5 34.5s-34.5 52.5 -34.5 88.5s11.333 65.5 34 88.5s52.334 34.5 89.001 34.5c22.667 0 39 -3.33301 49 -10v278l-105 106c60 144 170.667 216 332 216
c94 0 171.333 -27.667 232 -83c63.333 -57.333 95 -132.333 95 -225v-518h-71v526c-6.66699 68.667 -33.667 124.834 -81 168.501s-105.666 65.5 -174.999 65.5c-118.667 0 -201.334 -46 -248.001 -138l96 -96v-408zM168.999 51.999c40 0 60 20 60 60s-20 60 -60 60
s-60 -20 -60 -60s20 -60 60 -60z" />
    <glyph glyph-name="afii59713" unicode="&#xe21;" horiz-adv-x="870" 
d="M310 218l369.997 -147.002v745h75v-816h-79l-366 148c2 -10 3 -20.333 3 -31c0 -37.333 -11 -67.833 -33 -91.5s-51.333 -35.5 -88 -35.5c-39.333 0 -71.166 12.333 -95.499 37s-36.5 56.334 -36.5 95.001s12.333 69.834 37 93.501s56.334 35.5 95.001 35.5
c18 0 33.667 -2.33301 47 -7v349c-11.333 -7.33301 -28.666 -11 -51.999 -11c-35.333 0 -64.5 11.5 -87.5 34.5s-34.5 52.167 -34.5 87.5c0 36 11.167 65.333 33.5 88s51.833 34 88.5 34c82 0 123 -40 123 -120v-488zM191.997 51.998c31.333 0 47 14 47 42v73
c-14 10 -29.667 15 -47 15c-44 0 -66 -22.333 -66 -67c0 -42 22 -63 66 -63zM186.997 763.998c-40.667 0 -61 -20 -61 -60s20.333 -60 61 -60s61 20 61 60s-20.333 60 -61 60z" />
    <glyph glyph-name="afii59714" unicode="&#xe22;" horiz-adv-x="786" 
d="M190 268l-0.000976562 -202h408v750h70v-816h-550v268c0 53.333 9.66699 94.333 29 123c6.66699 9.33301 16.334 18.333 29.001 27c-73.333 24 -110 92 -110 204c0 59.333 22 108.666 66 147.999c42.667 37.333 94 56 154 56c36.667 0 66.167 -11 88.5 -33
s33.5 -51 33.5 -87s-11.333 -65.667 -34 -89s-52 -35 -88 -35c-48.667 0 -84 18.667 -106 56c-6.66699 11.333 -12.667 30 -18 56c-11.333 -20.667 -18.666 -42 -21.999 -64c-1.33301 -8 -2 -17.333 -2 -28c-0.666992 -41.333 12.833 -75 40.5 -101s62.5 -39 104.5 -39h115
v-71h-140c-10 0 -19.667 -3.66699 -29 -11c-2.66699 -2 -6.33398 -6 -11.001 -12c-18.667 -17.333 -28 -50.666 -28 -99.999zM285.999 764c-38.667 0 -58 -20 -58 -60s19.333 -60 58 -60c39.333 0 59 20 59 60s-19.667 60 -59 60z" />
    <glyph glyph-name="afii59715" unicode="&#xe23;" horiz-adv-x="652" 
d="M356 504l-308.999 0.00292969c0 92 24.667 168 74 228c52.667 64 124 96 214 96c74.667 0 136.667 -23.667 186 -71s74 -108 74 -182h-72c0 51.333 -20.667 94.666 -62 129.999c-38.667 33.333 -84.334 50 -137.001 50c-55.333 0 -101.833 -16.333 -139.5 -49
s-59.167 -76.334 -64.5 -131.001h310v-462c0 -34.667 -11.833 -63.834 -35.5 -87.501s-52.834 -35.5 -87.501 -35.5c-36 0 -65.5 11.5 -88.5 34.5s-34.5 52.5 -34.5 88.5s11.333 65.5 34 88.5s52.334 34.5 89.001 34.5c24 0 40.333 -5 49 -15v283zM307.001 172.003
c-39.333 0 -59 -20 -59 -60s19.667 -60 59 -60s59 20 59 60s-19.667 60 -59 60z" />
    <glyph glyph-name="afii59716" unicode="&#xe24;" horiz-adv-x="821" 
d="M223 226c17.333 6.66699 34.6689 9.99902 52.002 9.99902c36 0 65.5 -11.5 88.5 -34.5s34.5 -52.5 34.5 -88.5s-11.333 -65.5 -34 -88.5s-52.334 -34.5 -89.001 -34.5s-66.334 11.333 -89.001 34s-34 52.334 -34 89.001v391l-105 106c60 144 169.667 216 329 216
c94 0 171.333 -26.667 232 -80c63.333 -56 95 -130.333 95 -223v-980h-72v987c0 68 -26 124 -78 168c-48.667 41.333 -107.667 62 -177 62c-117.333 0 -200.333 -46 -249 -138l96 -96v-300zM275.003 171.999c-39.333 0 -59 -20 -59 -60s19.667 -60 59 -60s59 20 59 60
s-19.667 60 -59 60z" />
    <glyph glyph-name="afii59717" unicode="&#xe25;" horiz-adv-x="811" 
d="M376 755c-74.667 0 -135.668 -23.168 -183.001 -69.501s-71 -106.833 -71 -181.5h-70c0 94.667 30.333 172 91 232s138.334 90 233.001 90c86.667 0 161 -28 223 -84c63.333 -58 95 -130 95 -216v-526h-72v211c0 164 -80.667 246 -242 246
c-44 0 -84.667 -15.667 -122 -47s-56 -68.666 -56 -111.999v-72c4.66699 2.66699 8.66699 4.33398 12 5.00098c11.333 3.33301 24.333 5 39 5c36 0 65.5 -11.333 88.5 -34s34.5 -52 34.5 -88s-11.5 -65.667 -34.5 -89s-52.5 -35 -88.5 -35c-81.333 0 -122 41 -122 123v175
c0 70 24 127.167 72 171.5s107 66.5 177 66.5c80.667 0 144.667 -17.333 192 -52c12 -8.66699 28.667 -27.334 50 -56.001v108c0 65.333 -25 120.333 -75 165c-47.333 42.667 -104.333 64 -171 64zM252.999 171.999c-40.667 0 -61 -20 -61 -60s20.333 -60 61 -60
c41.333 0 62 20 62 60s-20.667 60 -62 60z" />
    <glyph glyph-name="afii59718" unicode="&#xe26;" horiz-adv-x="887" 
d="M293 118c0 -38 -11.1641 -68.833 -33.4971 -92.5s-52.5 -35.5 -90.5 -35.5c-36 0 -65.5 11.5 -88.5 34.5s-34.5 52.5 -34.5 88.5s11.333 65.5 34 88.5s52.334 34.5 89.001 34.5c22.667 0 39 -3.33301 49 -10v278l-105 106c60 144 170.667 216 332 216
c93.333 0 170.666 -26.667 231.999 -80c63.333 -56 95 -130.333 95 -223v-980h-71v987c-6.66699 68.667 -33.834 124.167 -81.501 166.5s-105.834 63.5 -174.501 63.5c-118.667 0 -201.334 -46 -248.001 -138l96 -96v-408zM169.003 52c40 0 60 20 60 60s-20 60 -60 60
s-60 -20 -60 -60s20 -60 60 -60z" />
    <glyph glyph-name="afii59719" unicode="&#xe27;" horiz-adv-x="694" 
d="M452 -10c-36 0 -65.335 11.668 -88.002 35.001s-34 53 -34 89c0 36.667 11.167 66.167 33.5 88.5s51.833 33.5 88.5 33.5c16.667 0 30.334 -2.33301 41.001 -7c3.33301 -1.33301 7 -4 11 -8v342c0 55.333 -18.167 101.166 -54.5 137.499s-82.166 54.5 -137.499 54.5
c-58 0 -104.833 -18 -140.5 -54s-53.5 -83 -53.5 -141h-71c0 78 24.667 141.833 74 191.5s113 74.5 191 74.5c78.667 0 142.167 -24.167 190.5 -72.5s72.5 -111.833 72.5 -190.5v-450c0 -36 -11.5 -65.5 -34.5 -88.5s-52.5 -34.5 -88.5 -34.5zM451.998 172.001
c-38.667 0 -58 -20 -58 -60s19.333 -60 58 -60c39.333 0 59 20 59 60s-19.667 60 -59 60z" />
    <glyph glyph-name="afii59720" unicode="&#xe28;" horiz-adv-x="870" 
d="M127 504c0 92 28.833 168.169 86.5 228.502s132.5 90.5 224.5 90.5c70.667 0 129.667 -14 177 -42c14.667 -8.66699 31.667 -22.667 51 -42c21.333 27.333 35.333 60.666 42 99.999c2 10.667 3.66699 28.334 5 53.001h71c-0.666992 -20 -1.66699 -34 -3 -42
c-9.33301 -64.667 -33 -118.667 -71 -162c10 -16 17.333 -30.333 22 -43c15.333 -40.667 23 -87 23 -139v-506h-75v504c0 37.333 -4 69.666 -12 96.999c-2.66699 8 -6.66699 18 -12 30c-18 -18.667 -43.667 -34.334 -77 -47.001c-8 -3.33301 -23.333 -8 -46 -14
c15.333 -10.667 23 -33.667 23 -69c0 -80.667 -40.667 -121 -122 -121c-25.333 0 -46.333 5.66699 -63 17c-6 4 -11.667 10 -17 18l-143 -415h-84v504zM434 560.002c-40.667 0 -61 -20 -61 -60s20.333 -60 61 -60c41.333 0 62 20 62 60s-20.667 60 -62 60zM317 523.002
c20.667 64 59.668 96 117.001 96c51.333 0 97 10 137 30c13.333 6.66699 28.666 17 45.999 31c-16.667 16.667 -31 28.667 -43 36c-39.333 24 -86 36 -140 36c-70 0 -126.667 -23.667 -170 -71s-65 -106.333 -65 -177v-349z" />
    <glyph glyph-name="afii59721" unicode="&#xe29;" horiz-adv-x="898" 
d="M698 816l70.999 0.000976562v-408c35.333 22 64.333 51 87 87c6.66699 11.333 14.667 27.666 24 48.999l56 -40c-14.667 -26.667 -28 -48 -40 -64c-36.667 -47.333 -79 -82.333 -127 -105v-335h-647v68h96v525c-10.667 -7.33301 -27.667 -11 -51 -11
c-36.667 0 -66.5 11.333 -89.5 34s-34.5 52 -34.5 88s11.667 65.333 35 88s53 34 89 34c82 0 123 -40 123 -120v-640h408v241c-36 -8.66699 -74 -13 -114 -13c-27.333 0 -54.666 2.66699 -81.999 8c-82.667 16 -124 59 -124 129c0 35.333 11.833 64.5 35.5 87.5
s53.167 34.5 88.5 34.5c32.667 0 61.167 -10 85.5 -30s36.5 -46 36.5 -78c0 -26 -3 -48 -9 -66c-2 -6 -5.33301 -12.667 -10 -20c31.333 0 62.333 5.66699 93 17v440zM501.999 490.001c-40 0 -60 -20.333 -60 -61s20 -61 60 -61s60 20.333 60 61s-20 61 -60 61z
M166.999 764.001c-39.333 0 -59 -20 -59 -60s19.667 -60 59 -60s59 20 59 60s-19.667 60 -59 60z" />
    <glyph glyph-name="afii59722" unicode="&#xe2a;" horiz-adv-x="811" 
d="M694 526l-0.000976562 -525.997h-72v202c0 79.333 -20.667 142.166 -62 188.499s-101.333 69.5 -180 69.5c-44.667 0 -85 -15.667 -121 -47c-38 -32.667 -57 -71 -57 -115v-72c4.66699 2.66699 8.66699 4.33398 12 5.00098c11.333 3.33301 24.333 5 39 5
c36 0 65.5 -11.333 88.5 -34s34.5 -52 34.5 -88s-11.5 -65.667 -34.5 -89s-52.5 -35 -88.5 -35c-81.333 0 -122 41 -122 123v175c0 63.333 22 117.333 66 162c38.667 39.333 84.667 63.666 138 72.999c36 6.66699 74.667 28.667 116 66c36 33.333 62.333 72.333 79 117
c-15.333 10.667 -28.666 18.667 -39.999 24c-36 16.667 -74 25 -114 25c-77.333 0 -139 -22.5 -185 -67.5s-69 -106.167 -69 -183.5h-70c0 96 30 173.667 90 233s138 89 234 89c47.333 0 91 -7.33301 131 -22c14 -5.33301 29.333 -13 46 -23c5.33301 22.667 8 45 8 67
c0 11.333 -1.66699 26.666 -5 45.999h70c2 -14 3 -29.667 3 -47c0 -38 -5 -77 -15 -117c18 -18.667 31.333 -35.334 40 -50.001c26.667 -44.667 40 -96 40 -154zM621.999 410.003l-0.000976562 116c0 33.333 -6.33301 64.333 -19 93c-4 10 -10.333 21 -19 33
c-17.333 -39.333 -40.666 -73.666 -69.999 -102.999c-8 -7.33301 -21.333 -18.333 -40 -33c47.333 -10 86.333 -30.667 117 -62c10.667 -10.667 21 -25.334 31 -44.001zM252.998 172.003c-40.667 0 -61 -20 -61 -60s20.333 -60 61 -60c41.333 0 62 20 62 60
s-20.667 60 -62 60z" />
    <glyph glyph-name="afii59723" unicode="&#xe2b;" horiz-adv-x="884" 
d="M568 530l-273.001 -530h-77v593c-10.667 -7.33301 -27.667 -11 -51 -11c-36.667 0 -66.334 11.667 -89.001 35s-34 53.333 -34 90c0 36 11.333 64.833 34 86.5s52.334 32.5 89.001 32.5s66.334 -10.833 89.001 -32.5s34 -50.834 34 -87.501v-570l209 420
c16.667 34 38.334 53 65.001 57c5.33301 0.666992 13 1 23 1c-28 16 -42 45.667 -42 89c0 36.667 11.167 66.334 33.5 89.001s52.166 34 89.499 34c36.667 0 66.334 -10.833 89.001 -32.5s34 -50.834 34 -87.501c0 -48.667 -19 -84 -57 -106c7.33301 -4 13 -8.33301 17 -13
c12 -13.333 18 -28.666 18 -45.999v-541h-71v523c0 12.667 -6 23.667 -18 33s-24.667 14 -38 14c-38.667 0 -63.334 -13.333 -74.001 -40zM667.999 764c-40.667 0 -61 -20 -61 -60s20.333 -60 61 -60c41.333 0 62 20 62 60s-20.667 60 -62 60zM166.999 764
c-39.333 0 -59 -20 -59 -60s19.667 -60 59 -60s59 20 59 60s-19.667 60 -59 60z" />
    <glyph glyph-name="afii59724" unicode="&#xe2c;" horiz-adv-x="943" 
d="M821 811l-0.000976562 -810.999h-76l-227 584l-223 -584h-77v593c-10.667 -7.33301 -27.667 -11 -51 -11c-36 0 -65.5 11.167 -88.5 33.5s-34.5 51.5 -34.5 87.5s11.333 65.5 34 88.5s52.334 34.5 89.001 34.5s66.334 -10.833 89.001 -32.5s34 -50.834 34 -87.501v-519
l228 568l232 -568v558c-16.667 -7.33301 -33 -11 -49 -11c-36.667 0 -66.5 11.167 -89.5 33.5s-34.5 51.833 -34.5 88.5s11.333 66.167 34 88.5s52.667 33.5 90 33.5c38.667 0 69 -13 91 -39c7.33301 -8.66699 14.666 -21.667 21.999 -39l66 78l46 -44zM166.999 764.001
c-39.333 0 -59 -20 -59 -60s19.667 -60 59 -60s59 20 59 60s-19.667 60 -59 60zM700.999 914.001c-38.667 0 -58 -19.667 -58 -59c0 -38.667 19.333 -58 58 -58c39.333 0 59 19.333 59 58c0 39.333 -19.667 59 -59 59z" />
    <glyph glyph-name="afii59725" unicode="&#xe2d;" horiz-adv-x="784" 
d="M236 66l362.001 0.000976562v448c0 69.333 -22.833 126.333 -68.5 171s-103.5 67 -173.5 67c-72 0 -129.667 -23.5 -173 -70.5s-65 -106.833 -65 -179.5h-71c0 94 28.167 171 84.5 231s131.166 90 224.499 90c90.667 0 165.334 -28.833 224.001 -86.5
s88 -131.834 88 -222.501v-514h-504v440c0 35.333 11.5 63.833 34.5 85.5s52.167 32.5 87.5 32.5s64 -11.5 86 -34.5s33 -52.167 33 -87.5c0 -78 -39.667 -117 -119 -117c-14.667 0 -25.334 1.16699 -32.001 3.5l-18 6.5v-263zM286.001 499.001
c-38.667 0 -58 -20.333 -58 -61c0 -40 19.333 -60 58 -60c39.333 0 59 20 59 60c0 40.667 -19.667 61 -59 61z" />
    <glyph glyph-name="afii59726" unicode="&#xe2e;" horiz-adv-x="779" 
d="M590 66v447.999c0 24.667 -3.66699 51 -11 79c-2.66699 10.667 -6.33398 21.667 -11.001 33c-66 -48.667 -145.667 -73 -239 -73c-42 0 -84 8.33301 -126 25c-47.333 18.667 -78 39.334 -92 62.001c-8.66699 14 -13 30 -13 48c0 30.667 13.333 56 40 76
c52 39.333 115.667 59 191 59c69.333 0 132.666 -14.667 189.999 -44c19.333 -10 41 -25 65 -45c16.667 14 29 26.667 37 38c25.333 35.333 38 75.333 38 120h71c0 -66 -17.333 -122.333 -52 -169c-11.333 -15.333 -28.666 -32 -51.999 -50
c23.333 -52.667 35 -105.667 35 -159v-514h-543v378c0 36 11.167 64.833 33.5 86.5s51.5 32.5 87.5 32.5c35.333 0 64 -11.5 86 -34.5s33 -52.167 33 -87.5c0 -78 -39.667 -117 -119 -117c-19.333 0 -35.666 3.33301 -48.999 10v-202h400zM329 621.999
c49.333 0 97.668 11 145.001 33c14.667 6.66699 33.334 17.667 56.001 33c-18.667 14 -36.334 24.667 -53.001 32c-46.667 21.333 -96 32 -148 32c-66.667 0 -116.334 -16.333 -149.001 -49c-1.33301 -0.666992 -4 -5.66699 -8 -15c0 -9.33301 3.33301 -16 10 -20
c37.333 -30.667 86.333 -46 147 -46zM239.002 437.999c-38.667 0 -58 -20.333 -58 -61c0 -40 19.333 -60 58 -60c39.333 0 59 20 59 60c0 40.667 -19.667 61 -59 61z" />
    <glyph glyph-name="afii59727" unicode="&#xe2f;" horiz-adv-x="752" 
d="M314 560c-24.667 0 -46.667 2 -66 6l-22 6c-82.667 12.667 -124 56.667 -124 132c0 35.333 11.667 64 35 86s53 33 89 33c80.667 0 121 -41.333 121 -124c0 -33.333 -7.66699 -56.666 -23 -69.999c15.333 0 32 2 50 6c98 21.333 161 81.666 189 180.999h71v-816h-71v671
c-52 -74 -135 -111 -249 -111zM226 760c-39.333 0 -59 -19.667 -59 -59s19.667 -59 59 -59s59 19.667 59 59s-19.667 59 -59 59z" />
    <glyph glyph-name="afii59729" unicode="&#xe30;" horiz-adv-x="734" 
d="M560 809l71 -0.00292969c-16 -82 -51.833 -145.5 -107.5 -190.5s-125.5 -67.5 -209.5 -67.5c-24.667 0 -46.667 2 -66 6l-22 6c-35.333 4.66699 -64.833 18.834 -88.5 42.501s-35.5 53.167 -35.5 88.5c0 36.667 11.5 65.834 34.5 87.501s52.833 32.5 89.5 32.5
c80.667 0 121 -42 121 -126c0 -32.667 -7.66699 -55.667 -23 -69c58.667 0 110 17.667 154 53c40.667 32.667 68 78.334 82 137.001zM560 262.997l71 -0.00390625c-16 -81.333 -52 -144.666 -108 -189.999s-125.667 -68 -209 -68c-24.667 0 -46.667 2 -66 6l-22 6
c-35.333 4.66699 -64.833 18.834 -88.5 42.501s-35.5 53.167 -35.5 88.5c0 36.667 11.5 65.834 34.5 87.501s52.833 32.5 89.5 32.5c80.667 0 121 -42 121 -126c0 -32.667 -7.66699 -55.667 -23 -69c58.667 0 110 17.667 154 53c40.667 32.667 68 78.334 82 137.001z
M226 203.993c-39.333 0 -59 -19.667 -59 -59s19.667 -59 59 -59s59 19.667 59 59s-19.667 59 -59 59zM226 749.993c-39.333 0 -59 -20 -59 -60c0 -39.333 19.667 -59 59 -59s59 19.667 59 59c0 40 -19.667 60 -59 60z" />
    <glyph glyph-name="afii59728" unicode="&#xe31;" 
d="M-415 990c-78 21.333 -117 66.3301 -117 134.997c0 34.667 11.167 64.334 33.5 89.001s50.5 37 84.5 37c6 -0.666992 10.333 -1 13 -1c76.667 0 115 -39 115 -117c0 -51.333 -12.667 -82.666 -38 -93.999c16.667 -3.33301 37 -5 61 -5c168 0 277 71.333 327 214l63 -24
c-62 -170 -187.667 -255 -377 -255h-33c-3.33301 0.666992 -15.333 2 -36 4c-26 2.66699 -50 6.33398 -72 11.001c-6 1.33301 -14 3.33301 -24 6zM-406 1187c-41.333 0 -62 -20 -62 -60c0 -38.667 19.333 -58 58 -58c41.333 0 62 20.667 62 62c0 37.333 -19.333 56 -58 56z
" />
    <glyph glyph-name="afii59730" unicode="&#xe32;" horiz-adv-x="680" 
d="M570 0l-71.001 0.000976562v563c0 55.333 -18.167 101.166 -54.5 137.499s-82.166 54.5 -137.499 54.5c-58 0 -104.833 -18 -140.5 -54s-53.5 -83 -53.5 -141h-71c0 78 24.667 141.833 74 191.5s113 74.5 191 74.5c78.667 0 142.167 -24.167 190.5 -72.5
s72.5 -111.833 72.5 -190.5v-563z" />
    <glyph glyph-name="afii59731" unicode="&#xe33;" horiz-adv-x="727" 
d="M-152 983c-36 0 -65.5 11.167 -88.5 33.5s-34.5 51.5 -34.5 87.5c0 36.667 11.333 66.167 34 88.5s52.334 33.5 89.001 33.5c36 0 65.5 -11.333 88.5 -34s34.5 -52 34.5 -88s-11.333 -65.167 -34 -87.5s-52.334 -33.5 -89.001 -33.5zM565 0h-71v563c0 56 -18 102 -54 138
s-82 54 -138 54c-58 0 -104.833 -18 -140.5 -54s-53.5 -83 -53.5 -141h-71c0 78 24.667 141.833 74 191.5s113 74.5 191 74.5c78.667 0 142.167 -24.167 190.5 -72.5s72.5 -111.833 72.5 -190.5v-563zM-152 1165c-40.667 0 -61 -20.333 -61 -61c0 -40 20.333 -60 61 -60
s61 20 61 60c0 40.667 -20.333 61 -61 61z" />
    <glyph glyph-name="afii59732" unicode="&#xe34;" 
d="M-118 971l-57.999 20.999c-52 18.667 -97.667 33.667 -137 45c-90.667 26 -181.667 42 -273 48c-35.333 2 -70 3 -104 3c-42.667 0 -74 -1.33301 -94 -4c24.667 70.667 66.667 126 126 166s127 60 203 60c97.333 0 176.333 -32.667 237 -98
c57.333 -61.333 90.666 -141.666 99.999 -240.999zM-454.999 1246c-108.667 0 -182.335 -34.666 -221.002 -103.999c4 0 10.333 0.333008 19 1s15.334 1 20.001 1c40.667 0 102 -4.33301 184 -13c46 -5.33301 102.333 -19.333 169 -42
c20 -6.66699 48.333 -17.334 85 -32.001c-51.333 126 -136.666 189 -255.999 189z" />
    <glyph glyph-name="afii59733" unicode="&#xe35;" 
d="M-118 971l-58 21c-52 18.667 -97.667 33.667 -137 45c-90.667 26 -181.667 42 -273 48c-35.333 2 -70 3 -104 3c-42.667 0 -74 -1.33301 -94 -4c24.667 70.667 66.667 126 126 166s127 60 203 60c112.667 0 202.667 -46.667 270 -140v206h67v-405zM-455 1246
c-108.667 0 -182.335 -34.666 -221.002 -103.999c4 0 10.333 0.333008 19 1s15.334 1 20.001 1c40.667 0 102 -4.33301 184 -13c46 -5.33301 102.333 -19.333 169 -42c20 -6.66699 48.333 -17.334 85 -32.001c-51.333 126 -136.666 189 -255.999 189z" />
    <glyph glyph-name="afii59734" unicode="&#xe36;" 
d="M-118 971l-58 21c-52 18.667 -97.667 33.667 -137 45c-90.667 26 -181.667 42 -273 48c-35.333 2 -70 3 -104 3c-42.667 0 -74 -1.33301 -94 -4c24.667 70.667 66.667 126 126 166s127 60 203 60c27.333 0 48 -1.66699 62 -5c4.66699 -0.666992 9 -2.33398 13 -5.00098
c-2 5.33301 -3 12.666 -3 21.999c0 80 41 120 123 120c34.667 0 63.334 -9.83301 86.001 -29.5s34 -46.5 34 -80.5c0 -68 -24.667 -109.667 -74 -125c17.333 -19.333 31 -37.666 41 -54.999c29.333 -51.333 47.666 -111.666 54.999 -180.999zM-455 1246
c-108.667 0 -182.335 -34.666 -221.002 -103.999c4 0 10.333 0.333008 19 1s15.334 1 20.001 1c40.667 0 102 -4.33301 184 -13c46 -5.33301 102.333 -19.333 169 -42c20 -6.66699 48.333 -17.334 85 -32.001c-51.333 126 -136.666 189 -255.999 189zM-260.001 1381
c-38.667 0 -58 -20 -58 -60s19.333 -60 58 -60c39.333 0 59 20 59 60s-19.667 60 -59 60z" />
    <glyph glyph-name="afii59735" unicode="&#xe37;" 
d="M-118 971l-57.999 21c-52 18.667 -97.667 33.667 -137 45c-90.667 26 -181.667 42 -273 48c-35.333 2 -70 3 -104 3c-42.667 0 -74 -1.33301 -94 -4c24.667 70.667 66.667 126 126 166s127 60 203 60c37.333 0 76.666 -6.66699 117.999 -20v86h67v-123
c12.667 -8.66699 22 -15.667 28 -21c22 -18 41 -38.667 57 -62v206h67v-405zM-454.999 1246c-108.667 0 -182.335 -34.666 -221.002 -103.999c4 0 10.333 0.333008 19 1s15.334 1 20.001 1c40.667 0 102 -4.33301 184 -13c46 -5.33301 102.333 -19.333 169 -42
c20 -6.66699 48.333 -17.334 85 -32.001c-51.333 126 -136.666 189 -255.999 189z" />
    <glyph glyph-name="afii59736" unicode="&#xe38;" 
d="M-190 -322c-14.667 -10 -31.667 -15 -51 -15c-36 0 -65.5 11.5 -88.5 34.5s-34.5 52.5 -34.5 88.5s11.5 65 34.5 87s52.5 33 88.5 33s65.5 -11 88.5 -33s34.5 -51 34.5 -87v-337h-72v229zM-241 -155c-40.667 0 -61 -20 -61 -60s20.333 -60 61 -60s61 20 61 60
s-20.333 60 -61 60z" />
    <glyph glyph-name="afii59737" unicode="&#xe39;" 
d="M-322 -484h132v390h72v-457h-276v229c-14.667 -10 -31.667 -15 -51 -15c-36 0 -65.5 11.5 -88.5 34.5s-34.5 52.5 -34.5 88.5s11.5 65 34.5 87s52.5 33 88.5 33s65.5 -11 88.5 -33s34.5 -51 34.5 -87v-270zM-445 -155c-40.667 0 -61 -20 -61 -60s20.333 -60 61 -60
s61 20 61 60s-20.333 60 -61 60z" />
    <glyph glyph-name="afii59738" unicode="&#xe3a;" 
d="M-204 -263c-52.667 0 -79 26.667 -79 80s26.333 80 79 80c53.333 0 80 -26.667 80 -80s-26.667 -80 -80 -80z" />
    <glyph glyph-name="afii59743" unicode="&#xe3f;" horiz-adv-x="706" 
d="M298 0h-203.999v910h204v100h78v-103c45.333 0 91.333 -14.667 138 -44c70 -44 105 -109 105 -195c0 -76 -33.667 -136.333 -101 -181c100 -40 150 -116.333 150 -229c0 -92 -36.667 -161.667 -110 -209c-50.667 -32.667 -111.334 -49 -182.001 -49v-110h-78v110z
M376.001 823v-305.001c16 0 42.333 10 79 30c48.667 26.667 73 68.334 73 125.001c0 56 -23.667 98 -71 126c-27.333 16 -54.333 24 -81 24zM298.001 83.999l-3 354h-110v-354h113zM376.001 433.999v-350.001c42 0 80 8.66699 114 26c58 29.333 87 78 87 146
c0 82.667 -37.667 137.334 -113 164.001c-26 9.33301 -55.333 14 -88 14zM298.001 520.998v305h-113v-305h113z" />
    <glyph glyph-name="afii59744" unicode="&#xe40;" horiz-adv-x="418" 
d="M199 218c5.33301 4.66699 9.33398 7.66602 12.001 8.99902c11.333 6 24.666 9 39.999 9c36 0 65.333 -11.667 88 -35s34 -53 34 -89s-11.167 -65.333 -33.5 -88s-51.833 -34 -88.5 -34s-66.5 11.333 -89.5 34s-34.5 52.334 -34.5 89.001v703h72v-598zM251.001 53.999
c39.333 0 59 19.667 59 59s-19.667 59 -59 59s-59 -19.667 -59 -59s19.667 -59 59 -59z" />
    <glyph glyph-name="afii59745" unicode="&#xe41;" horiz-adv-x="760" 
d="M199 218c5.33301 4.66699 9.33398 7.66602 12.001 8.99902c11.333 6 24.666 9 39.999 9c36 0 65.333 -11.667 88 -35s34 -53 34 -89s-11.167 -65.333 -33.5 -88s-51.833 -34 -88.5 -34s-66.5 11.333 -89.5 34s-34.5 52.334 -34.5 89.001v703h72v-598zM535.001 217.999
c15.333 12 32.667 18 52 18c36.667 0 66.334 -11.5 89.001 -34.5s34 -52.833 34 -89.5s-11.333 -66.167 -34 -88.5s-52.334 -33.5 -89.001 -33.5c-36 0 -65.5 11.5 -88.5 34.5s-34.5 52.5 -34.5 88.5v703h71v-598zM587.002 53.999c39.333 0 59 19.667 59 59
s-19.667 59 -59 59c-38.667 0 -58 -19.667 -58 -59s19.333 -59 58 -59zM251.002 53.999c39.333 0 59 19.667 59 59s-19.667 59 -59 59s-59 -19.667 -59 -59s19.667 -59 59 -59z" />
    <glyph glyph-name="afii59746" unicode="&#xe42;" horiz-adv-x="490" 
d="M-42 1088c0 71.333 20.998 129.831 62.998 175.498s98.333 68.5 169 68.5c68 0 123 -21.167 165 -63.5s63 -97.166 63 -164.499h-71c0 48 -14.167 86.667 -42.5 116s-66.5 44 -114.5 44c-95.333 0 -148.666 -47 -159.999 -141l211 -101c18 -10.667 27 -23 27 -37v-759
c6 2.66699 10.333 4.33398 13 5.00098c8.66699 3.33301 21.334 5 38.001 5c36.667 0 66.5 -11.333 89.5 -34s34.5 -52.334 34.5 -89.001c0 -37.333 -11.333 -67.166 -34 -89.499s-52.667 -33.5 -90 -33.5c-36.667 0 -66.167 11.667 -88.5 35s-33.5 53.333 -33.5 90v828
c0 19.333 -11 33.333 -33 42zM318.998 171.998c-40.667 0 -61 -20 -61 -60s20.333 -60 61 -60c41.333 0 62 20 62 60s-20.667 60 -62 60z" />
    <glyph glyph-name="afii59747" unicode="&#xe43;" horiz-adv-x="568" 
d="M101 1205c34.667 0 62.8359 -11.001 84.5029 -33.001s32.5 -50.333 32.5 -85c0 -35.333 -10.833 -64 -32.5 -86s-49.834 -33 -84.501 -33c-44.667 0 -80.334 18.333 -107.001 55c-24 32.667 -36 72.334 -36 119.001c0 54 18.667 99.167 56 135.5s83.333 54.5 138 54.5
c56 0 102 -18 138 -54s54 -82 54 -138v-914c4 2.66699 7.66699 4.33398 11 5.00098c10.667 3.33301 23.667 5 39 5c36.667 0 66.5 -11.333 89.5 -34s34.5 -52.334 34.5 -89.001c0 -36 -11.667 -65.5 -35 -88.5s-53 -34.5 -89 -34.5c-81.333 0 -122 41.667 -122 125v1020
c0 84 -40 126 -120 126c-36.667 0 -66.334 -12.333 -89.001 -37c-7.33301 -8 -15 -20.333 -23 -37c6 4.66699 10.667 7.66699 14 9c13.333 6 29 9 47 9zM101.002 1138c-35.333 0 -53 -18 -53 -54s17.667 -54 53 -54s53 18 53 54s-17.667 54 -53 54zM394.002 171.999
c-40 0 -60 -20 -60 -60s20 -60 60 -60s60 20 60 60s-20 60 -60 60z" />
    <glyph glyph-name="afii59748" unicode="&#xe44;" horiz-adv-x="568" 
d="M277 1180l-84.999 -216h-74l-160 358h74l123 -288l122 288h72v-1096c4.66699 2.66699 8.66699 4.33398 12 5.00098c11.333 3.33301 24.666 5 39.999 5c36.667 0 66.167 -11.333 88.5 -34s33.5 -52.334 33.5 -89.001c0 -36 -11.333 -65.5 -34 -88.5s-52 -34.5 -88 -34.5
c-37.333 0 -67.333 11.5 -90 34.5s-34 53.167 -34 90.5v1065zM401.001 172c-38.667 0 -58 -20 -58 -60s19.333 -60 58 -60c39.333 0 59 20 59 60s-19.667 60 -59 60z" />
    <glyph glyph-name="afii59749" unicode="&#xe45;" horiz-adv-x="680" 
d="M570 -457l-71.001 0.000976562v1020c0 55.333 -18.167 101.166 -54.5 137.499s-82.166 54.5 -137.499 54.5c-58 0 -104.833 -18 -140.5 -54s-53.5 -83 -53.5 -141h-71c0 78 24.667 141.833 74 191.5s113 74.5 191 74.5c78.667 0 142.167 -24.167 190.5 -72.5
s72.5 -111.833 72.5 -190.5v-1020z" />
    <glyph glyph-name="afii59750" unicode="&#xe46;" horiz-adv-x="1018" 
d="M361 587c3.33301 2.66699 6.66797 5 10.001 7c19.333 10.667 39 16 59 16c36.667 0 66.5 -11 89.5 -33s34.5 -51.333 34.5 -88c0 -36 -11.667 -65.5 -35 -88.5s-53 -34.5 -89 -34.5c-48.667 0 -86 18.333 -112 55c-22.667 32 -34 73.333 -34 124
c0 65.333 16.667 124.333 50 177c37.333 59.333 86.333 94 147 104l112 -81l115 81c128 -54.667 192 -162 192 -322v-959h-72v959c0 122 -42.333 204 -127 246l-108 -82l-109 82c-50 -14.667 -85.333 -46 -106 -94c-6.66699 -15.333 -12.334 -38.333 -17.001 -69z
M430.002 548c-40.667 0 -61 -20.333 -61 -61c0 -40 20.333 -60 61 -60s61 20 61 60c0 40.667 -20.333 61 -61 61z" />
    <glyph glyph-name="afii59751" unicode="&#xe47;" 
d="M-253 983c-65.333 0 -119.333 16.667 -162 50c-14 11.333 -29 28.333 -45 51l-66 -94c-40.667 0 -76 20.667 -106 62c-27.333 38 -41 78 -41 120c0 47.333 18.333 87 55 119c34.667 30.667 76 46 124 46h258c46.667 0 77.667 18 93 54l57 -37
c-10.667 -19.333 -21 -34 -31 -44c-30.667 -29.333 -70.334 -44 -119.001 -44h-258c-29.333 0 -54.666 -8 -75.999 -24c-23.333 -18 -35 -41.333 -35 -70c0 -38.667 11 -66.334 33 -83.001c6.66699 -5.33301 17.667 -10.333 33 -15l79 108c15.333 -25.333 28 -44.333 38 -57
c30.667 -38.667 56.667 -58 78 -58c-0.666992 4.66699 -1 8.66699 -1 12c0 68.667 31.333 103 94 103c29.333 0 53.333 -9.16699 72 -27.5s28 -42.166 28 -71.499c0 -66.667 -34 -100 -102 -100zM-251 1135c-34 0 -51 -17.333 -51 -52c0 -32.667 17 -49 51 -49
s51 16.667 51 50c0 34 -17 51 -51 51z" />
    <glyph glyph-name="afii59752" unicode="&#xe48;" 
d="M-118 1775v-310h-67v310h67z" />
    <glyph glyph-name="afii59753" unicode="&#xe49;" 
d="M-246 1700c0 -51.333 -9.66699 -96.001 -29 -134.001c-6.66699 -14 -16.667 -28 -30 -42c26.667 6 46 11 58 15c63.333 21.333 113 59.333 149 114c28.667 43.333 45.667 91 51 143l64 -16c-7.33301 -56.667 -26.666 -109 -57.999 -157c-30 -36 -46 -55.667 -48 -59
c-66.667 -68.667 -156.334 -103 -269.001 -103c-16 0 -28 0.666992 -36 2v61c8.66699 6 16.334 12 23.001 18c18 17.333 31.333 35 40 53c-4.66699 -3.33301 -14 -5 -28 -5c-32.667 0 -59.167 10.167 -79.5 30.5s-30.5 46.833 -30.5 79.5s10.167 59.334 30.5 80.001
s46.833 31 79.5 31c45.333 0 77.666 -18.333 96.999 -55c6 -11.333 11.333 -30 16 -56zM-359 1754c-35.333 0 -53 -18 -53 -54s17.667 -54 53 -54s53 18 53 54s-17.667 54 -53 54z" />
    <glyph glyph-name="afii59754" unicode="&#xe4a;" 
d="M-354 1477c-44 0 -79.9971 17.335 -107.997 52.002c-26.667 32.667 -40 71.667 -40 117c0 40.667 9.33301 74.667 28 102c22 32 52.333 48 91 48c27.333 0 51.666 -7.33301 72.999 -22c6.66699 -4.66699 14.667 -12 24 -22c10 9.33301 19 16.666 27 21.999
c22 14.667 43.667 22 65 22c61.333 0 100.666 -28 117.999 -84l52 101l52 -24l-159 -309h-66l59 120c4.66699 9.33301 9 26.666 13 51.999c0.666992 2.66699 1.66699 8.33398 3 17.001c0 19.333 -7.5 36 -22.5 50s-32.5 21 -52.5 21c-14 0 -33 -9.33301 -57 -28
c-5.33301 -4 -16 -13.333 -32 -28c-10.667 11.333 -19.334 19.666 -26.001 24.999c-22 17.333 -43.333 26 -64 26c-44.667 0 -67 -31 -67 -93c0 -22.667 3.66699 -37.667 11 -45c6.66699 11.333 12 19.333 16 24c15.333 16.667 36 25 62 25c56.667 0 85 -27.333 85 -82
c0 -58 -28.333 -87 -85 -87zM-355.997 1604c-28.667 0 -43 -14.333 -43 -43c0 -28 14.333 -42 43 -42c29.333 0 44 14 44 42c0 28.667 -14.667 43 -44 43z" />
    <glyph glyph-name="afii59755" unicode="&#xe4b;" 
d="M-118 1658h123v-66h-123v-122h-67v122h-120v66h120v122h67v-122z" />
    <glyph glyph-name="afii59756" unicode="&#xe4c;" 
d="M-218 1438c-32.667 0 -59.333 10.501 -80 31.501s-31 47.833 -31 80.5c0 48 23 82.667 69 104l324 152l32 -52l-248 -112c28 -20.667 42 -52.334 42 -95.001c0 -72.667 -36 -109 -108 -109zM-217.999 1602c-34.667 0 -52 -18 -52 -54s17.333 -54 52 -54
c35.333 0 53 18 53 54s-17.667 54 -53 54z" />
    <glyph glyph-name="afii59757" unicode="&#xe4d;" 
d="M-152 983c-36 0 -65.5 11.167 -88.5 33.5s-34.5 51.5 -34.5 87.5c0 36.667 11.333 66.167 34 88.5s52.334 33.5 89.001 33.5c36 0 65.5 -11.333 88.5 -34s34.5 -52 34.5 -88s-11.333 -65.167 -34 -87.5s-52.334 -33.5 -89.001 -33.5zM-152 1165
c-40.667 0 -61 -20.333 -61 -61c0 -40 20.333 -60 61 -60s61 20 61 60c0 40.667 -20.333 61 -61 61z" />
    <glyph glyph-name="afii59758" unicode="&#xe4e;" horiz-adv-x="769" 
d="M103 182l228 228l-228 228l49 52l231 -228l227 228l49 -48l-227 -229l227 -228l-49 -49l-232 228l-228 -231z" />
    <glyph glyph-name="afii59759" unicode="&#xe4f;" horiz-adv-x="983" 
d="M492 0c-112.667 0 -208.833 39.832 -288.5 119.499s-119.5 175.834 -119.5 288.501c0 113.333 39.667 209.666 119 288.999s175.666 119 288.999 119c114 0 210.5 -39.5 289.5 -118.5s118.5 -175.5 118.5 -289.5c0 -113.333 -39.667 -209.666 -119 -288.999
s-175.666 -119 -288.999 -119zM838.001 407.999c0 96.667 -33.667 178.667 -101 246s-149 101 -245 101c-96.667 0 -178.667 -33.667 -246 -101s-101 -149.333 -101 -246s33.667 -178.667 101 -246s149.333 -101 246 -101s178.5 33.667 245.5 101s100.5 149.333 100.5 246z
M492.001 163.999c-68.667 0 -126.5 23.499 -173.5 70.499s-70.5 104.833 -70.5 173.5s23.5 126.834 70.5 174.501s104.833 71.5 173.5 71.5c68 0 125.833 -24 173.5 -72s71.5 -106 71.5 -174s-23.833 -125.667 -71.5 -173s-105.5 -71 -173.5 -71zM676.001 407.998
c0 50.667 -18 94.167 -54 130.5s-79.333 54.5 -130 54.5c-51.333 0 -94.5 -18 -129.5 -54s-52.5 -79.667 -52.5 -131c0 -50.667 17.667 -93.667 53 -129s78.333 -53 129 -53c51.333 0 94.833 17.667 130.5 53s53.5 78.333 53.5 129z" />
    <glyph glyph-name="afii59760" unicode="&#xe50;" horiz-adv-x="760" 
d="M371 -5c-90.667 0 -166.667 23.667 -228 71c-68 51.333 -102 121 -102 209s33.667 158 101 210c62 47.333 138.333 71 229 71s167 -23.667 229 -71c67.333 -52 101 -122 101 -210c0 -87.333 -34 -157 -102 -209c-61.333 -47.333 -137.333 -71 -228 -71zM371 492
c-68.667 0 -126 -18.334 -172 -55.001c-50 -40 -75 -93.667 -75 -161s24.667 -120.666 74 -159.999c46 -36.667 103.667 -55 173 -55c68.667 0 126.334 18.333 173.001 55c50 40 75 93.333 75 160s-25 120 -75 160c-46.667 37.333 -104.334 56 -173.001 56z" />
    <glyph glyph-name="afii59761" unicode="&#xe51;" horiz-adv-x="811" 
d="M506 -40c54.667 21.333 97.334 57.002 128.001 107.002s46 105 46 165c0 78.667 -26.333 141 -79 187c-50 43.333 -115 65 -195 65c-166.667 0 -257.667 -72 -273 -216c-0.666992 -6 -1 -10.333 -1 -13v-12c0 -45.333 14 -87.333 42 -126c30.667 -42 68 -63 112 -63
c8 0 18.333 2.33301 31 7c-16 9.33301 -27.333 17.666 -34 24.999c-23.333 24 -35 52.667 -35 86c0 37.333 12 68 36 92s54.667 36 92 36c84 0 126 -44.333 126 -133c0 -52.667 -21.667 -96 -65 -130c-40 -31.333 -87.333 -47 -142 -47c-74 0 -132.667 29 -176 87
c-38.667 52 -58 116.333 -58 193c0 92.667 35.667 165 107 217c63.333 46 143.333 69 240 69c100 0 181.667 -26.667 245 -80c68 -56.667 102 -134 102 -232c0 -78 -18.667 -147.333 -56 -208c-38.667 -64.667 -93.334 -110.334 -164.001 -137.001zM376 239.002
c-44 0 -66 -22.333 -66 -67c0 -44 22 -66 66 -66s66 22 66 66c0 44.667 -22 67 -66 67z" />
    <glyph glyph-name="afii59762" unicode="&#xe52;" horiz-adv-x="892" 
d="M556 499c12.667 12.667 23.666 22 32.999 28c30 19.333 62 29 96 29c45.333 0 80.833 -14.333 106.5 -43s38.5 -66 38.5 -112v-258c0 -42 -13.667 -76.333 -41 -103s-62 -40 -104 -40h-457c-40.667 0 -73 15.667 -97 47c-22 28 -33 63 -33 105v645h71v-637
c0 -62.667 29 -94 87 -94h424c53.333 0 80 26.333 80 79v244c0 63.333 -29 95 -87 95c-31.333 0 -60.666 -11.667 -87.999 -35c-8.66699 -7.33301 -19.334 -19.333 -32.001 -36c-13.333 16 -24.333 27.667 -33 35c-28 24 -54.667 36 -80 36c-43.333 0 -75 -14.667 -95 -44
l-14 -44c6.66699 2 14.334 3.66699 23.001 5c18.667 3.33301 32.667 5 42 5c38 0 68.667 -11.167 92 -33.5s35 -52.5 35 -90.5c0 -37.333 -11.833 -68.333 -35.5 -93s-54.167 -37 -91.5 -37c-96.667 0 -145 69 -145 207c0 52.667 16 98 48 136c33.333 40.667 76 61 128 61
c39.333 0 72.666 -9.33301 99.999 -28c8.66699 -6 18.334 -15.667 29.001 -29zM395.999 347c-44 0 -66 -22.333 -66 -67c0 -44 22 -66 66 -66s66 22 66 66c0 44.667 -22 67 -66 67z" />
    <glyph glyph-name="afii59763" unicode="&#xe53;" horiz-adv-x="924" 
d="M322 490c-56.667 0 -103.667 -23.001 -141 -69.001c-34.667 -43.333 -52 -93.666 -52 -150.999c0 -32.667 9.33301 -67 28 -103c8.66699 19.333 16.334 33.333 23.001 42c22.667 28 54.334 42 95.001 42c37.333 0 68 -12.5 92 -37.5s36 -56.5 36 -94.5
s-11.667 -68.5 -35 -91.5s-54.333 -34.5 -93 -34.5c-63.333 0 -116.333 32.667 -159 98c-38 57.333 -57 119.333 -57 186v16c1.33301 8 2 13.667 2 17c9.33301 71.333 37.333 130.333 84 177c49.333 48.667 109 73 179 73c54.667 0 100.667 -14.333 138 -43
c12 -9.33301 25.333 -23.666 40 -42.999c15.333 19.333 29.666 34 42.999 44c39.333 30 83 45 131 45c54 0 98.333 -20 133 -60c32.667 -38 49 -84.333 49 -139v-364h-72v364c0 33.333 -9.33301 62 -28 86c-20.667 26.667 -47.334 40 -80.001 40
c-39.333 0 -72.333 -11.333 -99 -34s-40 -53.334 -40 -92.001v-364h-72v364c0 37.333 -15.333 68 -46 92c-28 22.667 -61 34 -99 34zM275 189.999c-44.667 0 -67 -22.333 -67 -67s22.333 -67 67 -67s67 22.333 67 67s-22.333 67 -67 67z" />
    <glyph glyph-name="afii59764" unicode="&#xe54;" horiz-adv-x="929" 
d="M133 275c0 -52 18.665 -99.333 55.998 -142c38.667 -44.667 83.667 -67 135 -67h108c-54 36.667 -81 98.334 -81 185.001c0 54.667 17.667 98.334 53 131.001c25.333 24 56.333 36 93 36c38 0 69 -11.5 93 -34.5s36 -53.5 36 -91.5s-12 -69.167 -36 -93.5
s-55 -36.5 -93 -36.5c-14 0 -26.333 2.33301 -37 7c-4 1.33301 -8 3.66602 -12 6.99902c-2 -16 9.66699 -37.333 35 -64c28.667 -30.667 59.334 -46 92.001 -46h255v-66h-506c-74.667 0 -137.167 27.667 -187.5 83s-75.5 121 -75.5 197c0 84 25.5 151 76.5 201
s118.5 75 202.5 75h424c48.667 0 87.334 25 116.001 75l54 -36c-14.667 -30.667 -38 -55.834 -70 -75.501s-65.333 -29.5 -100 -29.5h-420c-140.667 0 -211 -71.667 -211 -215zM496.998 356c-43.333 0 -65 -22.333 -65 -67c0 -44 21.667 -66 65 -66s65 22 65 66
c0 44.667 -21.667 67 -65 67z" />
    <glyph glyph-name="afii59765" unicode="&#xe55;" horiz-adv-x="943" 
d="M548 656c0 -43.333 -10.0029 -76.667 -30.0029 -100h261c28 0 55 11.333 81 34l38 41l51 -36c-14.667 -30 -38 -55 -70 -75s-64.667 -30 -98 -30h-351c-8.66699 0 -32 -4.66699 -70 -14l-53 -14c-116 -34 -174 -96.333 -174 -187c0 -61.333 16.333 -111 49 -149
c34.667 -40 82 -60 142 -60h114c-54.667 35.333 -82 99 -82 191c0 10.667 1 21 3 31c16.667 86.667 64.334 130 143.001 130c38.667 0 69.834 -11.667 93.501 -35s35.5 -54 35.5 -92c0 -37.333 -12 -68.166 -36 -92.499s-55 -36.5 -93 -36.5c-12 0 -24 2.33301 -36 7
c-3.33301 1.33301 -8 3.66602 -14 6.99902c0 -16.667 12 -38 36 -64c28.667 -30.667 59.334 -46 92.001 -46h266v-66h-522c-80.667 -0 -144.667 26.333 -192 79s-71 119.667 -71 201c0 128.667 83 212 249 250c-10.667 10 -19 19.667 -25 29c-16.667 26 -25 55.333 -25 88
c0 42 13.833 76 41.5 102s62.5 39 104.5 39c40.667 0 74.5 -12 101.5 -36s40.5 -56 40.5 -96zM402.997 729.999c-55.333 0 -83 -28 -83 -84c0 -55.333 27.667 -83 83 -83s83 27.667 83 83c0 56 -27.667 84 -83 84zM501.997 355.999c-44 0 -66 -22.333 -66 -67
c0 -44 22 -66 66 -66s66 22 66 66c0 44.667 -22 67 -66 67z" />
    <glyph glyph-name="afii59766" unicode="&#xe56;" horiz-adv-x="730" 
d="M391 556c82.667 0 149.997 -23.667 201.997 -71c53.333 -49.333 80 -115 80 -197c0 -64.667 -17 -124 -51 -178c-50 -80 -127.667 -120 -233 -120c-71.333 0 -134 12.333 -188 37c-71.333 32 -107 79.333 -107 142c0 38 11.167 69 33.5 93s52.5 36 90.5 36
c38.667 0 69.834 -12.167 93.501 -36.5s35.5 -55.833 35.5 -94.5c0 -42 -13.333 -72.333 -40 -91c22.667 -10.667 43.334 -16 62.001 -16c4.66699 0 10.334 0.333008 17.001 1c142.667 14 214 89 214 225c0 58 -20.167 105.5 -60.5 142.5s-89.833 55.5 -148.5 55.5
c-82 0 -144.333 -29.333 -187 -88l-176 343l58 30l137 -263c49.333 33.333 105.333 50 168 50zM217.997 236c-44.667 0 -67 -22.333 -67 -67c0 -44 22.333 -66 67 -66s67 22 67 66c0 44.667 -22.333 67 -67 67z" />
    <glyph glyph-name="afii59767" unicode="&#xe57;" horiz-adv-x="929" 
d="M52 305c6.66699 69.333 27.332 126.668 61.999 172.001c40 52.667 92.667 79 158 79c46 0 85.667 -13.667 119 -41c10.667 -8.66699 22.667 -22.334 36 -41.001c14.667 18.667 27.334 32.334 38.001 41.001c33.333 27.333 70 41 110 41c56 0 103.167 -16 141.5 -48
s57.5 -75.333 57.5 -130l140 312l57 -26l-291 -664h-80l98 223c11.333 26 17 55.667 17 89c0 25.333 -2.33301 45.666 -7 60.999c-4.66699 34 -19.834 61 -45.501 81s-55.834 30 -90.501 30c-72 0 -108 -38.667 -108 -116h-70c0 34 -12.167 61.833 -36.5 83.5
s-53.5 32.5 -87.5 32.5c-42.667 0 -76.667 -17.833 -102 -53.5s-39 -79.167 -41 -130.5c-2 -50.667 7.66699 -97 29 -139c6.66699 -12.667 16.334 -25.667 29.001 -39c0 28 8 53.333 24 76c22.667 32 56.334 48 101.001 48c38.667 0 70.5 -11.667 95.5 -35
s37.5 -54.333 37.5 -93s-12.5 -69.667 -37.5 -93s-56.833 -35 -95.5 -35c-76 0 -138.667 29 -188 87c-47.333 54.667 -71 120.667 -71 198c0 13.333 0.333008 23.333 1 30zM309.998 185.002c-44 0 -66 -22.333 -66 -67c0 -44 22 -66 66 -66s66 22 66 66
c0 44.667 -22 67 -66 67z" />
    <glyph glyph-name="afii59768" unicode="&#xe58;" horiz-adv-x="959" 
d="M870 143c0 -51.333 -20.001 -90.667 -60.001 -118c-34.667 -23.333 -78.667 -35 -132 -35c-110 0 -201.667 62 -275 186l-86 -176c-170.667 34.667 -256 128 -256 280c0 72.667 25.833 136.834 77.5 192.501s113.5 83.5 185.5 83.5h455c24.667 0 50.334 8 77.001 24
c29.333 16.667 47.333 36 54 58l58 -33c-14.667 -32.667 -40.5 -61 -77.5 -85s-73.5 -36 -109.5 -36h-452c-48.667 0 -92.667 -21.667 -132 -65s-59 -89.666 -59 -138.999c0 -97.333 45.667 -160.333 137 -189l91 177h77c24 -88.667 75.333 -151.334 154 -188.001
c20 -9.33301 33.667 -14 41 -14c-16 17.333 -24 42.666 -24 75.999c0 86.667 42.667 130 128 130s128 -43 128 -129zM741.999 210.999c-45.333 0 -68 -23 -68 -69s22.667 -69 68 -69s68 23 68 69s-22.667 69 -68 69z" />
    <glyph glyph-name="afii59769" unicode="&#xe59;" horiz-adv-x="934" 
d="M568 457c8.66699 26 27.999 48.1641 57.999 66.4971s59 27.5 87 27.5h105c44 0 66 24.333 66 73v140h72v-150c0 -37.333 -12.333 -69.166 -37 -95.499s-55.667 -39.5 -93 -39.5h-108c-2.66699 0.666992 -6.66699 1 -12 1c-24.667 0 -45.5 -11.667 -62.5 -35
s-25.5 -47.666 -25.5 -72.999c0 -11.333 2 -21.333 6 -30l173 -342h-82l-187 378c-18.667 37.333 -44 64.333 -76 81c-34 16.667 -73 25 -117 25c-60.667 0 -109.834 -19.5 -147.501 -58.5s-56.5 -88.833 -56.5 -149.5c0 -80 30.667 -139.333 92 -178
c1.33301 34 5 59.333 11 76c18.667 51.333 56.334 77 113.001 77c36 0 66.5 -11.167 91.5 -33.5s37.5 -51.166 37.5 -86.499c0 -38 -12.167 -71 -36.5 -99s-55.166 -42 -92.499 -42c-84 0 -152.667 26.667 -206 80s-80 122 -80 206c0 83.333 26.667 150.833 80 202.5
s122 77.5 206 77.5c63.333 0 119 -16.333 167 -49c16.667 -11.333 34.667 -28 54 -50zM348.999 186.997c-42.667 0 -64 -22 -64 -66c0 -43.333 21.333 -65 64 -65s64 21.667 64 65c0 44 -21.333 66 -64 66z" />
    <glyph glyph-name="afii59770" unicode="&#xe5a;" horiz-adv-x="873" 
d="M475 819c64.667 0 97.001 -27.001 97.001 -81.001v-537c0 -54.667 -15.667 -101 -47 -139c-32.667 -40 -75.667 -61.333 -129 -64l-41 72c80 12.667 120 57 120 133v313c-25.333 -46 -50 -77.667 -74 -95c-27.333 -20 -65.333 -30 -114 -30
c-99.333 0 -169 42.667 -209 128c-19.333 41.333 -29 91 -29 149c0 40 16.167 75.167 48.5 105.5s68.833 45.5 109.5 45.5c84.667 0 127 -40.667 127 -122c0 -37.333 -11.667 -69 -35 -95s-53.333 -39 -90 -39c-22.667 0 -43 5 -61 15c10 -41.333 24.667 -70.166 44 -86.499
s49.666 -24.5 90.999 -24.5c58 0 110.333 52.333 157 157c23.333 53.333 35 118.333 35 195zM205.001 757.999c-42 0 -63 -22 -63 -66c0 -43.333 21 -65 63 -65c44 0 66 21.667 66 65c0 44 -22 66 -66 66zM721.001 808.999l95.999 -16v-594c0 -54.667 -15.333 -101 -46 -139
c-33.333 -40.667 -76.666 -62 -129.999 -64l-41 72c80.667 10 121 54.333 121 133v608z" />
    <glyph glyph-name="afii59771" unicode="&#xe5b;" horiz-adv-x="1637" 
d="M629 684l-5.99707 -90.0029c-66.667 48 -136.334 72 -209.001 72c-92 0 -161.333 -41.667 -208 -125c-25.333 -45.333 -38 -104.666 -38 -177.999c0 -109.333 36.667 -187.666 110 -234.999c37.333 -24 84 -36 140 -36c88 0 158 39.333 210 118
c26 38.667 63.333 106.667 112 204l122 -152l121 154l105 -160l125 156c81.333 -130.667 144.666 -196 189.999 -196c74 0 121.667 67.333 143 202h74c-30.667 -185.333 -103 -278 -217 -278c-73.333 0 -137.333 54.333 -192 163l-131 -146l-103 148
c-40 -57.333 -80.333 -103.666 -121 -138.999l-94 117c-66 -130.667 -132.333 -211.667 -199 -243c-42.667 -20.667 -90.334 -31 -143.001 -31c-129.333 0 -226.333 54 -291 162c-34 56 -51 124.667 -51 206c0 106 28.667 193.333 86 262c62 74 144.667 111 248 111
c70 0 142.333 -22 217 -66z" />
    <glyph glyph-name="endash" unicode="&#x2013;" 
d="M-379 983c-36 0 -65.5 11.167 -88.5 33.5s-34.5 51.5 -34.5 87.5c0 36.667 11.333 66.167 34 88.5s52.334 33.5 89.001 33.5c36 0 65.5 -11.333 88.5 -34s34.5 -52 34.5 -88s-11.333 -65.167 -34 -87.5s-52.334 -33.5 -89.001 -33.5zM-379 1165
c-40.667 0 -61 -20.333 -61 -61c0 -40 20.333 -60 61 -60s61 20 61 60c0 40.667 -20.333 61 -61 61z" />
    <glyph glyph-name="emdash" unicode="&#x2014;" 
d="M-406 922c-65.333 0 -119.333 16.333 -162 49c-14 10.667 -28.667 27 -44 49l-68 -98c-40.667 0 -75.667 21 -105 63c-27.333 38.667 -41 79 -41 121c0 46.667 18 85.834 54 117.501s77.667 47.5 125 47.5h279c43.333 0 74.333 18 93 54l52 -33
c-10.667 -20 -20.667 -34.333 -30 -43c-30 -29.333 -68.333 -44 -115 -44h-279c-29.333 0 -55 -9.33301 -77 -28s-33 -42.334 -33 -71.001c0 -38 10.333 -66.667 31 -86c6 -6 16.667 -12.333 32 -19l82 110c16 -26 29 -45.333 39 -58c30.667 -38.667 57 -58 79 -58
c0.666992 26.667 3 46 7 58c13.333 38.667 41.333 58 84 58c28 0 50.833 -9 68.5 -27s26.5 -41 26.5 -69c0 -62 -32.667 -93 -98 -93zM-403 1067c-34 0 -51 -17.333 -51 -52c0 -34 17 -51 51 -51s51 17 51 51c0 34.667 -17 52 -51 52z" />
    <glyph glyph-name="quoteleft" unicode="&#x2018;" horiz-adv-x="400" 
d="M228 671l-108 239h91l108 -239h-91z" />
    <glyph glyph-name="quoteright" unicode="&#x2019;" horiz-adv-x="400" 
d="M221 910h91l-108 -239h-91z" />
    <glyph glyph-name="quotesinglbase" unicode="&#x201a;" 
d="M-340 1403v-413h-70v413h70z" />
    <glyph glyph-name="quotedblleft" unicode="&#x201c;" horiz-adv-x="590" 
d="M408 671l-108 239h91l108 -239h-91zM226 671l-108 239h91l108 -239h-91z" />
    <glyph glyph-name="quotedblright" unicode="&#x201d;" horiz-adv-x="590" 
d="M211 910h91l-108 -239h-86zM394 910h90l-108 -239h-90z" />
    <glyph glyph-name="quotedblbase" unicode="&#x201e;" 
d="M-593 988c-46 0 -83.667 18.3311 -113 54.998c-28 34.667 -42 75.334 -42 122.001c0 43.333 9.66699 80 29 110c22 34.667 53.667 52 95 52c28.667 0 54.334 -8 77.001 -24c7.33301 -5.33301 16 -13.666 26 -24.999c11.333 10.667 21 18.667 29 24
c24.667 16.667 48 25 70 25c65.333 0 106 -30.333 122 -91l54 106l54 -24l-167 -328h-68l61 128c9.33301 19.333 14 44 14 74c0 20.667 -7.33301 38.167 -22 52.5s-32.334 21.5 -53.001 21.5c-16 0 -36.333 -10 -61 -30c-7.33301 -6 -18.333 -16.333 -33 -31
c-10.667 12.667 -19.667 22 -27 28c-22.667 18.667 -44.667 28 -66 28c-47.333 0 -71 -33.667 -71 -101c0 -21.333 3 -36 9 -44c6 12 11.667 20.667 17 26c17.333 17.333 39.333 26 66 26c59.333 0 89 -29 89 -87c0 -62 -29.667 -93 -89 -93zM-595 1123
c-30.667 0 -46 -15.333 -46 -46c0 -30 15.333 -45 46 -45c31.333 0 47 15 47 45c0 30.667 -15.667 46 -47 46z" />
    <glyph glyph-name="dagger" unicode="&#x2020;" 
d="M-422 1049c-36.667 0 -66.167 11.832 -88.5 35.499s-33.5 53.834 -33.5 90.501c0 51.333 25.667 89 77 113l357 169l34 -57l-273 -124c32.667 -22.667 49 -58 49 -106c0 -80.667 -40.667 -121 -122 -121zM-422 1231c-40 0 -60 -19.667 -60 -59c0 -38.667 20 -58 60 -58
s60 19.333 60 58c0 39.333 -20 59 -60 59z" />
    <glyph glyph-name="daggerdbl" unicode="&#x2021;" 
d="M-118 1398v-408h-72v408h72z" />
    <glyph glyph-name="bullet" unicode="&#x2022;" 
d="M-506 990c-78 21.333 -117 66.999 -117 136.999c0 34.667 10.833 64 32.5 88s49.5 36 83.5 36c5.33301 -0.666992 9.66602 -1 12.999 -1c78 0 117 -38.667 117 -116c0 -52 -13.667 -83.667 -41 -95c16.667 -3.33301 37 -5 61 -5c169.333 0 279 71.333 329 214l63 -24
c-62 -170 -187.333 -255 -376 -255h-33c-7.33301 0.666992 -19.333 2 -36 4c-27.333 2.66699 -51.666 6.33398 -72.999 11.001c-4 0.666992 -11.667 2.66699 -23 6zM-497 1187c-41.333 0 -62 -20.667 -62 -62c0 -37.333 19 -56 57 -56c41.333 0 62 20.667 62 62
c0 37.333 -19 56 -57 56z" />
    <glyph glyph-name="ellipsis" unicode="&#x2026;" 
d="M-408 1172v-182h-71v182h-182v71h182v180h71v-180h180v-71h-180z" />
    <glyph glyph-name="perthousand" unicode="&#x2030;" 
d="M-467 988c-48.667 0 -88.333 19.333 -119 58c-28.667 36 -43 79 -43 129c0 112.667 43.333 169 130 169c30.667 0 58 -8.66699 82 -26c7.33301 -5.33301 16 -14 26 -26c11.333 11.333 21.333 20 30 26c24.667 17.333 49 26 73 26c69.333 0 113 -32 131 -96l56 112l59 -26
l-176 -344h-75l67 133c10 20 15 46 15 78c0 15.333 -5 30.333 -15 45c-15.333 22.667 -37.666 34 -66.999 34c-14.667 0 -35.334 -10.333 -62.001 -31c-8.66699 -6.66699 -20.667 -17.334 -36 -32.001c-11.333 13.333 -20.666 23 -27.999 29c-24 20 -47.667 30 -71 30
c-30.667 0 -52.334 -16 -65.001 -48c-6.66699 -17.333 -10 -36.666 -10 -57.999c0 -22.667 4 -39 12 -49c6 12 12 21 18 27c18 18 41.667 27 71 27c61.333 0 92 -29.667 92 -89c0 -28 -8.83301 -51.333 -26.5 -70s-40.5 -28 -68.5 -28zM-466.999 1130c-32 0 -48 -16 -48 -48
s16 -48 48 -48s48 16 48 48s-16 48 -48 48z" />
    <glyph glyph-name="guilsinglleft" unicode="&#x2039;" 
d="M-349 1001c-36.667 0 -65.833 11.667 -87.5 35s-32.5 53.333 -32.5 90c0 50.667 25 88 75 112l359 171l35 -58l-272 -127c32 -22.667 48 -57 48 -103c0 -80 -41.667 -120 -125 -120zM-346.999 1180c-39.333 0 -59 -19.667 -59 -59s19.667 -59 59 -59s59 19.667 59 59
s-19.667 59 -59 59z" />
    <glyph glyph-name="guilsinglright" unicode="&#x203a;" 
d="M-260 1450h-66v121h-122v66h122v122h66v-122h122v-66h-122v-121z" />
    <glyph glyph-name="trademark" unicode="&#x2122;" 
d="M-326 1681c0 -52.667 -10.3359 -98.001 -31.0029 -136.001c-7.33301 -13.333 -18 -27 -32 -41c24 4.66699 43.667 9.66699 59 15c64.667 23.333 114.334 61 149.001 113c28 42.667 44.667 90.334 50 143.001l65 -16c-6 -44 -19.333 -86 -40 -126
c-25.333 -48.667 -47.333 -78.667 -66 -90c-66.667 -68.667 -156.667 -103 -270 -103c-16 0 -27.333 0.666992 -34 2v62c8.66699 6 16.334 12 23.001 18c18 17.333 31.333 35.333 40 54c-6.66699 -3.33301 -16.667 -5 -30 -5c-32 0 -58 10.333 -78 31s-30 47 -30 79
s10 58.5 30 79.5s46 31.5 78 31.5c46.667 0 80 -18.333 100 -55c6.66699 -12 12.334 -30.667 17.001 -56zM-443.003 1733c-37.333 0 -56 -17.667 -56 -53s18.667 -53 56 -53s56 17.667 56 53s-18.667 53 -56 53z" />
    <glyph glyph-name="uF700" unicode="&#xf700;" horiz-adv-x="706" 
d="M54 502c0 92.667 28.1641 169.668 84.4971 231.001s130.166 92 221.499 92c76.667 0 141.334 -23.167 194.001 -69.5s84.334 -107.5 95.001 -183.5h-74c-5.33301 40 -22.666 76.667 -51.999 110c-41.333 46.667 -97.666 70 -168.999 70
c-54.667 0 -103.5 -16.667 -146.5 -50s-68.5 -76.666 -76.5 -129.999h279c33.333 0 62 -8.33301 86 -25c26 -18.667 39 -44.334 39 -77.001c0 -4 -0.666992 -10 -2 -18l-73 -452h-71l-82 218c-9.33301 -6 -16.333 -10.333 -21 -13c-18 -8.66699 -36 -13 -54 -13
c-35.333 0 -64.333 10.833 -87 32.5s-34 50.167 -34 85.5s11.333 64.166 34 86.499s51.667 33.5 87 33.5c30.667 0 56 -10.333 76 -31s34.667 -45.667 44 -75l58 -184l52 303c6.66699 39.333 -13 59 -59 59h-349zM231.997 368.001c-38.667 0 -58 -19.667 -58 -59
c0 -38.667 19.333 -58 58 -58c39.333 0 59 19.333 59 58c0 39.333 -19.667 59 -59 59z" />
    <glyph glyph-name="uF701" unicode="&#xf701;" 
d="M-260 971l-59.002 20.999c-57.333 20 -103 35 -137 45c-88.667 25.333 -179.667 41.333 -273 48c-35.333 2 -70 3 -104 3c-42 0 -73 -1.33301 -93 -4c24.667 71.333 66.334 126.833 125.001 166.5s126.334 59.5 203.001 59.5c97.333 0 176.333 -32.667 237 -98
c57.333 -61.333 91 -141.666 101 -240.999zM-598.002 1246c-109.333 0 -182.668 -34.667 -220.001 -104c10.667 1.33301 23.334 2 38.001 2c40.667 0 102 -4.33301 184 -13c45.333 -5.33301 101.666 -19.333 168.999 -42c24 -8 52.333 -18.667 85 -32
c-49.333 126 -134.666 189 -255.999 189z" />
    <glyph glyph-name="uF702" unicode="&#xf702;" 
d="M-260 971l-59.002 21c-57.333 20 -103 35 -137 45c-88.667 25.333 -179.667 41.333 -273 48c-35.333 2 -70 3 -104 3c-42 0 -73 -1.33301 -93 -4c24.667 71.333 66.334 126.833 125.001 166.5s126.334 59.5 203.001 59.5c112 0 202.667 -46.667 272 -140v206h66v-405z
M-598.002 1246c-109.333 0 -182.668 -34.667 -220.001 -104c10.667 1.33301 23.334 2 38.001 2c40.667 0 102 -4.33301 184 -13c45.333 -5.33301 101.666 -19.333 168.999 -42c24 -8 52.333 -18.667 85 -32c-49.333 126 -134.666 189 -255.999 189z" />
    <glyph glyph-name="uF703" unicode="&#xf703;" 
d="M-260 971l-59.002 21.001c-57.333 20 -103 35 -137 45c-88.667 25.333 -179.667 41.333 -273 48c-35.333 2 -70 3 -104 3c-42 0 -73 -1.33301 -93 -4c24.667 71.333 66.334 126.833 125.001 166.5s126.334 59.5 203.001 59.5c16 0 33 -1.33301 51 -4
c6.66699 -0.666992 13.667 -2 21 -4c-3.33301 28.667 2 56 16 82c20.667 38.667 56.334 58 107.001 58c82 0 123 -40.667 123 -122c0 -57.333 -25.333 -95 -76 -113c18 -20.667 31.667 -39.334 41 -56.001c29.333 -52 47.666 -112 54.999 -180zM-598.002 1246
c-109.333 0 -182.668 -34.667 -220.001 -104c10.667 1.33301 23.334 2 38.001 2c40.667 0 102 -4.33301 184 -13c45.333 -5.33301 101.666 -19.333 168.999 -42c24 -8 52.333 -18.667 85 -32c-49.333 126 -134.666 189 -255.999 189zM-403.004 1381
c-39.333 0 -59 -20 -59 -60s19.667 -60 59 -60s59 20 59 60s-19.667 60 -59 60z" />
    <glyph glyph-name="uF704" unicode="&#xf704;" 
d="M-260 971l-59.002 21c-57.333 20 -103 35 -137 45c-88.667 25.333 -179.667 41.333 -273 48c-35.333 2 -70 3 -104 3c-42 0 -73 -1.33301 -93 -4c24.667 71.333 66.334 126.833 125.001 166.5s126.334 59.5 203.001 59.5c32 0 68 -6 108 -18v84h68v-112l31 -24
c24 -20.667 45.667 -44 65 -70v206h66v-405zM-598.002 1246c-109.333 0 -182.668 -34.667 -220.001 -104c10.667 1.33301 23.334 2 38.001 2c40.667 0 102 -4.33301 184 -13c45.333 -5.33301 101.666 -19.333 168.999 -42c24 -8 52.333 -18.667 85 -32
c-49.333 126 -134.666 189 -255.999 189z" />
    <glyph glyph-name="uF705" unicode="&#xf705;" 
d="M-340 1403v-413h-70v413h70z" />
    <glyph glyph-name="uF706" unicode="&#xf706;" 
d="M-464 1229c0 -52 -10.335 -96.6709 -31.002 -134.004c-6.66699 -12 -17 -25.333 -31 -40c24.667 4.66699 44 9.33398 58 14.001c42.667 14 78.334 35.333 107.001 64c11.333 10.667 25.666 26.334 42.999 47.001c30 42.667 47.667 91 53 145l61 -17
c-7.33301 -56 -26.666 -109 -57.999 -159c-13.333 -21.333 -28.333 -40.666 -45 -57.999c-66 -68.667 -157.333 -103 -274 -103c-14 0 -25 0.666992 -33 2v62c9.33301 6.66699 17 13 23 19c17.333 16.667 30 34 38 52c-6.66699 -3.33301 -15.667 -5 -27 -5
c-32.667 0 -59.167 10.167 -79.5 30.5s-30.5 46.833 -30.5 79.5s10.167 59.334 30.5 80.001s46.833 31 79.5 31c46 0 79 -18.333 99 -55c6.66699 -12 12.334 -30.333 17.001 -55zM-580.002 1283c-36.667 0 -55 -18 -55 -54s18.333 -54 55 -54c37.333 0 56 18 56 54
s-18.667 54 -56 54z" />
    <glyph glyph-name="uF707" unicode="&#xf707;" 
d="M-593 988c-46 0 -83.667 18.3311 -113 54.998c-28 34.667 -42 75.334 -42 122.001c0 43.333 9.66699 80 29 110c22 34.667 53.667 52 95 52c28.667 0 54.334 -8 77.001 -24c7.33301 -5.33301 16 -13.666 26 -24.999c11.333 10.667 21 18.667 29 24
c24.667 16.667 48 25 70 25c65.333 0 106 -30.333 122 -91l54 106l54 -24l-167 -328h-68l61 128c9.33301 19.333 14 44 14 74c0 20.667 -7.33301 38.167 -22 52.5s-32.334 21.5 -53.001 21.5c-16 0 -36.333 -10 -61 -30c-7.33301 -6 -18.333 -16.333 -33 -31
c-10.667 12.667 -19.667 22 -27 28c-22.667 18.667 -44.667 28 -66 28c-47.333 0 -71 -33.667 -71 -101c0 -21.333 3 -36 9 -44c6 12 11.667 20.667 17 26c17.333 17.333 39.333 26 66 26c59.333 0 89 -29 89 -87c0 -62 -29.667 -93 -89 -93zM-595 1123
c-30.667 0 -46 -15.333 -46 -46c0 -30 15.333 -45 46 -45c31.333 0 47 15 47 45c0 30.667 -15.667 46 -47 46z" />
    <glyph glyph-name="uF708" unicode="&#xf708;" 
d="M-408 1172v-182h-71v182h-182v71h182v180h71v-180h180v-71h-180z" />
    <glyph glyph-name="uF709" unicode="&#xf709;" 
d="M-422 1049c-36.667 0 -66.167 11.832 -88.5 35.499s-33.5 53.834 -33.5 90.501c0 51.333 25.667 89 77 113l357 169l34 -57l-273 -124c32.667 -22.667 49 -58 49 -106c0 -80.667 -40.667 -121 -122 -121zM-422 1231c-40 0 -60 -19.667 -60 -59c0 -38.667 20 -58 60 -58
s60 19.333 60 58c0 39.333 -20 59 -60 59z" />
    <glyph glyph-name="uF70A" unicode="&#xf70a;" 
d="M-118 1398v-408h-72v408h72z" />
    <glyph glyph-name="uF70B" unicode="&#xf70b;" 
d="M-331 1256c0 -56.667 -11.668 -106.667 -35.001 -150c-8 -14.667 -19.667 -30 -35 -46c28.667 5.33301 50.334 10.666 65.001 15.999c48.667 16.667 88.667 41.334 120 74.001c22.667 23.333 38 41 46 53c32 46.667 51 99 57 157l71 -18
c-6.66699 -50 -21 -96.333 -43 -139c-18.667 -37.333 -43.667 -71 -75 -101c-48 -46 -102 -77.667 -162 -95c-43.333 -12.667 -89 -19 -137 -19c-20 0 -32.667 0.666992 -38 2v67c10.667 8 19 15 25 21c18.667 18.667 32.667 38.667 42 60
c-4.66699 -3.33301 -14.667 -5 -30 -5c-36 0 -65.167 11.333 -87.5 34s-33.5 51.667 -33.5 87c0 36 11.167 65.333 33.5 88s51.5 34 87.5 34c50 0 86.333 -20 109 -60c7.33301 -12.667 14 -32.667 20 -60zM-460.001 1315c-40 0 -60 -20.333 -60 -61c0 -40 20 -60 60 -60
s60 20 60 60c0 40.667 -20 61 -60 61z" />
    <glyph glyph-name="uF70C" unicode="&#xf70c;" 
d="M-467 988c-48.667 0 -88.333 19.333 -119 58c-28.667 36 -43 79 -43 129c0 112.667 43.333 169 130 169c30.667 0 58 -8.66699 82 -26c7.33301 -5.33301 16 -14 26 -26c11.333 11.333 21.333 20 30 26c24.667 17.333 49 26 73 26c69.333 0 113 -32 131 -96l56 112l59 -26
l-176 -344h-75l67 133c10 20 15 46 15 78c0 15.333 -5 30.333 -15 45c-15.333 22.667 -37.666 34 -66.999 34c-14.667 0 -35.334 -10.333 -62.001 -31c-8.66699 -6.66699 -20.667 -17.334 -36 -32.001c-11.333 13.333 -20.666 23 -27.999 29c-24 20 -47.667 30 -71 30
c-30.667 0 -52.334 -16 -65.001 -48c-6.66699 -17.333 -10 -36.666 -10 -57.999c0 -22.667 4 -39 12 -49c6 12 12 21 18 27c18 18 41.667 27 71 27c61.333 0 92 -29.667 92 -89c0 -28 -8.83301 -51.333 -26.5 -70s-40.5 -28 -68.5 -28zM-466.999 1130c-32 0 -48 -16 -48 -48
s16 -48 48 -48s48 16 48 48s-16 48 -48 48z" />
    <glyph glyph-name="uF70D" unicode="&#xf70d;" 
d="M-221 1172v-182h-72v182h-181v71h181v180h72v-180h179v-71h-179z" />
    <glyph glyph-name="uF70E" unicode="&#xf70e;" 
d="M-349 1001c-36.667 0 -65.833 11.667 -87.5 35s-32.5 53.333 -32.5 90c0 50.667 25 88 75 112l359 171l35 -58l-272 -127c32 -22.667 48 -57 48 -103c0 -80 -41.667 -120 -125 -120zM-346.999 1180c-39.333 0 -59 -19.667 -59 -59s19.667 -59 59 -59s59 19.667 59 59
s-19.667 59 -59 59z" />
    <glyph glyph-name="uF70F" unicode="&#xf70f;" horiz-adv-x="1118" 
d="M934 71v744.999h72v-816h-480v71h49v477c0 60.667 -22.5 110.334 -67.5 149.001s-98.5 58 -160.5 58c-104.667 0 -176.667 -39 -216 -117l83 -92v-320c18.667 6.66699 35.667 10 51 10c36.667 0 66.5 -11.333 89.5 -34s34.5 -52.334 34.5 -89.001
c0 -37.333 -11.333 -67.166 -34 -89.499s-52.667 -33.5 -90 -33.5c-36 0 -65.333 12.333 -88 37s-34 55 -34 91v412l-96 99c54 131.333 154.667 197 302 197c86.667 0 157.667 -24.667 213 -74c56.667 -51.333 85 -120 85 -206v-475h287zM265 171.999
c-40.667 0 -61 -20 -61 -60s20.333 -60 61 -60c41.333 0 62 20 62 60s-20.667 60 -62 60z" />
    <glyph glyph-name="uF710" unicode="&#xf710;" 
d="M-506 990c-78 21.333 -117 66.999 -117 136.999c0 34.667 10.833 64 32.5 88s49.5 36 83.5 36c5.33301 -0.666992 9.66602 -1 12.999 -1c78 0 117 -38.667 117 -116c0 -52 -13.667 -83.667 -41 -95c16.667 -3.33301 37 -5 61 -5c169.333 0 279 71.333 329 214l63 -24
c-62 -170 -187.333 -255 -376 -255h-33c-7.33301 0.666992 -19.333 2 -36 4c-27.333 2.66699 -51.666 6.33398 -72.999 11.001c-4 0.666992 -11.667 2.66699 -23 6zM-497 1187c-41.333 0 -62 -20.667 -62 -62c0 -37.333 19 -56 57 -56c41.333 0 62 20.667 62 62
c0 37.333 -19 56 -57 56z" />
    <glyph glyph-name="uF711" unicode="&#xf711;" 
d="M-379 983c-36 0 -65.5 11.167 -88.5 33.5s-34.5 51.5 -34.5 87.5c0 36.667 11.333 66.167 34 88.5s52.334 33.5 89.001 33.5c36 0 65.5 -11.333 88.5 -34s34.5 -52 34.5 -88s-11.333 -65.167 -34 -87.5s-52.334 -33.5 -89.001 -33.5zM-379 1165
c-40.667 0 -61 -20.333 -61 -61c0 -40 20.333 -60 61 -60s61 20 61 60c0 40.667 -20.333 61 -61 61z" />
    <glyph glyph-name="uF712" unicode="&#xf712;" 
d="M-406 922c-65.333 0 -119.333 16.333 -162 49c-14 10.667 -28.667 27 -44 49l-68 -98c-40.667 0 -75.667 21 -105 63c-27.333 38.667 -41 79 -41 121c0 46.667 18 85.834 54 117.501s77.667 47.5 125 47.5h279c43.333 0 74.333 18 93 54l52 -33
c-10.667 -20 -20.667 -34.333 -30 -43c-30 -29.333 -68.333 -44 -115 -44h-279c-29.333 0 -55 -9.33301 -77 -28s-33 -42.334 -33 -71.001c0 -38 10.333 -66.667 31 -86c6 -6 16.667 -12.333 32 -19l82 110c16 -26 29 -45.333 39 -58c30.667 -38.667 57 -58 79 -58
c0.666992 26.667 3 46 7 58c13.333 38.667 41.333 58 84 58c28 0 50.833 -9 68.5 -27s26.5 -41 26.5 -69c0 -62 -32.667 -93 -98 -93zM-403 1067c-34 0 -51 -17.333 -51 -52c0 -34 17 -51 51 -51s51 17 51 51c0 34.667 -17 52 -51 52z" />
    <glyph glyph-name="uF713" unicode="&#xf713;" 
d="M-260 1759v-309h-66v309h66z" />
    <glyph glyph-name="uF714" unicode="&#xf714;" 
d="M-326 1681c0 -52.667 -10.3359 -98.001 -31.0029 -136.001c-7.33301 -13.333 -18 -27 -32 -41c24 4.66699 43.667 9.66699 59 15c64.667 23.333 114.334 61 149.001 113c28 42.667 44.667 90.334 50 143.001l65 -16c-6 -44 -19.333 -86 -40 -126
c-25.333 -48.667 -47.333 -78.667 -66 -90c-66.667 -68.667 -156.667 -103 -270 -103c-16 0 -27.333 0.666992 -34 2v62c8.66699 6 16.334 12 23.001 18c18 17.333 31.333 35.333 40 54c-6.66699 -3.33301 -16.667 -5 -30 -5c-32 0 -58 10.333 -78 31s-30 47 -30 79
s10 58.5 30 79.5s46 31.5 78 31.5c46.667 0 80 -18.333 100 -55c6.66699 -12 12.334 -30.667 17.001 -56zM-443.003 1733c-37.333 0 -56 -17.667 -56 -53s18.667 -53 56 -53s56 17.667 56 53s-18.667 53 -56 53z" />
    <glyph glyph-name="uF715" unicode="&#xf715;" 
d="M-509 1477c-43.333 0 -78.998 17.666 -106.998 52.999c-25.333 32.667 -38 71.334 -38 116.001c0 40 9 73.667 27 101c20.667 32.667 50 49 88 49c28 0 53.333 -7.33301 76 -22c7.33301 -4.66699 15.666 -12 24.999 -22c11.333 10.667 20 18 26 22
c22 14.667 43.667 22 65 22c62 0 101.667 -28 119 -84l52 101l51 -24l-161 -309h-63l56 120c6 10.667 10.333 24.667 13 42c0.666992 5.33301 1.66699 14.333 3 27c0 20 -7.33301 36.833 -22 50.5s-32.334 20.5 -53.001 20.5c-12.667 0 -30.667 -9.33301 -54 -28l-32 -28
c-11.333 12 -20 20.333 -26 25c-22.667 17.333 -44 26 -64 26c-44.667 0 -67 -31 -67 -93c0 -22.667 3.66699 -37.667 11 -45c6 11.333 11 19.333 15 24c15.333 16.667 36.333 25 63 25c55.333 0 83 -26.667 83 -80c0 -25.333 -8 -46.5 -24 -63.5s-36.667 -25.5 -62 -25.5z
M-508.998 1604c-28.667 0 -43 -14.333 -43 -43c0 -28 14.333 -42 43 -42s43 14 43 42c0 28.667 -14.333 43 -43 43z" />
    <glyph glyph-name="uF716" unicode="&#xf716;" 
d="M-260 1450h-66v121h-122v66h122v122h66v-122h122v-66h-122v-121z" />
    <glyph glyph-name="uF717" unicode="&#xf717;" 
d="M-293 1438c-32 0 -58 10.668 -78 32.001s-30 48 -30 80c0 47.333 23.333 82 70 104l321 152l34 -52l-250 -112c29.333 -20.667 44 -52.334 44 -95.001c0 -72.667 -37 -109 -111 -109zM-290 1602c-36 0 -54 -18 -54 -54s18 -54 54 -54s54 18 54 54s-18 54 -54 54z" />
    <glyph glyph-name="uF718" unicode="&#xf718;" 
d="M-190 -710c-14.667 -10 -31.667 -15 -51 -15c-36 0 -65.5 11.5 -88.5 34.5s-34.5 52.5 -34.5 88.5s11.5 65 34.5 87s52.5 33 88.5 33s65.5 -11 88.5 -33s34.5 -51 34.5 -87v-197h-72v89zM-241 -543c-40.667 0 -61 -20 -61 -60s20.333 -60 61 -60s61 20 61 60
s-20.333 60 -61 60z" />
    <glyph glyph-name="uF719" unicode="&#xf719;" 
d="M-322 -732h132v250h72v-317h-276v89c-14.667 -10 -31.667 -15 -51 -15c-36 0 -65.5 11.5 -88.5 34.5s-34.5 52.5 -34.5 88.5s11.5 65 34.5 87s52.5 33 88.5 33s65.5 -11 88.5 -33s34.5 -51 34.5 -87v-130zM-445 -543c-40.667 0 -61 -20 -61 -60s20.333 -60 61 -60
s61 20 61 60s-20.333 60 -61 60z" />
    <glyph glyph-name="uF71A" unicode="&#xf71a;" 
d="M-204 -636c-52.667 0 -79 26.667 -79 80s26.333 80 79 80c53.333 0 80 -26.667 80 -80s-26.667 -80 -80 -80z" />
    <glyph glyph-name="uF71B" unicode="&#xf71b;" 
d="M-615 1024h615v-1024h-615v1024z" />
    <glyph glyph-name="uF71C" unicode="&#xf71c;" horiz-adv-x="455" 
 />
    <glyph glyph-name="uF71D" unicode="&#xf71d;" horiz-adv-x="455" 
d="M24 -184v180h406v-180h-98v67h-215v-67h-93z" />
    <glyph glyph-name=".null" 
 />
    <glyph glyph-name="nonmarkingreturn" horiz-adv-x="455" 
 />
  </font>
</defs>
</svg>
